<?xml version="1.0" standalone="no"?>
<!DOCTYPE svg PUBLIC "-//W3C//DTD SVG 20010904//EN"
 "http://www.w3.org/TR/2001/REC-SVG-20010904/DTD/svg10.dtd">
<svg version="1.0" xmlns="http://www.w3.org/2000/svg"
 width="256.000000pt" height="256.000000pt" viewBox="0 0 256.000000 256.000000"
 preserveAspectRatio="xMidYMid meet">
<metadata>
Created by potrace 1.14, written by Peter Selinger 2001-2017
</metadata>
<g transform="translate(0.000000,256.000000) scale(0.100000,-0.100000)"
fill="#000000" stroke="none">
<path d="M223 2541 c-94 -32 -143 -76 -194 -171 l-24 -45 0 -1040 0 -1040 26
-56 c32 -68 82 -120 152 -157 l52 -27 1040 0 1040 0 56 26 c68 32 120 82 157
152 l27 52 0 1040 0 1040 -26 56 c-32 68 -82 120 -152 157 l-52 27 -1025 2
c-966 2 -1028 2 -1077 -16z m1192 -416 c222 -56 394 -238 430 -452 6 -39 4
-46 -23 -73 -17 -16 -39 -30 -50 -30 -37 0 -70 37 -81 92 -46 211 -257 355
-468 318 -181 -31 -312 -162 -343 -343 -37 -209 109 -423 319 -468 54 -11 76
-30 86 -71 6 -22 1 -33 -23 -58 -35 -35 -38 -35 -116 -15 -100 26 -188 80
-265 161 -105 110 -149 209 -158 359 -10 167 43 302 166 426 144 144 340 201
526 154z m42 -560 c189 -60 344 -227 382 -413 39 -191 -14 -376 -147 -515
-107 -110 -222 -164 -372 -174 -201 -13 -393 85 -509 258 -69 104 -102 248
-63 281 60 53 116 22 138 -77 13 -58 66 -148 115 -195 205 -197 539 -133 662
127 29 62 32 76 32 168 0 92 -3 105 -33 170 -54 115 -151 199 -264 229 -74 20
-87 26 -98 47 -19 34 -12 76 16 98 34 27 46 26 141 -4z"/>
</g>
</svg>
