<svg width="120" height="120" viewBox="0 0 120 120" fill="none" xmlns="http://www.w3.org/2000/svg">
<rect opacity="0.1" x="24" y="90" width="69" height="9" rx="4.5" fill="#500F0F"/>
<path d="M25 24H91.5031C91.5031 24 89.994 61.8028 86.1449 94.9042L31.4604 95C31.4604 95 26.9217 67.6316 25 24Z" fill="#F2E8CF"/>
<path d="M25 24C26.9217 67.6316 31.4547 95 31.4547 95L86.1392 94.9042C89.9883 61.8028 91.4975 24 91.4975 24H25ZM83.2058 91.1724L34.2808 91.2569C34.2808 91.2569 30.2226 66.7748 28.5043 27.7374H87.9988C87.9988 27.7374 86.6479 61.5604 83.2058 91.1724Z" fill="#E6D0A2"/>
<path d="M90.6101 46.7402C90.4744 46.7402 90.3444 46.7402 90.2087 46.7515C90.0222 48.9613 89.8074 51.4134 89.5644 54.0291C89.9035 53.9727 90.254 53.9332 90.6101 53.9332C94.0239 53.9332 96.7935 56.6955 96.7935 60.1003C96.7935 63.5051 94.0239 66.2673 90.6101 66.2673C89.8074 66.2673 89.0388 66.1095 88.3322 65.8333C88.0609 68.2065 87.767 70.6305 87.4505 73.0883C88.4622 73.3307 89.5192 73.466 90.6044 73.466C98.0031 73.466 104 67.485 104 60.1059C104 52.7269 98.0031 46.7459 90.6044 46.7459L90.6101 46.7402Z" fill="#E6D0A2"/>
<path d="M48.9086 58.0372C40.4134 58.4431 35.2587 53.6966 33.0261 50.9964C34.7217 73.9622 36.9939 87.6605 36.9939 87.6605L80.3797 87.5872C81.7927 75.4053 82.8101 62.7104 83.494 52.5974C72.4498 41.7966 59.755 57.5242 48.9086 58.0372Z" fill="#5D3526"/>
<g style="mix-blend-mode:multiply">
<path d="M83.4262 53.657C72.3989 42.9972 59.7324 58.6516 48.9086 59.1702C40.5208 59.5704 35.3943 54.9536 33.1221 52.2365C33.3595 55.3538 33.6026 58.3021 33.8513 61.053C37.7399 63.088 43.3808 64.8863 48.9086 64.6213C58.585 64.1591 72.4893 51.5938 83.2227 56.5489C83.2906 55.5624 83.3584 54.6041 83.4262 53.657Z" fill="#E4C7A1"/>
</g>
<path opacity="0.8" d="M48.9086 63.494C58.6077 63.0317 72.5571 50.4045 83.2962 55.4554C83.364 54.4858 83.4319 53.5275 83.494 52.5974C72.4498 41.7966 59.755 57.5242 48.9086 58.0372C40.4134 58.4431 35.2587 53.6966 33.0261 50.9964C33.2578 54.1307 33.5008 57.0902 33.7495 59.8693C37.6382 61.9269 43.3356 63.7589 48.9086 63.494Z" fill="#A1652D"/>
<path opacity="0.3" d="M46.7156 34.2878L34.343 33.9722C35.7278 65.343 38.9834 85.0223 38.9834 85.0223L47.6369 85.0054C46.8399 58.4149 46.7156 34.2878 46.7156 34.2878Z" fill="white"/>
</svg>
