<svg width="9" height="15" viewBox="0 0 9 15" fill="none" xmlns="http://www.w3.org/2000/svg">
<path d="M8.64062 7.35938C8.64062 7.51562 8.60938 7.66406 8.54688 7.80469C8.48958 7.9401 8.39583 8.07031 8.26562 8.19531L2.25781 14.0781C2.05469 14.276 1.80729 14.375 1.51562 14.375C1.32812 14.375 1.15365 14.3281 0.992188 14.2344C0.830729 14.1406 0.700521 14.0156 0.601562 13.8594C0.507812 13.7031 0.460938 13.526 0.460938 13.3281C0.460938 13.0417 0.570312 12.7865 0.789062 12.5625L6.14062 7.35938L0.789062 2.15625C0.570312 1.9375 0.460938 1.68229 0.460938 1.39062C0.460938 1.19792 0.507812 1.02344 0.601562 0.867188C0.700521 0.705729 0.830729 0.578125 0.992188 0.484375C1.15365 0.390625 1.32812 0.34375 1.51562 0.34375C1.80729 0.34375 2.05469 0.442708 2.25781 0.640625L8.26562 6.52344C8.39062 6.64844 8.48438 6.77865 8.54688 6.91406C8.60938 7.04948 8.64062 7.19792 8.64062 7.35938Z" fill="#D1D1D1"/>
</svg>
