<svg width="17" height="17" viewBox="0 0 17 17" fill="none" xmlns="http://www.w3.org/2000/svg">
<g clip-path="url(#clip0_14511_116309)">
<path d="M8.43169 6.6294C8.46474 5.03032 9.25862 3.69227 10.7252 2.76374C11.0698 2.54522 11.4108 2.37392 11.7176 2.24146C9.14249 0.867306 5.63839 2.24939 3.82676 5.38722C2.58279 7.54184 2.45532 9.97054 3.29874 11.7825C3.6494 12.5361 4.16496 13.1808 4.84055 13.6553C5.22125 13.4975 5.77877 13.1979 6.33813 12.6485C6.4847 12.5056 6.62186 12.3503 6.75113 12.1881C7.80104 10.8876 8.37915 8.98175 8.43092 6.62661L8.43169 6.6294Z" fill="#F9F6ED"/>
<path d="M12.9555 2.99608C12.589 3.12924 12.124 3.33446 11.6623 3.6284C10.357 4.46248 9.67786 5.60177 9.64772 7.01491C9.61464 8.58115 9.3605 9.95877 8.89365 11.1128C8.71071 11.5653 8.49292 11.9836 8.24587 12.3663C7.98282 12.7726 7.68517 13.1401 7.35341 13.4598C6.90506 13.8951 6.45811 14.1882 6.08177 14.3837C8.10767 15.3728 10.6618 14.7109 12.5223 12.87C13.0158 12.3811 13.4605 11.8123 13.8332 11.1668C15.5585 8.1785 15.1408 4.65881 12.9555 2.99608Z" fill="#F9F6ED"/>
</g>
<defs>
<clipPath id="clip0_14511_116309">
<rect width="16" height="16" fill="white" transform="translate(0.5 0.5)"/>
</clipPath>
</defs>
</svg>
