<?xml version="1.0" encoding="UTF-8"?>
<svg id="_圖層_1" data-name="圖層 1" xmlns="http://www.w3.org/2000/svg" viewBox="0 0 50 68">
  <defs>
    <style>
      .cls-1 {
        fill: #295c50;
      }

      .cls-1, .cls-2, .cls-3, .cls-4, .cls-5, .cls-6, .cls-7, .cls-8, .cls-9, .cls-10, .cls-11, .cls-12, .cls-13, .cls-14, .cls-15, .cls-16, .cls-17 {
        stroke-width: 0px;
      }

      .cls-2 {
        fill: #43220f;
      }

      .cls-18 {
        opacity: .74;
      }

      .cls-3 {
        fill: #3c1e0d;
      }

      .cls-19 {
        opacity: .18;
      }

      .cls-20 {
        opacity: .5;
      }

      .cls-4 {
        fill: #522a12;
      }

      .cls-21 {
        opacity: .6;
      }

      .cls-5 {
        fill: #2f7262;
      }

      .cls-6 {
        fill: #5d2f14;
      }

      .cls-22 {
        opacity: .2;
      }

      .cls-7 {
        fill: #4a2813;
      }

      .cls-8 {
        fill: #500f0f;
      }

      .cls-9 {
        fill: #244b42;
      }

      .cls-23 {
        opacity: .48;
      }

      .cls-24 {
        opacity: .75;
      }

      .cls-25 {
        opacity: .3;
      }

      .cls-26 {
        opacity: .47;
      }

      .cls-10 {
        fill: #e2e2e2;
      }

      .cls-27 {
        opacity: .1;
      }

      .cls-11 {
        fill: #351b0c;
      }

      .cls-28 {
        opacity: .53;
      }

      .cls-12 {
        fill: #c6905c;
      }

      .cls-29 {
        opacity: .62;
      }

      .cls-13 {
        fill: #fff;
      }

      .cls-30 {
        opacity: .79;
      }

      .cls-14 {
        fill: #223f38;
      }

      .cls-15 {
        fill: #a56734;
      }

      .cls-16 {
        fill: #bc6c1d;
      }

      .cls-31 {
        opacity: .77;
      }

      .cls-17 {
        fill: #1a332c;
      }
    </style>
  </defs>
  <g class="cls-27">
    <ellipse class="cls-8" cx="25" cy="60.35" rx="10.51" ry="4.84"/>
  </g>
  <g>
    <g>
      <path class="cls-13" d="M25,63.16c-5.42,0-9.66-2.44-9.66-5.55s4.24-5.54,9.66-5.54,9.66,2.44,9.66,5.54-4.24,5.55-9.66,5.55ZM25,53.12c-4.67,0-8.61,2.06-8.61,4.49s3.94,4.49,8.61,4.49,8.61-2.06,8.61-4.49-3.94-4.49-8.61-4.49Z"/>
      <g>
        <polyline class="cls-12" points="15.94 57.98 12.84 22.02 37.16 22.02 33.93 58.23"/>
        <path class="cls-15" d="M35.06,22.02c-1.61,4.95-1.88,10.11-2.09,15.35-.19,4.9-.37,10.49-3,14.82-1.12,1.84-2.74,3.6-4.95,4.03-2.19.43-4.38-.07-6.24-1.28-1.56-1-2.65-2.34-3.56-3.82l.72,6.16,6.4,3.94,10.49-2.51,1.55-1.32,2.79-35.37h-2.1Z"/>
      </g>
      <g>
        <path class="cls-13" d="M25,59.85c-3.66,0-7.48-1.85-8.94-3.55-.55.65-.2.22-.2.98,0,2.77,4.09,5.02,9.14,5.02s9.14-2.25,9.14-5.02c0-.76.65-.63.1-1.28-1.46,1.71-5.58,3.85-9.24,3.85Z"/>
        <polygon class="cls-13" points="15.41 58.03 12.27 21.5 37.73 21.5 34.66 57.66 33.62 57.57 36.59 22.55 13.41 22.55 16.46 57.94 15.41 58.03"/>
        <path class="cls-10" d="M37.47,23.27l.04-1.56c-2.52-6.86-10.73-6.46-12.34-6.32-1.57-.14-9.39-.52-12.13,5.78,7.57,1.25,15.16,2.43,22.75,3.57.53-.53,1.09-1.01,1.68-1.47Z"/>
        <path class="cls-10" d="M37.47,23.27l.04-1.56c-2.52-6.86-10.73-6.46-12.34-6.32-1.57-.14-11.51,0-12.5,7.11,5.12,9.25,15.54,1.1,23.13,2.24.53-.53,1.09-1.01,1.68-1.47Z"/>
      </g>
    </g>
    <g>
      <g>
        <ellipse class="cls-12" cx="24.93" cy="22.82" rx="11.57" ry="5.85"/>
        <g>
          <path class="cls-16" d="M29.26,23.55c-.03.98-1.01,1.56-1.82,1.91-1.75.71-3.74.81-5.55.24-2.74-.9-2.74-3.38,0-4.28,1.82-.58,3.81-.47,5.55.24.81.35,1.78.93,1.82,1.91h0ZM29.26,23.55c-.05-.98-1.03-1.53-1.85-1.81-1.71-.54-3.66-.44-5.3.24-2.1.87-2.11,2.29,0,3.16,1.64.67,3.59.78,5.3.24.82-.29,1.8-.84,1.85-1.81h0Z"/>
          <path class="cls-16" d="M21.5,23.47c.23-1.79,3.85-2.05,5.21-1.51,1.94.64,1.94,2.39,0,3.03-1.35.54-4.98.28-5.21-1.51h0ZM21.5,23.47c.29,1.84,3.77,1.73,5.06,1.12,1.48-.6,1.48-1.63,0-2.23-1.3-.61-4.75-.73-5.06,1.12h0Z"/>
        </g>
      </g>
      <g class="cls-20">
        <path class="cls-13" d="M25,30.17c-7.64,0-13.63-3.58-13.63-8.14s5.99-8.14,13.63-8.14,13.63,3.58,13.63,8.14-5.99,8.14-13.63,8.14ZM25,16.81c-6.3,0-10.7,2.75-10.7,5.22s4.39,5.22,10.7,5.22,10.7-2.75,10.7-5.22-4.39-5.22-10.7-5.22Z"/>
      </g>
      <path class="cls-9" d="M24.64,24.06s-.09,0-.13,0c-.74-.07-1.28-.48-1.21-1.22l1.92-20.27c.07-.74.6-.63,1.34-.56.74.07,1.4.08,1.33.82l-1.92,20.27c-.07.69-.65.97-1.33.97Z"/>
    </g>
    <g>
      <g>
        <g>
          <path class="cls-13" d="M25.06,59.94c-3.71,0-7.59-1.88-9.07-3.61-.56.66-.2.15-.2.92,0,2.81,4.15,5.09,9.28,5.09s9.28-2.28,9.28-5.09c0-.77.66-.57.1-1.23-1.48,1.73-5.66,3.91-9.38,3.91Z"/>
          <g>
            <line class="cls-13" x1="15.86" y1="58.08" x2="12.71" y2="21.54"/>
            <rect class="cls-13" x="13.76" y="21.48" width="1.05" height="36.67" transform="translate(-3.36 1.37) rotate(-4.92)"/>
          </g>
          <g class="cls-22">
            <path class="cls-13" d="M37.25,22.6c-.93,3.24-6.03,5.72-12.19,5.72-6.77,0-12.27-3-12.34-6.71h-.07l2.96,36.24c.01.24.03-1.44.06-1.22l.05.56s0,.09,0,.14c0,.18.02.36.05.54l.02.29h.05c.72,2.42,4.54,4.27,9.15,4.27,5.12,0,9.28-2.28,9.28-5.09h0s.03-.32.03-.32c.1-.75.47,0,.21-.67l2.75-33.74Z"/>
          </g>
        </g>
        <g>
          <g class="cls-25">
            <polygon class="cls-13" points="17.97 61.59 15.64 26.22 21.63 28.1 24.66 28.53 23.44 62.82 17.97 61.59"/>
          </g>
          <g class="cls-25">
            <polygon class="cls-13" points="19.66 62 17.3 26.87 21.63 28.1 21.47 62.28 19.66 62"/>
          </g>
        </g>
      </g>
      <path class="cls-13" d="M26.81,14.34l-.09.99c5.75.43,10.19,3.06,10.19,6.22,0,3.47-5.32,6.29-11.85,6.29s-11.85-2.82-11.85-6.29c0-3.27,4.74-5.97,10.78-6.26l.1-.99c-6.73.27-11.86,3.36-11.86,7.25s5.64,7.27,12.84,7.27,12.84-3.2,12.84-7.27c0-3.74-4.74-6.74-11.08-7.21Z"/>
    </g>
    <g class="cls-18">
      <g>
        <path class="cls-7" d="M17.92,49.68c-.39.3-.95.23-1.26-.16s-.23-.95.16-1.26c.39-.3.95-.23,1.26.16s.23.95-.16,1.26Z"/>
        <path class="cls-3" d="M18.26,49.05c-.05.06-.1.12-.17.17-.39.3-.95.23-1.26-.16-.15-.19-.2-.41-.18-.63-.24.31-.25.76,0,1.08.3.39.87.46,1.26.16.2-.16.32-.39.34-.62Z"/>
        <g class="cls-19">
          <path class="cls-13" d="M17.88,48.73c-.07.05-.16.04-.22-.03-.05-.07-.04-.16.03-.22.07-.05.16-.04.22.03.05.07.04.16-.03.22Z"/>
        </g>
      </g>
      <g>
        <path class="cls-7" d="M19.61,57.03c-.57.45-1.4.36-1.85-.21-.45-.57-.36-1.4.21-1.85.57-.45,1.4-.36,1.85.21.45.57.36,1.4-.21,1.85Z"/>
        <path class="cls-3" d="M20.1,56.1c-.07.09-.14.18-.24.26-.57.45-1.4.36-1.85-.21-.22-.27-.3-.6-.28-.93-.34.47-.35,1.12.03,1.59.45.57,1.28.66,1.85.21.3-.24.46-.57.49-.92Z"/>
        <g class="cls-19">
          <path class="cls-13" d="M19.53,55.64c-.1.08-.24.06-.32-.04-.08-.1-.06-.24.04-.32.1-.08.24-.06.32.04.08.1.06.24-.04.32Z"/>
        </g>
      </g>
      <g>
        <path class="cls-7" d="M25.27,45.95c-.57.45-1.4.36-1.85-.21-.45-.57-.36-1.4.21-1.85.57-.45,1.4-.36,1.85.21s.36,1.4-.21,1.85Z"/>
        <path class="cls-3" d="M25.76,45.03c-.07.09-.14.18-.24.26-.57.45-1.4.36-1.85-.21-.22-.27-.3-.6-.28-.93-.34.47-.35,1.12.03,1.59.45.57,1.28.66,1.85.21.3-.24.46-.57.49-.92Z"/>
        <g class="cls-19">
          <path class="cls-13" d="M25.19,44.57c-.1.08-.24.06-.32-.04-.08-.1-.06-.24.04-.32.1-.08.24-.06.32.04.08.1.06.24-.04.32Z"/>
        </g>
      </g>
      <g>
        <path class="cls-2" d="M23.97,57.78c.28.68,1.06,1,1.74.72.68-.28,1-1.06.72-1.74-.28-.68-1.06-1-1.74-.72-.68.28-1,1.06-.72,1.74Z"/>
        <path class="cls-11" d="M23.99,56.73c.01.12.04.23.09.34.28.68,1.06,1,1.74.72.32-.13.56-.38.7-.68.07.58-.24,1.16-.8,1.39-.68.28-1.45-.04-1.74-.72-.15-.35-.13-.73.02-1.05Z"/>
        <g class="cls-19">
          <path class="cls-13" d="M25.68,56.48c-.08.03-.11.12-.08.19s.12.11.19.08c.08-.03.11-.12.08-.19-.03-.08-.12-.11-.19-.08Z"/>
        </g>
      </g>
      <g>
        <path class="cls-2" d="M34.64,46.55c0-.73-.59-1.33-1.32-1.33-.73,0-1.33.59-1.33,1.32,0,.73.59,1.33,1.32,1.33.73,0,1.33-.59,1.33-1.32Z"/>
        <path class="cls-11" d="M34.21,47.51c.03-.11.05-.23.05-.35,0-.73-.59-1.33-1.32-1.33-.35,0-.67.14-.91.36.16-.56.67-.97,1.28-.97.73,0,1.33.6,1.32,1.33,0,.38-.17.72-.43.96Z"/>
        <g class="cls-19">
          <path class="cls-13" d="M32.55,47.09c.08,0,.15-.07.15-.15s-.07-.15-.15-.15c-.08,0-.15.07-.15.15,0,.08.07.15.15.15Z"/>
        </g>
      </g>
      <g class="cls-29">
        <path class="cls-2" d="M19.76,47.29c.31.76,1.19,1.12,1.95.81.76-.31,1.12-1.19.81-1.95-.31-.76-1.19-1.12-1.95-.81-.76.31-1.12,1.19-.81,1.95Z"/>
        <path class="cls-11" d="M19.79,46.11c.02.13.04.26.1.39.31.76,1.19,1.12,1.95.81.36-.15.63-.43.78-.76.08.65-.27,1.3-.9,1.56-.76.31-1.63-.05-1.95-.81-.16-.4-.14-.82.02-1.18Z"/>
        <g class="cls-19">
          <path class="cls-13" d="M20.6,45.97c.05.13.2.19.34.14.13-.05.19-.2.14-.34s-.2-.19-.34-.14-.19.2-.14.34Z"/>
        </g>
      </g>
      <g class="cls-29">
        <path class="cls-2" d="M31.92,56.7c.77,0,1.39-.62,1.39-1.39s-.62-1.39-1.39-1.39c-.77,0-1.39.62-1.39,1.39s.62,1.39,1.39,1.39Z"/>
        <path class="cls-11" d="M30.91,56.26c.12.03.24.05.37.05.77,0,1.39-.62,1.39-1.39,0-.37-.15-.7-.38-.95.59.16,1.02.69,1.02,1.33,0,.77-.62,1.39-1.39,1.39-.4,0-.76-.17-1.01-.44Z"/>
        <g class="cls-19">
          <path class="cls-13" d="M31.07,55.51c.13,0,.24-.11.24-.24,0-.13-.11-.24-.24-.24-.13,0-.24.11-.24.24s.11.24.24.24Z"/>
        </g>
      </g>
      <g>
        <path class="cls-2" d="M25.88,49.97c.85,0,1.54-.69,1.54-1.55,0-.85-.69-1.54-1.55-1.54-.85,0-1.54.69-1.54,1.55,0,.85.69,1.54,1.55,1.54Z"/>
        <path class="cls-11" d="M24.76,49.48c.13.04.27.06.41.06.85,0,1.54-.69,1.54-1.55,0-.41-.16-.78-.42-1.05.65.18,1.14.77,1.14,1.48,0,.85-.69,1.55-1.54,1.55-.44,0-.84-.19-1.13-.49Z"/>
        <g class="cls-19">
          <path class="cls-13" d="M24.94,48.64c.15,0,.27-.12.27-.27,0-.15-.12-.27-.27-.27-.15,0-.27.12-.27.27,0,.15.12.27.27.27Z"/>
        </g>
      </g>
      <g class="cls-23">
        <path class="cls-6" d="M27.97,52.09c-.71-.05-1.24-.66-1.2-1.36.05-.71.66-1.24,1.36-1.2.71.05,1.24.66,1.2,1.36-.05.71-.66,1.24-1.36,1.2Z"/>
        <path class="cls-4" d="M28.93,51.75c-.11.02-.22.04-.34.03-.71-.05-1.24-.66-1.2-1.36.02-.34.18-.64.41-.85-.55.11-.98.58-1.02,1.17-.05.71.49,1.32,1.2,1.36.37.02.71-.11.96-.35Z"/>
        <g class="cls-19">
          <path class="cls-13" d="M28.63,50.11c0,.08-.07.14-.15.13-.08,0-.14-.07-.13-.15,0-.08.07-.14.15-.13.08,0,.14.07.13.15Z"/>
        </g>
      </g>
      <g class="cls-23">
        <path class="cls-6" d="M21.06,44.04c-.71-.05-1.24-.66-1.2-1.36.05-.71.66-1.24,1.36-1.2.71.05,1.24.66,1.2,1.36-.05.71-.66,1.24-1.36,1.2Z"/>
        <path class="cls-4" d="M22.02,43.7c-.11.02-.22.04-.34.03-.71-.05-1.24-.66-1.2-1.36.02-.34.18-.64.41-.85-.55.11-.98.58-1.02,1.17-.05.71.49,1.32,1.2,1.36.37.02.71-.11.96-.35Z"/>
        <g class="cls-19">
          <path class="cls-13" d="M21.72,42.07c0,.08-.07.14-.15.13-.08,0-.14-.07-.13-.15s.07-.14.15-.13.14.07.13.15Z"/>
        </g>
      </g>
      <g class="cls-23">
        <path class="cls-6" d="M32.76,41.24c-.51-.03-.9-.48-.87-.99.03-.51.48-.9.99-.87.51.03.9.48.87.99-.03.51-.48.9-.99.87Z"/>
        <path class="cls-4" d="M33.45,40.99c-.08.02-.16.03-.25.02-.51-.03-.9-.48-.87-.99.02-.25.13-.46.29-.62-.4.08-.71.42-.74.85-.03.51.36.96.87.99.27.02.51-.08.69-.25Z"/>
        <g class="cls-19">
          <path class="cls-13" d="M33.23,39.81c0,.06-.05.1-.11.1s-.1-.05-.1-.11c0-.06.05-.1.11-.1.06,0,.1.05.1.11Z"/>
        </g>
      </g>
      <g class="cls-23">
        <path class="cls-6" d="M17.22,45.04c-.51-.03-.9-.48-.87-.99.03-.51.48-.9.99-.87s.9.48.87.99-.48.9-.99.87Z"/>
        <path class="cls-4" d="M17.91,44.79c-.08.02-.16.03-.25.02-.51-.03-.9-.48-.87-.99.02-.25.13-.46.29-.62-.4.08-.71.42-.74.85-.03.51.36.96.87.99.27.02.51-.08.69-.25Z"/>
        <g class="cls-19">
          <path class="cls-13" d="M17.69,43.61c0,.06-.05.1-.11.1-.06,0-.1-.05-.1-.11s.05-.1.11-.1c.06,0,.1.05.1.11Z"/>
        </g>
      </g>
      <g class="cls-28">
        <path class="cls-6" d="M23.3,57.34c.04.71-.5,1.32-1.2,1.36-.71.04-1.32-.5-1.36-1.2s.5-1.32,1.2-1.36,1.32.5,1.36,1.2Z"/>
        <path class="cls-4" d="M22.83,56.44c.04.11.06.22.07.34.04.71-.5,1.32-1.2,1.36-.34.02-.65-.09-.9-.3.18.53.7.9,1.29.87.71-.04,1.25-.65,1.2-1.36-.02-.37-.2-.69-.46-.91Z"/>
        <g class="cls-19">
          <path class="cls-13" d="M22.15,56.63c0,.12-.09.23-.21.23s-.23-.09-.23-.21.09-.23.21-.23.23.09.23.21Z"/>
        </g>
      </g>
      <g>
        <path class="cls-6" d="M33.02,49.12c.04.71-.5,1.32-1.2,1.36-.71.04-1.32-.5-1.36-1.2-.04-.71.5-1.32,1.2-1.36.71-.04,1.32.5,1.36,1.2Z"/>
        <path class="cls-4" d="M32.56,48.21c.04.11.06.22.07.34.04.71-.5,1.32-1.2,1.36-.34.02-.65-.09-.9-.3.18.53.7.9,1.29.87.71-.04,1.25-.65,1.2-1.36-.02-.37-.2-.69-.46-.91Z"/>
        <g class="cls-19">
          <path class="cls-13" d="M31.87,48.41c0,.12-.09.23-.21.23s-.23-.09-.23-.21.09-.23.21-.23c.12,0,.23.09.23.21Z"/>
        </g>
      </g>
      <g>
        <path class="cls-6" d="M29.09,57.02c-.17-.69.25-1.38.94-1.56.69-.17,1.38.25,1.56.94.17.69-.25,1.38-.94,1.56-.69.17-1.38-.25-1.56-.94Z"/>
        <path class="cls-4" d="M29.71,57.83c-.06-.1-.1-.2-.13-.32-.17-.69.25-1.38.94-1.56.33-.08.66-.02.93.13-.28-.49-.85-.76-1.42-.62-.69.17-1.11.87-.94,1.56.09.36.32.64.62.81Z"/>
        <g class="cls-19">
          <path class="cls-13" d="M30.35,57.52c-.03-.12.04-.24.16-.27s.24.04.27.16c.03.12-.04.24-.16.27-.12.03-.24-.04-.27-.16Z"/>
        </g>
      </g>
      <g class="cls-30">
        <path class="cls-6" d="M18.19,54.64c-.8-.04-1.42-.72-1.38-1.52.04-.8.72-1.42,1.52-1.38.8.04,1.42.72,1.38,1.52-.04.8-.72,1.42-1.52,1.38Z"/>
        <path class="cls-4" d="M19.27,54.23c-.12.03-.25.05-.39.04-.8-.04-1.42-.72-1.38-1.52.02-.38.19-.72.44-.97-.62.14-1.1.68-1.13,1.34-.04.8.58,1.48,1.38,1.52.42.02.8-.14,1.08-.41Z"/>
        <g class="cls-19">
          <path class="cls-13" d="M19.14,53.44c-.14,0-.24-.12-.24-.26,0-.14.12-.24.26-.24.14,0,.24.12.24.26,0,.14-.12.24-.26.24Z"/>
        </g>
      </g>
      <g class="cls-29">
        <path class="cls-6" d="M31.57,44.76c-.33.56-1.05.74-1.61.4-.56-.33-.74-1.05-.4-1.61.33-.56,1.05-.74,1.61-.4s.74,1.05.4,1.61Z"/>
        <path class="cls-4" d="M31.69,43.83c-.03.1-.06.2-.12.29-.33.56-1.05.74-1.61.4-.27-.16-.44-.41-.52-.69-.14.5.06,1.04.52,1.32.56.33,1.28.15,1.61-.4.17-.29.21-.62.12-.92Z"/>
        <g class="cls-19">
          <path class="cls-13" d="M31.08,43.62c-.06.1-.18.13-.28.07-.1-.06-.13-.18-.07-.28.06-.1.18-.13.28-.07.1.06.13.18.07.28Z"/>
        </g>
      </g>
      <g>
        <circle class="cls-6" cx="28.93" cy="46.87" r="1.5" transform="translate(-23.1 28.78) rotate(-39.14)"/>
        <path class="cls-4" d="M30.39,46.56c-.04.12-.1.25-.18.36-.47.68-1.41.85-2.09.38-.33-.23-.53-.56-.61-.92-.22.62-.01,1.33.55,1.73.68.47,1.61.3,2.09-.38.25-.35.31-.78.23-1.17Z"/>
        <g class="cls-19">
          <path class="cls-13" d="M29.62,46.24c-.08.12-.24.15-.36.06-.12-.08-.15-.24-.06-.36.08-.12.24-.15.36-.06s.15.24.06.36Z"/>
        </g>
      </g>
      <g>
        <path class="cls-6" d="M23.87,55.42c-.47.68-1.41.85-2.09.38-.68-.47-.85-1.41-.38-2.09s1.41-.85,2.09-.38.85,1.41.38,2.09Z"/>
        <path class="cls-4" d="M24.1,54.26c-.04.12-.1.25-.18.36-.47.68-1.41.85-2.09.38-.33-.23-.53-.56-.61-.92-.22.62-.01,1.33.55,1.73.68.47,1.61.3,2.09-.38.25-.35.31-.78.23-1.17Z"/>
        <g class="cls-19">
          <path class="cls-13" d="M23.34,53.94c-.08.12-.24.15-.36.06s-.15-.24-.06-.36c.08-.12.24-.15.36-.06.12.08.15.24.06.36Z"/>
        </g>
      </g>
      <g>
        <path class="cls-7" d="M29.03,50.6c.65-.52,1.6-.41,2.12.24.52.65.41,1.6-.24,2.12-.65.52-1.6.41-2.12-.24-.52-.65-.41-1.6.24-2.12Z"/>
        <path class="cls-3" d="M28.47,51.66c.08-.11.17-.21.27-.3.65-.52,1.6-.41,2.12.24.25.31.35.69.32,1.06.39-.54.4-1.28-.03-1.83-.52-.65-1.47-.76-2.12-.24-.34.27-.53.66-.56,1.06Z"/>
        <g class="cls-19">
          <path class="cls-13" d="M29.12,52.19c.11-.09.28-.07.37.04.09.11.07.28-.04.37-.11.09-.28.07-.37-.04-.09-.11-.07-.28.04-.37Z"/>
        </g>
      </g>
      <g class="cls-29">
        <path class="cls-2" d="M28.98,57.11c-.22-.51-.81-.75-1.32-.53-.51.22-.75.81-.53,1.32.22.51.81.75,1.32.53.51-.22.75-.81.53-1.32Z"/>
        <path class="cls-11" d="M28.98,57.91c-.01-.09-.03-.17-.07-.26-.22-.51-.81-.75-1.32-.53-.24.1-.42.3-.52.52-.06-.44.17-.88.6-1.06.51-.22,1.1.02,1.32.53.11.27.1.55,0,.8Z"/>
        <g class="cls-19">
          <path class="cls-13" d="M28.43,58.01c-.04-.09-.14-.13-.23-.09-.09.04-.13.14-.09.23.04.09.14.13.23.09s.13-.14.09-.23Z"/>
        </g>
      </g>
      <g>
        <path class="cls-6" d="M20.07,48.58c.71.04,1.25.64,1.21,1.35-.04.71-.64,1.25-1.35,1.21-.71-.04-1.25-.64-1.21-1.35.04-.71.64-1.25,1.35-1.21Z"/>
        <path class="cls-4" d="M19.11,48.94c.11-.02.22-.04.34-.03.71.04,1.25.64,1.21,1.35-.02.34-.17.64-.4.86.55-.12.98-.59,1.01-1.18.04-.71-.51-1.31-1.21-1.35-.37-.02-.71.12-.96.36Z"/>
        <g class="cls-19">
          <path class="cls-13" d="M19.43,50.57c0-.08.07-.14.15-.14.08,0,.14.07.14.15,0,.08-.07.14-.15.14-.08,0-.14-.07-.14-.15Z"/>
        </g>
      </g>
      <g>
        <path class="cls-6" d="M24.69,52.28c-.03-.78.58-1.44,1.36-1.47.78-.03,1.44.58,1.47,1.36.03.78-.58,1.44-1.36,1.47-.78.03-1.44-.58-1.47-1.36Z"/>
        <path class="cls-4" d="M25.18,53.29c-.04-.12-.07-.24-.07-.37-.03-.78.58-1.44,1.36-1.47.37-.01.72.12.98.35-.19-.59-.75-1.01-1.4-.99-.78.03-1.39.69-1.36,1.47.02.41.2.76.49,1.01Z"/>
        <g class="cls-19">
          <path class="cls-13" d="M26.93,52.78c-.09,0-.16-.07-.16-.15,0-.09.07-.16.15-.16s.16.07.16.15c0,.09-.07.16-.15.16Z"/>
        </g>
      </g>
      <g class="cls-26">
        <circle class="cls-6" cx="21.09" cy="52.46" r="1.28"/>
        <path class="cls-4" d="M21.48,51.23c.07.08.14.18.19.28.31.64.04,1.41-.6,1.72-.31.15-.64.16-.94.07.37.42.99.57,1.52.31.64-.31.91-1.08.6-1.72-.16-.33-.45-.56-.77-.66Z"/>
        <g class="cls-19">
          <path class="cls-13" d="M20.2,52.3c.07-.03.16,0,.19.07s0,.16-.07.19c-.07.03-.16,0-.19-.07-.03-.07,0-.16.07-.19Z"/>
        </g>
      </g>
      <g>
        <path class="cls-6" d="M26.55,54.53c.31-.46.94-.58,1.4-.27s.58.94.27,1.4c-.31.46-.94.58-1.4.27-.46-.31-.58-.94-.27-1.4Z"/>
        <path class="cls-4" d="M26.4,55.32c.03-.08.06-.17.12-.24.31-.46.94-.58,1.4-.27.22.15.36.37.42.61.14-.42,0-.9-.39-1.16-.46-.31-1.09-.19-1.4.27-.16.24-.21.53-.15.79Z"/>
        <g class="cls-19">
          <path class="cls-13" d="M26.92,55.53c.05-.08.16-.1.24-.05s.1.16.05.24c-.05.08-.16.1-.24.05-.08-.05-.1-.16-.05-.24Z"/>
        </g>
      </g>
      <g>
        <path class="cls-6" d="M26.48,42.2c.31-.46.94-.58,1.4-.27.46.31.58.94.27,1.4-.31.46-.94.58-1.4.27-.46-.31-.58-.94-.27-1.4Z"/>
        <path class="cls-4" d="M26.33,42.98c.03-.08.06-.17.12-.24.31-.46.94-.58,1.4-.27.22.15.36.37.42.61.14-.42,0-.9-.39-1.16-.46-.31-1.09-.19-1.4.27-.16.24-.21.53-.15.79Z"/>
        <g class="cls-19">
          <path class="cls-13" d="M26.85,43.19c.05-.08.16-.1.24-.05.08.05.1.16.05.24-.05.08-.16.1-.24.05-.08-.05-.1-.16-.05-.24Z"/>
        </g>
      </g>
      <g class="cls-24">
        <path class="cls-6" d="M24.62,49.67c.09.83-.5,1.58-1.33,1.67-.83.09-1.58-.5-1.67-1.33-.09-.83.5-1.58,1.33-1.67.83-.09,1.58.5,1.67,1.33Z"/>
        <path class="cls-4" d="M24.02,48.64c.05.12.09.25.1.39.09.83-.5,1.58-1.33,1.67-.4.05-.77-.07-1.07-.29.25.62.88,1.02,1.57.94.83-.09,1.43-.84,1.33-1.67-.05-.43-.28-.8-.6-1.04Z"/>
        <g class="cls-19">
          <path class="cls-13" d="M23.22,48.91c.02.14-.09.27-.23.29-.14.02-.27-.09-.29-.23-.02-.14.09-.27.23-.29.14-.02.27.09.29.23Z"/>
        </g>
      </g>
      <g class="cls-31">
        <path class="cls-6" d="M32.73,53.74c-.71-.05-1.24-.66-1.2-1.36.05-.71.66-1.24,1.36-1.2.71.05,1.24.66,1.2,1.36-.05.71-.66,1.24-1.36,1.2Z"/>
        <path class="cls-4" d="M33.69,53.39c-.11.02-.22.04-.34.03-.71-.05-1.24-.66-1.2-1.36.02-.34.18-.64.41-.85-.55.11-.98.58-1.02,1.17-.05.71.49,1.32,1.2,1.36.37.02.71-.11.96-.35Z"/>
        <g class="cls-19">
          <path class="cls-13" d="M33.39,51.76c0,.08-.07.14-.15.13s-.14-.07-.13-.15c0-.08.07-.14.15-.13.08,0,.14.07.13.15Z"/>
        </g>
      </g>
      <g class="cls-31">
        <path class="cls-6" d="M18.18,40.9c-.71-.05-1.24-.66-1.2-1.36.05-.71.66-1.24,1.36-1.2.71.05,1.24.66,1.2,1.36-.05.71-.66,1.24-1.36,1.2Z"/>
        <path class="cls-4" d="M19.14,40.56c-.11.02-.22.04-.34.03-.71-.05-1.24-.66-1.2-1.36.02-.34.18-.64.41-.85-.55.11-.98.58-1.02,1.17-.05.71.49,1.32,1.2,1.36.37.02.71-.11.96-.35Z"/>
        <g class="cls-19">
          <path class="cls-13" d="M18.84,38.92c0,.08-.07.14-.15.13s-.14-.07-.13-.15c0-.08.07-.14.15-.13.08,0,.14.07.13.15Z"/>
        </g>
      </g>
    </g>
    <g>
      <g>
        <g>
          <g class="cls-20">
            <path class="cls-13" d="M26.82,13.98l-.28,2.92c5.46.4,9.15,2.9,9.15,5.16,0,2.47-4.39,5.22-10.7,5.22s-10.7-2.75-10.7-5.22c0-2.31,3.86-4.88,9.55-5.18l.28-2.94c-7.22.26-12.76,3.73-12.76,8.13s5.99,8.14,13.63,8.14,13.63-3.58,13.63-8.14c0-4.2-5.05-7.56-11.8-8.07Z"/>
          </g>
          <path class="cls-13" d="M25,28.71c-7.22,0-12.89-3.6-13.5-7.8-.04.24-.13.89-.13,1.14,0,4.57,5.99,8.14,13.63,8.14s13.63-3.58,13.63-8.14c0-.25-.02-.5-.06-.74-.61,4.21-6.35,7.4-13.57,7.4Z"/>
        </g>
        <g>
          <g class="cls-20">
            <path class="cls-13" d="M23.19,10.75c-.36-.16-.63-.34-.77-.53-1.19.6-7.75,4.42-7.5,15.83l2.44,1.25s-1.45-9.18,5.83-16.54Z"/>
          </g>
          <g class="cls-21">
            <path class="cls-13" d="M25.3,7.84c-6.78,0-12.27,5.49-12.27,12.27s5.49,8.64,12.27,8.64,12.27-1.86,12.27-8.64-5.49-12.27-12.27-12.27ZM25.57,11.26c-1.85-.11-3.32-.74-3.28-1.41.04-.67,1.57-1.13,3.42-1.03,1.85.1,3.32.74,3.28,1.41-.04.67-1.57,1.13-3.42,1.03Z"/>
          </g>
          <path class="cls-13" d="M26.09,11.62c-.18,0-.36,0-.53-.02-1.84-.1-3.67-.75-3.61-1.78s1.95-1.46,3.79-1.36c1.84.1,3.67.75,3.61,1.78-.05.93-1.6,1.37-3.26,1.37ZM25.19,9.16c-1.57,0-2.53.44-2.55.71-.02.31,1.09.93,2.95,1.04,1.87.11,3.03-.39,3.05-.7.02-.31-1.09-.93-2.95-1.04-.17,0-.34-.01-.5-.01Z"/>
        </g>
      </g>
      <g>
        <path class="cls-1" d="M27.09,11.24l.81-8.39c.07-.74-.59-.86-1.33-.93-.74-.07-1.27-.06-1.34.68l-.82,8.56c.9.04,1.79.07,2.69.08Z"/>
        <path class="cls-17" d="M24.47,10.42l-.07.73c.9.04,1.79.07,2.69.08l.15-1.52c-.79.58-1.77.85-2.76.7Z"/>
        <path class="cls-13" d="M26.09,11.62c-.18,0-.36,0-.53-.02-1.84-.1-3.67-.75-3.61-1.78l.7.04c-.02.31,1.09.93,2.95,1.04,1.86.11,3.03-.39,3.05-.7l.7.04c-.05.93-1.6,1.37-3.26,1.37Z"/>
        <g>
          <path class="cls-14" d="M25.28,2.31c-.04.34.51.68,1.23.76s1.33-.13,1.37-.47c.04-.34-.51-.68-1.23-.76s-1.33.13-1.37.47Z"/>
          <path class="cls-5" d="M26.81,3.26c-.11,0-.21,0-.32-.02-.37-.04-.72-.15-.97-.31-.29-.18-.44-.41-.41-.64h0c.03-.23.22-.43.55-.54.28-.1.64-.13,1.01-.08.37.04.72.15.97.31.29.18.44.41.41.64-.03.23-.22.43-.55.54-.2.07-.44.1-.69.1ZM26.34,2c-.22,0-.42.03-.58.08-.18.06-.3.16-.31.24h0c-.01.09.09.21.25.31.21.13.51.22.83.26.32.04.63.01.86-.07.18-.06.3-.16.31-.24.01-.09-.09-.21-.25-.31-.21-.13-.51-.22-.83-.26-.1-.01-.19-.02-.28-.02Z"/>
        </g>
      </g>
    </g>
  </g>
</svg>