<?xml version="1.0" encoding="UTF-8"?>
<svg id="_圖層_1" data-name="圖層 1" xmlns="http://www.w3.org/2000/svg" viewBox="0 0 50 68">
  <defs>
    <style>
      .cls-1 {
        fill: #bbbcbe;
      }

      .cls-1, .cls-2, .cls-3, .cls-4, .cls-5, .cls-6, .cls-7, .cls-8, .cls-9, .cls-10, .cls-11, .cls-12, .cls-13, .cls-14, .cls-15, .cls-16, .cls-17, .cls-18, .cls-19, .cls-20, .cls-21, .cls-22, .cls-23, .cls-24, .cls-25, .cls-26, .cls-27, .cls-28 {
        stroke-width: 0px;
      }

      .cls-2 {
        fill: #f0ecea;
      }

      .cls-3 {
        fill: #cfcfd1;
      }

      .cls-4 {
        fill: #dfdfe0;
      }

      .cls-5 {
        fill: #e6c392;
      }

      .cls-6 {
        fill: #ccccce;
      }

      .cls-7 {
        fill: #e8cbac;
      }

      .cls-8 {
        fill: #a57341;
      }

      .cls-9 {
        fill: #500f0f;
      }

      .cls-10 {
        fill: #edd3b9;
      }

      .cls-11 {
        fill: #ebeaed;
      }

      .cls-12 {
        fill: #c79760;
      }

      .cls-13 {
        fill: #dddbdd;
      }

      .cls-14 {
        fill: #c3cacc;
      }

      .cls-15 {
        fill: #dab788;
      }

      .cls-16 {
        fill: #b18459;
      }

      .cls-17 {
        fill: #e6e4e7;
      }

      .cls-18 {
        fill: #b17f49;
      }

      .cls-29 {
        opacity: .1;
      }

      .cls-19 {
        fill: #c99d66;
      }

      .cls-20 {
        fill: #e0bc94;
      }

      .cls-21 {
        fill: #aaaaac;
      }

      .cls-22 {
        fill: #dfb58c;
      }

      .cls-23 {
        fill: #d7d7d9;
      }

      .cls-24 {
        fill: #e9e7e8;
      }

      .cls-25 {
        fill: #d5aa73;
      }

      .cls-26 {
        fill: #fff;
      }

      .cls-27 {
        fill: #c2c2c4;
      }

      .cls-28 {
        fill: #d1a476;
      }
    </style>
  </defs>
  <g class="cls-29">
    <path class="cls-9" d="M32.86,60.17c0,2.78-4.83,5.03-10.78,5.03s-10.78-2.25-10.78-5.03,4.83-5.02,10.78-5.02,10.78,2.25,10.78,5.02Z"/>
  </g>
  <g>
    <path class="cls-3" d="M12.26,57.98v.88c0,2.27,4.4,4.54,9.82,4.54s9.82-2.17,9.82-4.54v-.88H12.26Z"/>
    <path class="cls-17" d="M31.89,57.98c0,2.81-4.4,5.09-9.82,5.09s-9.82-2.28-9.82-5.09,4.4-5.09,9.82-5.09,9.82,2.28,9.82,5.09Z"/>
    <path class="cls-13" d="M27.36,59.08c0,2.06-2.76,3.34-7.07,2.93-3.95-.38-7.74-2.13-7.74-4.18s3.21-3.72,7.18-3.72,7.63,2.92,7.63,4.98Z"/>
    <path class="cls-26" d="M31.29,56.22c.21.41.32.85.32,1.3,0,2.81-4.4,5.09-9.82,5.09-4.23,0-7.83-1.39-9.21-3.33,1.11,2.18,4.94,3.79,9.49,3.79,5.42,0,9.82-2.28,9.82-5.09,0-.62-.21-1.21-.6-1.76Z"/>
    <path class="cls-1" d="M31.93,27.38s3.6-2.52,5.49-1.69c1.63.72,1.07,10.95-.92,13.13-1.15,1.26-2.53,1.81-3.59.71-.92-.96-2.24-1.1-2.24-1.1l-1.03,3.14s1.76,1.44,3.3,1.52c1.97.1,5.57-1.17,6.84-5.35,1.03-3.39,1.31-14.07-.63-15.2-1.27-.73-2.81-1.69-3.64-1.19-.82.5-4.21,3.05-4.21,3.05l.62,2.97Z"/>
    <path class="cls-6" d="M33.3,28.88s3.74-3.82,5.63-2.99c1.63.72.59,11.69-1.4,13.87-1.15,1.26-1.91,1.68-3.18,1.63-1.33-.05-2.3-1.45-2.3-1.45l-.75,2.3s1.39,1.25,2.93,1.32c1.97.1,5.2-1.45,6.76-5.54,1.31-3.43,1.88-14.03-.06-15.15-1.27-.73-3.21-.51-4.03,0-.82.5-4.21,3.05-4.21,3.05l.62,2.97Z"/>
    <path class="cls-11" d="M31.48,23.59s4.38-3.29,5.98-3.14c1.6.16,3.46,2.41,3.46,2.41,0,0-1.77-.52-3.44.27-1.31.62-5.59,4.32-5.59,4.32l-.41-3.87Z"/>
    <path class="cls-4" d="M26.16,52.5c.03,1.81-.29,5.02-1.52,5.87-.1.07-.21.13-.31.19h0c-.25.14-.52.25-.8.33-.96.27-2.03.24-2.91.02h-.01c-.08-.02-.17-.05-.25-.07-.04-.01-.07-.02-.11-.03-.04-.01-.07-.02-.11-.04-.07-.03-.14-.05-.2-.08-.03-.01-.07-.03-.1-.04l-.07-.03s-.08-.04-.12-.06c-.1-.05-.19-.11-.28-.17-.06-.05-.12-.1-.18-.15h0c-1.22-1.17-1.44-3.97-1.41-5.64h0c0-.09,0-.18,0-.26.09-2.61-.49-4.98-.49-4.98l.21-.17,9.21.13s-.6,2.18-.55,5.19Z"/>
    <path class="cls-23" d="M21.01,58.02c-1.45-1.79-1.8-4.16-1.66-6.39.09-1.49.37-2.97.79-4.4l-2.63-.04-.21.17s.58,2.37.49,4.98c0,.08,0,.16,0,.25h0c-.03,1.68.2,4.48,1.41,5.64h0c.06.06.12.11.18.16.09.07.18.12.28.17.04.02.08.04.12.06l.07.03s.06.03.1.04c.07.03.13.05.2.08.04.01.07.02.11.04.04.01.07.02.11.03.08.02.16.05.25.07h.01c.48.12,1.01.18,1.55.17-.43-.3-.82-.65-1.16-1.06Z"/>
    <path class="cls-21" d="M29.01,47.18c0,2.95-3.17,5.33-7.08,5.33s-7.08-2.39-7.08-5.33,3.17-5.33,7.08-5.33,7.08,2.39,7.08,5.33Z"/>
    <path class="cls-4" d="M34.22,32.2c.08,5.34-.85,14.82-4.49,17.32-.29.2-.61.39-.92.56h0c-.74.41-1.54.72-2.37.96-2.82.81-5.98.71-8.57.07h-.04c-.25-.07-.5-.14-.73-.21-.11-.03-.22-.07-.32-.1-.11-.04-.21-.07-.32-.11-.2-.07-.41-.15-.6-.23-.09-.04-.19-.08-.28-.12-.07-.03-.13-.06-.2-.09-.12-.05-.23-.11-.34-.17-.28-.15-.56-.32-.81-.51-.18-.14-.36-.29-.53-.45l-.03-.02c-3.59-3.44-4.26-11.69-4.17-16.63v-.02c0-.26.01-.5.02-.74.27-7.71-1.44-14.7-1.44-14.7l.62-.49,27.17.37s-1.76,6.44-1.62,15.31Z"/>
    <path class="cls-23" d="M20.29,51.52c-1.13-.12-2.21-.33-3.19-.62-.11-.03-.22-.07-.32-.1-.11-.04-.21-.07-.32-.11-.2-.07-.41-.15-.6-.23-.09-.04-.19-.08-.28-.12-.07-.03-.13-.06-.2-.09-.12-.05-.23-.11-.34-.17-.28-.15-.56-.32-.81-.51-.18-.14-.36-.29-.53-.45l-.03-.02c-3.3-3.19-4.05-10.46-4.14-15.44,0-.26,0-.51,0-.76,0-.12,0-.26-.02-.43v-.02c0-.26.01-.5.02-.74.27-7.71-1.44-14.7-1.44-14.7l.62-.49,8.6,6.01c-.28,2.41-.4,10.84-.29,13.25.02.36.03.72.06,1.09,0,.18.02.37.04.56.27,3.66.88,7.35,1.97,10.85.34,1.1.75,2.19,1.23,3.24Z"/>
    <path class="cls-24" d="M32.34,35.16c.22,4.92-.99,11.94-3.56,14.93h0c-.74.41-1.54.72-2.37.95.91-1.95,1.6-4,2.05-6.13.58-2.75.84-5.54.88-8.35,0-.19,0-.38,0-.57.01-1.22-.07-2.43-.08-3.65-.03-4.68.31-9.99.25-10.8l3.21-1.35s-.73,7.04-.37,14.95Z"/>
    <path class="cls-19" d="M33.66,26.53c-7.02,3.99-16.44,3.47-23.5-.04.12,1.68.18,3.51.12,5.38,0,.22-.01.45-.02.69h0c-.08,4.64.55,12.39,3.91,15.62l.03.02c.16.15.33.29.5.42.24.18.5.34.76.48.1.06.21.11.32.16.06.03.13.06.19.08.09.04.18.08.27.11.18.08.37.15.57.22.1.03.2.07.3.1.1.03.2.07.3.1.22.07.45.13.69.19h.04c2.43.61,5.4.71,8.05-.05.78-.22,1.52-.52,2.22-.9h0c.3-.16.59-.34.87-.53,3.41-2.35,4.29-11.25,4.21-16.26-.03-2.1.05-4.05.19-5.8Z"/>
    <path class="cls-15" d="M33.66,26.53c.41-5.18,1.34-8.57,1.34-8.57l-25.49-.35-.58.46s.88,3.6,1.23,8.41c7.07,3.51,16.48,4.03,23.5.04Z"/>
    <path class="cls-18" d="M21.94,37.24c-5.28,0-9.81-1.78-11.69-4.32-.04,4.66.64,12.1,3.92,15.25l.03.02c.16.15.33.3.5.42.24.18.5.34.76.48.1.06.21.11.32.16.06.03.13.06.19.08.09.04.18.08.27.11.18.08.37.15.57.22.1.03.2.07.3.1.1.03.2.07.3.1.22.07.45.13.69.19h.04c2.44.61,5.4.71,8.05-.05.78-.22,1.53-.52,2.22-.9h0c.3-.16.59-.34.87-.53,3.24-2.23,4.2-10.36,4.22-15.47-1.97,2.43-6.39,4.12-11.54,4.12Z"/>
    <path class="cls-18" d="M26.17,50c-2.06.59-4.32.66-6.37.38h0c2.05.28,4.3.22,6.37-.37.27-.08.54-.17.8-.26h0c-.27.09-.53.18-.81.26Z"/>
    <path class="cls-18" d="M30.29,47.59c2.42-3.07,3.18-9.95,3.2-14.48h0c-.02,4.52-.77,11.38-3.18,14.46v.02Z"/>
    <path class="cls-16" d="M17.04,36.7c-.02-.3-.04-.6-.05-.91-.06-1.26-.05-4.17,0-7-2.41-.47-4.73-1.25-6.85-2.31.12,1.68.18,3.51.12,5.38,0,.22-.01.45-.02.69h0c0,.13,0,.25,0,.38,1.27,1.7,3.72,3.05,6.79,3.76Z"/>
    <path class="cls-28" d="M8.92,18.07s.88,3.6,1.23,8.41c2.11,1.05,4.44,1.83,6.85,2.31.05-2.58.15-5.1.29-6.25l-7.03-4.92h-.75s-.58.45-.58.45Z"/>
    <path class="cls-23" d="M18.12,50.07h-.04c-.23-.07-.47-.13-.69-.2-.1-.03-.2-.06-.3-.1-.1-.03-.2-.07-.3-.1-.19-.07-.38-.14-.57-.22-.09-.04-.18-.07-.27-.11-.06-.03-.13-.06-.19-.08-.11-.05-.22-.1-.32-.16-.27-.14-.52-.3-.76-.48-.17-.13-.34-.27-.5-.42l-.03-.02c-3.28-3.14-3.96-10.58-3.92-15.24h0c-.04,4.66.64,12.1,3.92,15.24l.03.02c.16.15.33.3.5.42.24.18.5.34.76.48.1.06.21.11.32.16.06.03.13.06.19.08.09.04.18.08.27.11.18.08.37.15.57.22.1.03.2.07.3.1.1.03.2.07.3.1.22.07.45.13.69.19h.04c.54.14,1.1.25,1.68.32h0c-.58-.08-1.14-.19-1.68-.32Z"/>
    <path class="cls-8" d="M17.09,37.44c-.02-.19-.03-.38-.04-.56,0-.06,0-.12-.01-.18-3.07-.71-5.52-2.07-6.79-3.76-.04,4.66.64,12.1,3.92,15.24l.03.02c.16.15.33.29.5.42.24.18.5.34.76.48.1.06.21.11.32.16.06.03.13.06.19.08.09.04.18.08.27.11.18.08.37.15.57.22.1.03.2.07.3.1.1.03.2.07.3.1.22.07.45.13.69.19h.04c.54.14,1.1.24,1.68.32-.28-.69-.52-1.39-.75-2.1-1.08-3.5-1.7-7.18-1.97-10.85Z"/>
    <path class="cls-25" d="M29.26,32.36c0,1.18.09,2.37.08,3.56,1.15-.46,2.16-1.02,2.97-1.67-.09-2.53-.07-4.93-.01-7.02-.96.45-1.96.82-2.99,1.13-.03,1.31-.05,2.68-.05,4Z"/>
    <path class="cls-5" d="M29.51,21.56c.05.58-.12,3.48-.2,6.8,1.03-.3,2.03-.67,2.99-1.13.12-4.14.42-7.02.42-7.02l-3.21,1.35Z"/>
    <path class="cls-24" d="M29.26,48.58c-.28.19-.57.37-.87.52h0c-.45.25-.93.46-1.42.64h0c.49-.18.97-.38,1.42-.63h0c.3-.16.59-.34.87-.53.37-.26.71-.59,1.02-.99v-.02c-.31.4-.65.75-1.03,1.01Z"/>
    <path class="cls-12" d="M29.34,36.01c0,.19,0,.38,0,.57-.04,2.81-.3,5.6-.88,8.35-.36,1.65-.85,3.26-1.49,4.82.49-.18.96-.38,1.42-.63h0c.3-.16.59-.34.87-.53.38-.26.72-.6,1.04-1.01,1.53-3.49,2.23-8.59,2.05-12.42-.01-.3-.03-.61-.04-.91-.81.64-1.82,1.21-2.97,1.67v.09Z"/>
    <path class="cls-2" d="M36.05,15.58c0,4.29-6.32,7.76-14.12,7.76s-14.12-3.47-14.12-7.76,6.32-7.76,14.12-7.76,14.12,3.47,14.12,7.76Z"/>
    <path class="cls-14" d="M34.99,15.42c0,.37-.05.74-.15,1.09-.08.3-.2.59-.36.88-1.57,2.97-6.59,5.13-12.54,5.13s-10.98-2.16-12.55-5.13c-.15-.29-.27-.58-.36-.89-.1-.35-.15-.72-.15-1.09,0-3.92,5.85-7.1,13.06-7.1s13.06,3.18,13.06,7.1Z"/>
    <path class="cls-22" d="M34.84,16.51c-.08.3-.2.59-.36.88-.15.28-.33.56-.55.83-2,2.53-6.62,4.3-12,4.3s-9.61-1.62-11.73-3.98c-.33-.37-.6-.75-.81-1.15-.15-.29-.27-.58-.36-.89.97-3.4,6.38-6.01,12.91-6.01s11.93,2.61,12.9,6.01Z"/>
    <path class="cls-20" d="M31.95,14.22c-1.71-1.39-3.88-2.1-6-2.55-2.31-.49-4.71-.58-7.05-.32-2.07.23-3.99.9-5.69,2.1-1.51,1.07-2.74,2.49-3.77,4.02.21.37.46.73.77,1.07,2.12,2.36,6.58,3.98,11.73,3.98s10-1.77,12-4.3c.21-.27.4-.55.55-.83.03-.05.04-.1.07-.15-.69-1.14-1.56-2.18-2.6-3.03Z"/>
    <path class="cls-7" d="M33.94,18.23c-2,2.53-6.62,4.3-12,4.3s-9.61-1.62-11.73-3.98l-.02-.09c.9-3.5,5.89-6.18,11.91-6.18s10.79,2.57,11.84,5.95Z"/>
    <path class="cls-10" d="M19.34,13.68c-1.31.05-2.61.29-3.84.73-1.09.39-2.3.88-3.06,1.79-.74.88-.9,2.08-.22,3.05.32.44.74.78,1.21,1.06.49.28,1.13.59,1.7.63.13,0,.17-.18.07-.24-.46-.27-1-.38-1.46-.66-.44-.26-.81-.61-1.06-1.05-.57-.98-.28-2.11.5-2.9.76-.76,1.83-1.25,2.82-1.62,1.08-.41,2.21-.66,3.35-.77v-.02Z"/>
    <path class="cls-10" d="M29.7,15.19c-2-1.46-4.81-1.85-7.2-1.35v.03c1.09-.08,2.18.03,3.23.32,1.03.28,1.98.84,2.86,1.44.79.54,1.53,1.26,1.85,2.19.13.37.22.81.2,1.2-.03.49-.36.87-.69,1.21-.09.09,0,.25.13.22.91-.22,1.53-1.45,1.54-2.33,0-1.24-.97-2.25-1.9-2.92Z"/>
    <path class="cls-10" d="M23.56,15.02c-1.36-.23-2.73-.31-4.1-.21-1.11.08-2.32.18-3.33.69-.94.47-1.57,1.38-1.51,2.45.06,1.1.73,2.01,1.66,2.56,1.22.72,2.72.85,4.08.53.13-.03.15-.26,0-.28-1.35-.18-2.8-.13-3.95-.97-.98-.71-1.56-2.2-.69-3.23.76-.89,2.16-1.1,3.24-1.28,1.51-.25,3.07-.31,4.6-.21v-.05Z"/>
    <path class="cls-10" d="M27.78,17.44c-.61-.71-1.62-.91-2.5-1.03-1.16-.16-2.32-.12-3.49-.08-.09,0-.09.13,0,.14,1.14.08,2.29.17,3.4.45.5.13,1,.3,1.47.52.41.19.82.48.89.96.18,1.05-.9,1.74-1.73,2.07-.5.2-1.04.33-1.57.39-.56.06-1.13.05-1.69.11-.13.01-.15.18-.03.23.9.38,1.97.24,2.89,0,.85-.23,1.76-.62,2.32-1.34.54-.7.64-1.71.04-2.4Z"/>
    <path class="cls-10" d="M24.47,18.09c-.15-.43-.53-.68-.97-.75-.23-.04-.46-.03-.69-.03-.27,0-.53-.07-.79-.07-.09,0-.15.12-.08.18.27.25.74.21,1.08.23.24.02.51.04.73.17.14.09.33.27.27.46-.09.26-.46.32-.69.33-.42.02-.85,0-1.26-.06-.45-.06-.91-.16-1.33-.32-.39-.15-.82-.33-1.06-.68-.51-.77.38-1.25.95-1.54.04-.02.02-.09-.02-.09-.62.07-1.38.32-1.47,1.03-.11.85.69,1.36,1.36,1.64.84.35,1.78.67,2.71.66.67,0,1.56-.35,1.27-1.18Z"/>
    <polygon class="cls-22" points="17.83 14.25 17.82 14.23 17.79 14.2 17.77 14.18 17.73 14.17 17.7 14.18 17.67 14.19 17.64 14.22 17.62 14.25 17.6 14.32 17.6 14.39 17.63 14.45 17.66 14.47 17.73 14.49 17.78 14.48 17.82 14.45 17.86 14.39 17.86 14.32 17.83 14.25"/>
    <path class="cls-22" d="M16.39,16.17s-.08-.08-.14-.08-.11.03-.14.08c-.03.05-.03.11,0,.16l.03.05.04.04.06.02.06-.02.04-.04.03-.05s.03-.11,0-.16Z"/>
    <path class="cls-22" d="M17.63,17.54l-.04-.06-.05-.05-.06-.04s-.07-.03-.11-.02h-.08s-.07.04-.07.04l-.06.04-.04.06-.03.07s-.01.08,0,.11l.02.07s.03.07.06.09l.03.04.08.05s.06.02.09.02h.06s.07-.04.1-.07l.03-.04.04-.06.03-.07s.01-.08,0-.11l-.02-.07Z"/>
    <path class="cls-22" d="M19.27,14.75c-.21,0-.21.32,0,.32s.21-.32,0-.32Z"/>
    <path class="cls-22" d="M18.57,17.27s-.04.06,0,.06.04-.06,0-.06Z"/>
    <path class="cls-22" d="M19.55,18.99c-.17,0-.17.26,0,.26s.17-.26,0-.26Z"/>
    <path class="cls-22" d="M17.02,18.44c-.16,0-.16.25,0,.25s.16-.25,0-.25Z"/>
    <path class="cls-22" d="M13.66,17.68c-.23,0-.23.36,0,.36s.23-.36,0-.36Z"/>
    <path class="cls-22" d="M13.2,18.56c-.03-.22-.31-.22-.34,0v.04c-.04.23.38.23.35,0v-.04Z"/>
    <path class="cls-22" d="M13.73,16.32c-.18,0-.18.28,0,.28s.18-.28,0-.28Z"/>
    <path class="cls-22" d="M20.25,13.5c-.2,0-.2.31,0,.31s.2-.31,0-.31Z"/>
    <path class="cls-22" d="M21.44,13.68c-.32,0-.32.5,0,.5s.32-.5,0-.5Z"/>
    <path class="cls-22" d="M22.29,14.16c-.25,0-.25.38,0,.38s.25-.38,0-.38Z"/>
    <path class="cls-22" d="M25.72,15.23s-.05.07,0,.07.05-.07,0-.07Z"/>
    <path class="cls-22" d="M21.93,15.61c-.18,0-.18.28,0,.28s.18-.28,0-.28Z"/>
    <path class="cls-22" d="M20.81,16.63c-.14,0-.14.22,0,.22s.14-.22,0-.22Z"/>
    <path class="cls-22" d="M21.23,17.82s-.05.07,0,.07.05-.07,0-.07Z"/>
    <path class="cls-22" d="M18.08,16.35c-.14,0-.14.22,0,.22s.14-.22,0-.22Z"/>
    <path class="cls-22" d="M21.09,19.41c-.17,0-.17.27,0,.27s.17-.27,0-.27Z"/>
    <path class="cls-22" d="M21.12,21.53l-.05-.08-.04-.03s-.06-.02-.09-.02l-.07.02-.06.04-.04.06-.02.07v.05s.05.08.05.08l.04.03s.06.02.09.02l.07-.02.06-.04.04-.06.02-.07v-.05Z"/>
    <path class="cls-22" d="M21.93,21.8c-.17,0-.17.26,0,.26s.17-.26,0-.26Z"/>
    <path class="cls-22" d="M23.83,19.34c-.26,0-.26.41,0,.41s.26-.41,0-.41Z"/>
    <path class="cls-22" d="M25.79,18.81c-.22,0-.22.34,0,.34s.22-.34,0-.34Z"/>
    <path class="cls-22" d="M26.8,17.76c-.04-.06-.1-.1-.17-.1s-.13.04-.17.1c-.02.03-.03.06-.03.1,0,.04,0,.07.03.1l.03.05.06.06.08.02.08-.02.06-.06.03-.05s.03-.06.03-.1c0-.04,0-.07-.03-.1Z"/>
    <path class="cls-22" d="M26.14,19.14c-.06,0-.06.1,0,.1s.06-.1,0-.1Z"/>
    <path class="cls-22" d="M27.41,20.95l-.08-.03-.06.02h-.01s-.02.02-.02.02l-.04.02-.05.05-.02.07v.04s.04.06.04.06l.04.03h.05s.09-.01.12-.06l.02-.04v-.02s.02-.01.02-.01l.02-.06-.03-.08Z"/>
    <path class="cls-22" d="M29.65,19.86c-.13,0-.13.21,0,.21s.13-.21,0-.21Z"/>
    <path class="cls-22" d="M30,18.61s-.03.05,0,.05.03-.05,0-.05Z"/>
    <path class="cls-22" d="M28.81,17.44c-.18,0-.18.28,0,.28s.18-.28,0-.28Z"/>
    <path class="cls-22" d="M27.2,15.68c-.18,0-.18.28,0,.28s.18-.28,0-.28Z"/>
    <path class="cls-22" d="M24.74,14.96c-.21,0-.21.32,0,.32s.21-.32,0-.32Z"/>
    <path class="cls-22" d="M30.98,15.51c-.14,0-.14.22,0,.22s.14-.22,0-.22Z"/>
    <path class="cls-22" d="M32.04,16.76c-.24,0-.24.37,0,.37s.24-.37,0-.37Z"/>
    <path class="cls-22" d="M32.11,17.96c-.23,0-.23.36,0,.36s.23-.36,0-.36Z"/>
    <path class="cls-22" d="M32.04,18.82c-.12,0-.12.18,0,.18s.12-.18,0-.18Z"/>
    <path class="cls-22" d="M33.02,17.76c-.13,0-.13.21,0,.21s.13-.21,0-.21Z"/>
    <path class="cls-22" d="M20.74,12.71c-.22,0-.22.34,0,.34s.22-.34,0-.34Z"/>
    <path class="cls-22" d="M18.08,13.09c-.09,0-.09.14,0,.14s.09-.14,0-.14Z"/>
    <path class="cls-22" d="M12.96,17.31c-.08,0-.08.12,0,.12s.08-.12,0-.12Z"/>
    <path class="cls-22" d="M12.82,15.06c-.17,0-.17.27,0,.27s.17-.27,0-.27Z"/>
    <path class="cls-22" d="M17.45,16.07c-.23,0-.23.36,0,.36s.23-.36,0-.36Z"/>
    <path class="cls-22" d="M18.43,17.23c-.18,0-.18.28,0,.28s.18-.28,0-.28Z"/>
    <path class="cls-22" d="M17.3,18.7c-.18,0-.18.28,0,.28s.18-.28,0-.28Z"/>
    <path class="cls-22" d="M15.9,17.93c-.28,0-.28.43,0,.43s.28-.43,0-.43Z"/>
    <path class="cls-22" d="M15.9,20.57c-.21,0-.21.33,0,.33s.21-.33,0-.33Z"/>
    <path class="cls-22" d="M17.23,21.53c-.25,0-.25.38,0,.38s.25-.38,0-.38Z"/>
    <path class="cls-22" d="M17.94,19.36c-.24,0-.24.37,0,.37s.24-.37,0-.37Z"/>
    <path class="cls-22" d="M21.65,17.57c-.28,0-.29.44,0,.44s.29-.44,0-.44Z"/>
    <path class="cls-22" d="M22.85,17.98c-.21,0-.21.32,0,.32s.21-.32,0-.32Z"/>
    <path class="cls-22" d="M24.25,15.06c-.26,0-.26.41,0,.41s.26-.41,0-.41Z"/>
    <path class="cls-22" d="M23.23,12.78v-.02s-.04-.03-.04-.03l-.04-.02-.07-.02h-.07l-.05.03-.02.02-.02.06v.05s.04.04.04.04c.03.03.08.04.12.03l.07-.02h.02s.03-.04.03-.04v-.02s.02-.04.02-.04v-.03Z"/>
    <path class="cls-22" d="M26.98,13.44c-.18,0-.18.28,0,.28s.18-.28,0-.28Z"/>
    <path class="cls-22" d="M27.83,15.39c-.29,0-.29.45,0,.45s.29-.45,0-.45Z"/>
    <path class="cls-22" d="M28.99,16.97s-.03-.06-.05-.08l-.04-.03s-.06-.03-.1-.03l-.07.02-.06.04-.04.06-.02.07v.05s.03.06.06.08l.04.03s.06.03.1.03l.07-.02.06-.04.04-.06.02-.07v-.05Z"/>
    <path class="cls-22" d="M29.23,14.02c-.25,0-.25.38,0,.38s.25-.38,0-.38Z"/>
    <path class="cls-22" d="M25.37,12.89c-.25,0-.25.39,0,.39s.25-.39,0-.39Z"/>
    <path class="cls-22" d="M24.6,14.15c-.17,0-.17.27,0,.27s.17-.27,0-.27Z"/>
    <path class="cls-22" d="M25.44,17.73c-.25,0-.25.39,0,.39s.25-.39,0-.39Z"/>
    <path class="cls-22" d="M24.88,19.95c-.29,0-.29.46,0,.46s.29-.46,0-.46Z"/>
    <path class="cls-22" d="M24.88,20.99c-.13,0-.13.2,0,.2s.13-.2,0-.2Z"/>
    <path class="cls-22" d="M26.28,21.33c-.23,0-.23.36,0,.36s.23-.36,0-.36Z"/>
    <path class="cls-22" d="M28.67,19.07c-.34,0-.34.53,0,.53s.34-.53,0-.53Z"/>
    <path class="cls-22" d="M29.72,18.55c-.03-.05-.08-.08-.14-.08s-.11.03-.14.08l-.02.08.02.08s.05.07.07.1l.03.03h.04s.04,0,.04,0l.03-.03s.05-.07.07-.1l.02-.08-.02-.08Z"/>
    <path class="cls-22" d="M29.72,19.47c-.19,0-.19.3,0,.3s.19-.3,0-.3Z"/>
    <polygon class="cls-22" points="30.36 17.44 30.35 17.38 30.33 17.33 30.27 17.27 30.22 17.24 30.17 17.23 30.11 17.23 30.06 17.24 29.99 17.29 29.96 17.33 29.93 17.38 29.93 17.44 29.93 17.5 29.96 17.55 30.01 17.61 30.06 17.64 30.14 17.65 30.19 17.66 30.26 17.64 30.31 17.61 30.34 17.58 30.36 17.49 30.36 17.44"/>
    <path class="cls-22" d="M31.89,16.04c-.27,0-.27.42,0,.42s.27-.42,0-.42Z"/>
    <path class="cls-22" d="M15.76,15.05c-.19,0-.19.3,0,.3s.19-.3,0-.3Z"/>
    <path class="cls-22" d="M15.34,13.84c-.3,0-.3.47,0,.47s.3-.47,0-.47Z"/>
    <path class="cls-26" d="M33.36,21.72c0-.1-.13-.11-.17-.02-.3.76-.31,1.71-.4,2.52-.11.9-.19,1.8-.25,2.7-.12,1.84-.24,3.68-.38,5.52-.27,3.41-.61,6.83-1.36,10.18-.41,1.84-1.07,3.54-1.74,5.3l.04.02c.92-1.31,1.54-2.89,2.06-4.4.54-1.57.95-3.22,1.18-4.87.51-3.55.45-7.11.62-10.69.05-1.03.12-2.06.18-3.09.03-.51.06-1.03.1-1.54.04-.54.16-1.1.11-1.63Z"/>
    <path class="cls-26" d="M25.3,52.57c-.14-.17-.47-.12-.56.07-.19.39-.16.93-.19,1.36-.03.42-.05.84-.09,1.25-.04.4-.15.81-.28,1.19-.14.42-.27.84-.43,1.24-.04.11.11.18.19.11.33-.32.62-.65.84-1.05.23-.42.41-.87.58-1.33.17-.45.27-.94.28-1.42.02-.46-.03-1.06-.32-1.43Z"/>
    <path class="cls-26" d="M30.69,57.38c-.08-.57-.32-1.13-.7-1.58-.34-.4-.79-.73-1.26-.96-.23-.11-.49-.14-.75-.17-.26-.03-.53-.03-.8-.03v.02c.25.06.46.15.69.29.19.12.34.27.52.39.38.25.71.56.96.94.26.39.48.8.64,1.25.08.22.13.46.18.69.04.23.04.45.16.65.03.05.09.06.14.02.19-.18.22-.42.24-.68.03-.28.01-.56-.02-.84Z"/>
    <path class="cls-27" d="M20.14,58.6c-.09-.06-.18-.12-.26-.18-.08-.07-.15-.15-.23-.23-.15-.14-.29-.27-.42-.43-.27-.32-.44-.66-.63-1.02-.09-.18-.21-.34-.29-.52-.09-.2-.15-.42-.21-.64-.01-.04-.07-.04-.08,0-.05.22-.06.45-.05.67,0,.23,0,.46.08.69.14.44.47.89.81,1.2.17.15.36.3.56.41.19.1.42.17.62.23.44.14.89.23,1.34.23h0c-.43-.06-.86-.18-1.24-.42Z"/>
  </g>
</svg>