<?xml version="1.0" encoding="UTF-8"?>
<svg xmlns="http://www.w3.org/2000/svg" viewBox="0 0 50 68">
  <defs>
    <style>
      .cls-1 {
        fill: #3f332e;
      }

      .cls-1, .cls-2, .cls-3, .cls-4, .cls-5, .cls-6, .cls-7, .cls-8, .cls-9, .cls-10, .cls-11, .cls-12, .cls-13, .cls-14, .cls-15, .cls-16, .cls-17, .cls-18, .cls-19, .cls-20 {
        stroke-width: 0px;
      }

      .cls-2 {
        fill: #b61b1a;
      }

      .cls-3 {
        fill: #c2c2c1;
      }

      .cls-21 {
        isolation: isolate;
      }

      .cls-4 {
        fill: #382923;
      }

      .cls-5 {
        fill: #b1b1b1;
      }

      .cls-6 {
        fill: #500f0f;
      }

      .cls-7 {
        fill: #e5e5e5;
      }

      .cls-8 {
        fill: #cecece;
      }

      .cls-9 {
        fill: #e4d2c3;
      }

      .cls-10 {
        fill: #ddd;
      }

      .cls-11 {
        fill: #d5d5d5;
      }

      .cls-22 {
        opacity: .1;
      }

      .cls-12 {
        fill: #c7c7c7;
      }

      .cls-23 {
        mix-blend-mode: color-dodge;
      }

      .cls-13 {
        fill: #a9a9a9;
      }

      .cls-14 {
        fill: #c1c1c1;
      }

      .cls-15 {
        fill: #ececec;
      }

      .cls-16 {
        fill: #9a9a99;
      }

      .cls-17 {
        fill: #b8b8b7;
      }

      .cls-18 {
        fill: #cac9c9;
      }

      .cls-19 {
        fill: #f8f8f8;
      }

      .cls-20 {
        fill: #fce7d6;
      }
    </style>
  </defs>
  <g class="cls-21">
    <g id="_圖層_1" data-name="圖層 1">
      <g>
        <g class="cls-22">
          <path class="cls-6" d="M36.8,60.21c0,2.75-5.28,4.98-11.8,4.98s-11.8-2.23-11.8-4.98,5.28-4.98,11.8-4.98,11.8,2.23,11.8,4.98Z"/>
        </g>
        <g>
          <path class="cls-18" d="M35.34,53.48c0,2.13-.01,1.01-.02,3.14,0,1.52-1,3.03-3,4.19-4.01,2.33-10.54,2.33-14.58,0-2.03-1.17-3.05-2.71-3.04-4.25,0-2.13.01-1.01.02-3.14,0,1.54,1.01,3.08,3.04,4.25,4.04,2.33,10.57,2.33,14.58,0,1.99-1.16,2.99-2.68,3-4.19"/>
          <path class="cls-20" d="M32.29,49.97c4.04,2.33,4.06,6.11.05,8.45-4.01,2.33-10.54,2.33-14.58,0-4.04-2.33-4.06-6.11-.05-8.45,4.01-2.33,10.54-2.33,14.58,0"/>
          <path class="cls-9" d="M33.1,54.75c-.2,1.01-.97,1.99-2.31,2.77-3.16,1.84-8.3,1.84-11.49,0-1.36-.78-2.14-1.78-2.34-2.8-.27-1.37.49-2.8,2.31-3.85,3.16-1.84,8.3-1.84,11.48,0,1.84,1.06,2.62,2.5,2.34,3.88"/>
          <path class="cls-20" d="M33.1,54.75c-.2,1.01-.97,1.99-2.31,2.77-3.16,1.84-8.3,1.84-11.49,0-1.36-.78-2.14-1.78-2.34-2.8.2-1.01.97-1.99,2.31-2.77,3.16-1.84,8.3-1.84,11.48,0,1.36.78,2.14,1.78,2.34,2.8"/>
          <path class="cls-2" d="M35.93,26.04v13.47s-.01,3.02-.01,3.02v.89s0,3.18,0,3.18v8.19c0,.7-.21,1.39-.6,2.05h0c-.52.87-1.38,1.69-2.57,2.39-1.51.88-3.36,1.44-5.3,1.7-.23.03-.46.06-.69.07-2.95.27-6.07-.16-8.54-1.3-.32-.15-.62-.3-.92-.47-.43-.25-.82-.52-1.17-.8-.6-.49-1.07-1.01-1.41-1.56h0c-.43-.7-.64-1.42-.64-2.15,0-.57,0-3.41,0-7,0-.91,0-1.88,0-2.86,0-.32,0-.64,0-.97v-3.21c0-4.48,0-8.73,0-10.49,0-1.91,0-3.5,0-4.21,0,.05,0,.1,0,.15,0,.15.02.3.05.46,0,.05.02.1.03.15,0,.05.02.1.03.15.01.05.02.1.04.15.01.05.03.1.05.15.02.05.03.1.05.15.02.05.04.1.06.15.04.1.09.2.14.3.05.1.11.2.17.3.02.04.05.08.08.13l.02.03s.06.08.09.12c.03.05.07.1.1.14.04.05.07.1.11.14.07.09.15.19.24.28.04.05.08.09.13.14.09.09.18.18.28.27.1.09.2.18.3.26.02.02.04.04.07.06.35.29.75.55,1.19.81.13.08.27.15.41.22.07.03.14.07.21.11.07.03.14.07.21.1.02.01.05.02.07.03.02.01.05.02.08.03.02.01.05.02.07.03.04.02.07.03.11.05.09.04.18.08.28.12.62.25,1.27.46,1.94.63.08.02.16.04.25.06.08.02.16.04.25.06.08.02.17.03.25.05.05.01.1.02.15.03.07.01.13.02.2.03.05.01.11.02.16.03.09.02.17.03.25.04.23.04.45.07.68.09.05,0,.11.01.16.02.07,0,.14.02.21.02.15.01.3.03.45.04.14.01.29.02.43.03h.04c.06,0,.12,0,.17.01,3.03.11,6.12-.5,8.43-1.84h0c.2-.11.39-.23.57-.35.06-.04.12-.08.18-.12.17-.12.34-.25.49-.38h0c.1-.09.2-.17.3-.26h0s.09-.09.14-.14c.18-.18.35-.36.5-.55.07-.09.15-.19.21-.28.07-.09.13-.19.19-.29.06-.09.11-.19.16-.28h0c.07-.15.14-.3.19-.44.04-.1.07-.2.1-.3.02-.05.03-.1.04-.15.02-.09.04-.19.06-.28,0-.01,0-.03,0-.04,0-.03,0-.05.01-.08,0-.03,0-.06.01-.09.02-.13.02-.27.02-.41"/>
          <path class="cls-3" d="M32.71,21.53c4.28,2.47,4.3,6.47.05,8.95-4.25,2.47-11.17,2.47-15.44,0-4.28-2.47-4.3-6.48-.05-8.95,4.25-2.47,11.17-2.47,15.44,0"/>
          <path class="cls-10" d="M35.93,25c0,1.12,0,.79,0,.45,0-.34,0-.68-.01.45,0,1.6-1.06,3.2-3.16,4.43-4.24,2.46-11.13,2.46-15.4,0-2.15-1.24-3.22-2.87-3.21-4.49,0-1.12,0-.79,0-.45,0,.34,0,.68.01-.45,0,1.62,1.07,3.25,3.21,4.49,4.27,2.46,11.16,2.46,15.4,0,2.1-1.22,3.16-2.82,3.16-4.43"/>
          <path class="cls-11" d="M32.71,20.51c4.27,2.46,4.29,6.46.05,8.92-4.24,2.46-11.13,2.46-15.4,0-4.26-2.46-4.29-6.46-.05-8.92,4.24-2.46,11.13-2.46,15.4,0Z"/>
          <path class="cls-18" d="M35.25,25.19c0,.16-.03.32-.06.49-.25,1.27-1.22,2.51-2.9,3.49-3.98,2.31-10.45,2.31-14.46,0-1.71-.99-2.69-2.24-2.95-3.52-.03-.16-.05-.32-.06-.48-.09-1.58.89-3.17,2.96-4.37,3.98-2.31,10.45-2.31,14.46,0,2.1,1.21,3.1,2.82,3.01,4.41Z"/>
          <path class="cls-15" d="M35.25,25.19c0,.16-.03.32-.06.48-.11.53-.33,1.05-.68,1.54-.5.71-1.23,1.37-2.22,1.94-1.16.68-2.54,1.15-4.01,1.43-3.55.68-7.62.2-10.45-1.44-1.71-.99-2.69-2.24-2.95-3.52-.03-.16-.05-.32-.06-.48.08-1.44,1.07-2.86,2.96-3.96,3.98-2.31,10.45-2.31,14.46,0,1.92,1.11,2.92,2.54,3.01,3.99Z"/>
          <path class="cls-7" d="M35.07,25.19c0,.16-.03.31-.06.47-.1.51-.32,1.01-.66,1.49-.48.68-1.19,1.32-2.15,1.88-1.13.65-2.46,1.12-3.88,1.39-3.43.66-7.36.19-10.1-1.39-1.65-.95-2.61-2.16-2.85-3.41-.03-.15-.05-.31-.06-.46.08-1.39,1.04-2.77,2.87-3.83,3.85-2.24,10.11-2.24,13.98,0,1.85,1.07,2.82,2.46,2.91,3.86Z"/>
          <path class="cls-19" d="M18.15,30.91s.04.02.07.03c-.02-.01-.04-.02-.07-.03M18.09,30.89s.03.02.05.02c-.02,0-.03-.02-.05-.02M17.43,30.55s0,0,.01,0c0,0,0,0-.01,0M17.26,30.45s.03.02.05.03c.04.02.07.04.11.06-.04-.02-.07-.04-.11-.06-.02,0-.03-.02-.05-.03M16.13,29.67h0c.23.19.48.37.76.55-.26-.17-.5-.34-.72-.52-.01,0-.02-.02-.04-.03"/>
          <path class="cls-12" d="M16.13,29.67h0s.02.02.04.03c-.01,0-.02-.02-.04-.03"/>
          <path class="cls-8" d="M16.7,58.85c.19.13.39.25.6.37.18.1.37.21.56.3-.19-.1-.38-.2-.56-.3-.21-.12-.41-.25-.6-.37"/>
          <g class="cls-23">
            <path class="cls-1" d="M18.21,30.95s-.04-.02-.07-.03c0,0,0,0,0,0-.02,0-.03-.02-.05-.02-.22-.11-.44-.22-.65-.33,0,0,0,0-.01,0,0,0,0,0,0,0-.04-.02-.07-.04-.11-.06-.02,0-.03-.02-.05-.03-.13-.08-.26-.15-.38-.23-.27-.18-.52-.36-.76-.55v28.76c.18.14.37.28.57.42.19.13.39.25.6.37.18.1.37.21.56.3.12.06.24.12.36.17v-28.76s0,0,0,0Z"/>
          </g>
          <path class="cls-17" d="M34.51,27.22c-.5.71-1.23,1.37-2.22,1.94-1.16.68-2.54,1.15-4.01,1.43-.03-.01-.07-.02-.1-.03-1.42-.49-2.39-1.48-2.39-2.62,0-1.6,1.92-2.91,4.31-2.94.04,0,.08,0,.12,0,2.07,0,3.81.94,4.29,2.22Z"/>
          <path class="cls-11" d="M34.25,27.22c-.5.71-1.23,1.37-2.22,1.94-1.12.65-2.44,1.12-3.85,1.4-1.42-.49-2.39-1.48-2.39-2.62,0-1.6,1.92-2.91,4.31-2.94,2,.04,3.67.97,4.14,2.22Z"/>
          <path class="cls-5" d="M25.19,23.2c0,.65,0-.15,0,.5,0-.14-.09-.28-.3-.4-.68-.39-1.93-.3-2.8.21-.51.29-.77.66-.77.99,0-.65,0,.15,0-.5,0-.33.27-.7.77-.99.87-.51,2.12-.6,2.8-.21.21.12.3.26.3.4Z"/>
          <path class="cls-13" d="M20.53,24.41c0-.65,0,.15,0-.5,0,.46.3.93.91,1.28v.5c-.62-.35-.92-.82-.92-1.28Z"/>
          <path class="cls-5" d="M24.26,26.07c0-.65,0,.19,0-.46,0-.33.23-.68.69-.94.87-.51,2.22-.54,3.02-.08.19.11.33.23.42.37v.46c-.1-.13-.24-.26-.42-.37-.8-.46-2.15-.43-3.02.08-.46.27-.69.61-.69.94Z"/>
          <path class="cls-14" d="M27.5,27.57s-.09-.05-.15-.06v-1.95c.06.02.11.04.15.06.12.07.19.17.19.26,0,.65,0,1.3,0,1.95,0-.09-.06-.19-.19-.26Z"/>
          <path class="cls-16" d="M27.51,25.62c.25.14.25.38,0,.52-.25.14-.65.14-.9,0-.04-.03-.08-.05-.11-.08-.13-.14-.1-.32.11-.44.2-.12.51-.14.75-.06.05.02.1.04.15.06Z"/>
          <polygon class="cls-13" points="24.26 26.8 24.25 27.3 21.45 25.68 21.45 25.18 24.26 26.8"/>
          <path class="cls-13" d="M29.54,25.54c0,.65,0-.15,0,.5,0,.46-.3.91-.9,1.26-.6.35-1.39.53-2.19.53s-1.59-.18-2.19-.53v-.5c.61.35,1.41.53,2.2.53.79,0,1.58-.18,2.19-.53.6-.35.9-.8.9-1.26Z"/>
          <path class="cls-14" d="M28.62,24.26c1.21.7,1.22,1.84.01,2.54-.6.35-1.4.53-2.19.53-.79,0-1.59-.18-2.19-.53l-2.8-1.62c-1.21-.7-1.22-1.84-.01-2.54.6-.35,1.39-.53,2.19-.53.79,0,1.59.18,2.19.53l2.8,1.62ZM26.61,26.14c.25.14.65.14.9,0,.25-.14.25-.38,0-.52-.04-.03-.09-.05-.15-.06l1.04-.6c-.09-.13-.23-.26-.42-.37-.8-.46-2.15-.43-3.02.08-.87.51-.93,1.29-.13,1.75.19.11.4.19.63.24l1.04-.6s.06.06.11.08M21.73,24.62c.68.39,1.55.1,2.42-.41.87-.51,1.41-1.03.73-1.42-.68-.39-1.93-.3-2.8.21-.87.51-1.03,1.23-.35,1.62"/>
          <g class="cls-23">
            <path class="cls-4" d="M35.92,46.6v8.19c0,.7-.21,1.39-.6,2.05h0c-.52.87-1.38,1.69-2.57,2.39-1.51.88-3.36,1.44-5.3,1.7-.23.03-.46.06-.69.07,5.04-4.6,7.73-10,9.17-14.4Z"/>
          </g>
        </g>
      </g>
    </g>
  </g>
</svg>