<svg width="120" height="120" viewBox="0 0 120 120" fill="none" xmlns="http://www.w3.org/2000/svg">
<rect opacity="0.1" x="24" y="90" width="69" height="9" rx="4.5" fill="#500F0F"/>
<path d="M25 24H91.5031C91.5031 24 89.994 61.8028 86.1449 94.9042L31.4604 95C31.4604 95 26.9217 67.6316 25 24Z" fill="#F2E8CF"/>
<path d="M25 24C26.9217 67.6316 31.4547 95 31.4547 95L86.1392 94.9042C89.9883 61.8028 91.4975 24 91.4975 24H25ZM83.2058 91.1724L34.2808 91.2569C34.2808 91.2569 30.2226 66.7748 28.5043 27.7374H87.9988C87.9988 27.7374 86.6479 61.5604 83.2058 91.1724Z" fill="#E6D0A2"/>
<path d="M90.61 46.7402C90.4743 46.7402 90.3443 46.7402 90.2087 46.7515C90.0222 48.9613 89.8074 51.4134 89.5643 54.0291C89.9035 53.9727 90.2539 53.9332 90.61 53.9332C94.0239 53.9332 96.7934 56.6955 96.7934 60.1003C96.7934 63.5051 94.0239 66.2673 90.61 66.2673C89.8074 66.2673 89.0387 66.1095 88.3322 65.8333C88.0609 68.2065 87.767 70.6305 87.4504 73.0883C88.4622 73.3307 89.5191 73.466 90.6043 73.466C98.003 73.466 104 67.485 104 60.1059C104 52.7269 98.003 46.7459 90.6043 46.7459L90.61 46.7402Z" fill="#E6D0A2"/>
<path opacity="0.3" d="M46.7156 34.2878L34.343 33.9722C35.7278 65.343 38.9834 85.0223 38.9834 85.0223L47.6369 85.0054C46.8399 58.4149 46.7156 34.2878 46.7156 34.2878Z" fill="white"/>
</svg>
