<?xml version="1.0" encoding="UTF-8"?>
<svg id="_圖層_1" data-name="圖層 1" xmlns="http://www.w3.org/2000/svg" viewBox="0 0 50 68">
  <defs>
    <style>
      .cls-1 {
        fill: #cfdadd;
      }

      .cls-1, .cls-2, .cls-3, .cls-4, .cls-5, .cls-6, .cls-7, .cls-8, .cls-9, .cls-10, .cls-11, .cls-12, .cls-13, .cls-14, .cls-15, .cls-16 {
        stroke-width: 0px;
      }

      .cls-2 {
        fill: #a5db29;
      }

      .cls-17 {
        opacity: .5;
      }

      .cls-18 {
        opacity: .6;
      }

      .cls-3 {
        fill: #95d825;
      }

      .cls-4 {
        fill: #6fa017;
      }

      .cls-19 {
        opacity: .2;
      }

      .cls-5 {
        fill: #500f0f;
      }

      .cls-6 {
        fill: #e8ac88;
      }

      .cls-20 {
        opacity: .3;
      }

      .cls-7 {
        fill: #f4f5f8;
      }

      .cls-8 {
        fill: #e0e6e5;
      }

      .cls-9 {
        fill: #d08558;
      }

      .cls-10 {
        fill: #e2e2e2;
      }

      .cls-11 {
        fill: #99673c;
      }

      .cls-21 {
        opacity: .1;
      }

      .cls-12 {
        fill: #496b0c;
      }

      .cls-13 {
        fill: #7abf1c;
      }

      .cls-14 {
        fill: #73a200;
      }

      .cls-15 {
        fill: #fff;
      }

      .cls-16 {
        fill: #dd9268;
      }
    </style>
  </defs>
  <g class="cls-21">
    <ellipse class="cls-5" cx="25" cy="60.35" rx="10.51" ry="4.84"/>
  </g>
  <g>
    <g>
      <g>
        <path class="cls-15" d="M25,63.11c-5.42,0-9.67-2.44-9.67-5.55s4.25-5.55,9.67-5.55,9.67,2.44,9.67,5.55-4.25,5.55-9.67,5.55ZM25,53.07c-4.67,0-8.62,2.06-8.62,4.5s3.95,4.5,8.62,4.5,8.62-2.06,8.62-4.5-3.95-4.5-8.62-4.5Z"/>
        <g>
          <polyline class="cls-2" points="15.93 57.93 12.83 21.95 37.17 21.95 33.94 58.18"/>
          <path class="cls-14" d="M35.06,21.95c-1.61,4.95-1.88,10.12-2.09,15.36-.19,4.9-.37,10.49-3,14.82-1.12,1.84-2.75,3.6-4.95,4.03-2.19.43-4.38-.07-6.25-1.28-1.56-1.01-2.65-2.34-3.56-3.82l.72,6.16,6.4,3.94,10.49-2.51,1.55-1.32,2.79-35.39h-2.1Z"/>
        </g>
        <g>
          <path class="cls-15" d="M25,59.8c-3.66,0-7.48-1.85-8.94-3.55-.55.65-.2.22-.2.98,0,2.77,4.09,5.02,9.14,5.02s9.14-2.25,9.14-5.02c0-.76.66-.63.1-1.28-1.46,1.71-5.58,3.85-9.24,3.85Z"/>
          <polygon class="cls-15" points="15.41 57.98 12.26 21.43 37.74 21.43 34.67 57.61 33.62 57.52 36.6 22.48 13.4 22.48 16.45 57.89 15.41 57.98"/>
          <path class="cls-10" d="M37.48,23.2l.04-1.56c-2.52-6.87-10.74-6.47-12.35-6.32-1.57-.14-9.39-.52-12.13,5.78,7.58,1.26,15.17,2.43,22.76,3.57.53-.53,1.09-1.01,1.68-1.47Z"/>
          <path class="cls-10" d="M37.48,23.2l.04-1.56c-2.52-6.87-10.74-6.47-12.35-6.32-1.57-.14-11.51,0-12.51,7.12,5.12,9.25,15.55,1.1,23.14,2.24.53-.53,1.09-1.01,1.68-1.47Z"/>
        </g>
      </g>
      <g>
        <g>
          <ellipse class="cls-2" cx="24.93" cy="22.74" rx="11.57" ry="5.86"/>
          <g>
            <path class="cls-13" d="M29.26,23.48c-.03.98-1.01,1.56-1.82,1.91-1.75.71-3.74.81-5.56.24-2.74-.9-2.74-3.38,0-4.29,1.82-.58,3.81-.47,5.56.24.81.35,1.78.93,1.82,1.91h0ZM29.26,23.48c-.05-.98-1.03-1.53-1.85-1.82-1.71-.54-3.67-.44-5.31.24-2.1.87-2.11,2.29,0,3.16,1.64.67,3.6.78,5.31.24.82-.29,1.8-.84,1.85-1.82h0Z"/>
            <path class="cls-13" d="M21.5,23.4c.23-1.79,3.85-2.05,5.21-1.51,1.94.64,1.94,2.39,0,3.03-1.36.54-4.98.28-5.21-1.52h0ZM21.5,23.4c.29,1.84,3.77,1.73,5.06,1.12,1.48-.61,1.49-1.63,0-2.23-1.28-.62-4.77-.72-5.06,1.12h0Z"/>
          </g>
        </g>
        <g class="cls-17">
          <path class="cls-15" d="M25,30.1c-7.64,0-13.63-3.58-13.63-8.15s5.99-8.15,13.63-8.15,13.63,3.58,13.63,8.15-5.99,8.15-13.63,8.15ZM25,16.73c-6.31,0-10.7,2.75-10.7,5.22s4.4,5.22,10.7,5.22,10.7-2.75,10.7-5.22-4.4-5.22-10.7-5.22Z"/>
        </g>
      </g>
      <g>
        <g>
          <g>
            <path class="cls-15" d="M25,59.8c-3.66,0-7.48-1.85-8.94-3.55-.55.65-.2.15-.2.91,0,2.77,4.09,5.02,9.14,5.02s9.14-2.25,9.14-5.02c0-.76.66-.56.1-1.21-1.46,1.71-5.58,3.85-9.24,3.85Z"/>
            <g>
              <line class="cls-15" x1="15.93" y1="57.97" x2="12.83" y2="21.95"/>
              <rect class="cls-15" x="13.86" y="21.88" width="1.05" height="36.15" transform="translate(-3.37 1.38) rotate(-4.92)"/>
            </g>
            <g class="cls-19">
              <path class="cls-15" d="M37.02,23c-.91,3.19-5.95,5.64-12.02,5.64-6.68,0-12.1-2.96-12.16-6.61h-.07l2.92,35.73c.01.23.03-1.42.06-1.2l.04.55s0,.09,0,.14c0,.18.02.36.05.53l.02.28h.05c.71,2.39,4.48,4.21,9.02,4.21,5.05,0,9.14-2.25,9.14-5.02h0s.03-.31.03-.31c.1-.74.46,0,.21-.66l2.71-33.26Z"/>
            </g>
          </g>
          <g>
            <g class="cls-20">
              <polygon class="cls-15" points="18.02 61.43 15.72 26.56 21.62 28.41 24.61 28.84 23.4 62.64 18.02 61.43"/>
            </g>
            <g class="cls-20">
              <polygon class="cls-15" points="19.69 61.83 17.35 27.2 21.62 28.41 21.46 62.11 19.69 61.83"/>
            </g>
          </g>
        </g>
        <path class="cls-15" d="M26.73,14.85l-.09.97c5.67.42,10.04,3.01,10.04,6.13,0,3.42-5.24,6.2-11.68,6.2s-11.68-2.78-11.68-6.2c0-3.23,4.68-5.89,10.62-6.17l.09-.98c-6.63.27-11.69,3.31-11.69,7.15s5.56,7.17,12.66,7.17,12.66-3.15,12.66-7.17c0-3.69-4.68-6.64-10.92-7.11Z"/>
      </g>
    </g>
    <g>
      <path class="cls-9" d="M15.04,23.82s0,0,0,0c.34.27.74.54,1.21.8-.47-.26-.87-.53-1.21-.8Z"/>
      <path class="cls-9" d="M32.55,25.13s.04-.02.06-.03c-.02.01-.04.02-.06.03Z"/>
      <path class="cls-16" d="M16.24,24.62c.1.05.19.11.3.16-.1-.05-.2-.11-.3-.16Z"/>
      <path class="cls-11" d="M32.61,25.1s0,0,0,0c.68-.33,1.23-.68,1.66-1.03-.43.35-.98.7-1.66,1.03Z"/>
      <path class="cls-13" d="M14.08,22.79c.21.34.53.69.96,1.03.33.27.74.54,1.21.8.1.05.19.11.3.16,4.12,2.34,11.82,2.53,16.01.35.02-.01.04-.02.06-.03.68-.33,1.23-.68,1.66-1.03.29-.24.52-.48.7-.72.83-1.12.37-2.21-1.11-3.16-.03.08-.05.15-.09.22-.05.14-.12.27-.2.4.01.01.02.02.04.03.17-.02.4.06.58.25.2.21.64.63.58,1.11-.27,2.09-3.32,3.18-3.93,3.35-2.63.8-5.72,1.11-8.62.64-.13,0-.26-.02-.39-.05-.04-.01-.08-.02-.12-.04-1.24-.23-2.44-.61-3.54-1.1-.3-.13-.59-.26-.87-.4-.51-.26-.93-.53-1.28-.8-2.2-1.56-1.58-2.65-1.38-3.17.01-.03.03-.06.04-.09.29-.6,1-1.07,1.61-.98-.02-.09-.04-.18-.05-.28-1.38.62-2.24,1.37-2.43,2.18t0,0s0,.03-.01.04c0,.03-.01.06-.01.08,0,0,0,0,0,.01-.06.39.04.8.3,1.22Z"/>
      <path class="cls-6" d="M16.85,24.32c-.07-.03-.14-.07-.2-.12-.24-.14-.45-.28-.64-.42.35.27.78.54,1.28.8.27.14.56.27.87.4-.45-.2-.89-.43-1.31-.67Z"/>
      <path class="cls-8" d="M19.04,15.31c-.1.02-.2.05-.29.09-.02,0-.05.02-.07.03.06-.02.12-.04.19-.06.06-.02.12-.04.17-.06Z"/>
      <path class="cls-8" d="M18.11,20.33c.92.04,1.74-.57,2.04-1.43-.17.04-.35.07-.52.07-.21,0-.58-.15-.94-.36-.63-.02-1.27-.04-1.91-.06-.11,0-.22,0-.33-.01h0c.02-.12.05-.25.08-.38,0,0,0,0,0,0h0c.07-.26.16-.53.23-.72-.11.2-.21.4-.29.6-.02.07-.03.13-.04.2-.19,1.11.57,2.06,1.68,2.11Z"/>
      <path class="cls-8" d="M33.49,19.22c0,.07,0,.14-.04.2-.03.06-.1.1-.17.09-.06,0-.11-.05-.16-.1-.07-.06-.13-.13-.2-.2-.05.15-.16.28-.3.35-.29.16-.69.14-1-.04-.44-.26-.73-.82-1.2-.92,0,0,0,0,0,0-.01,0-.03,0-.04,0-.01.08-.02.15-.02.23-.02.98.74,1.86,1.74,1.95.99.08,1.78-.64,1.73-1.59,0-.08-.02-.17-.03-.25,0,.02.01.03.02.05-.07-.21-.18-.42-.32-.6-.13-.17-.3-.31-.49-.42.06.15.1.29.13.43.22.22.36.53.37.83Z"/>
      <path class="cls-8" d="M32.09,21.29c-1.06-.08-1.87-1.02-1.85-2.06,0-.23.05-.44.12-.63-.1,0-.21,0-.31,0-.19.05-.37.14-.55.22-.47.21-.75.07-1-.19-.13,0-.27,0-.4,0,.41,1.23,1.85,1.52,1.85,1.52-.25.04-.52.04-.78-.04-.69-.2-1.18-.79-1.32-1.47-.92.02-1.84.02-2.75.03.03.03.07.05.1.08.15.09.3.16.48.16.28.01.54-.15.82-.16.49-.02.9.42,1.22.85.32.43.64.92,1.13,1.1.26.1.54.09.81.13.69.09,1.37.46,1.9.98.19.19.61.6.61.88,0,.34-.42.35-.66.16-.2-.16-.3-.39-.41-.62-.11-.22-.23-.46-.45-.58-.42-.25-.93.06-1.38-.1-.43-.15-.65-.65-1.01-.93-.33-.25-.79-.27-1.12-.05-.16.11-.32.27-.51.22-.22-.06-.29-.35-.4-.57-.22-.42-.7-.58-1.14-.55-.43.03-.84.21-1.27.31-.38.09-.8.1-1.12-.09-.13-.05-.25-.12-.36-.22-.17-.15-.29-.36-.44-.53-.26-.28-.62-.43-.99-.42-.18,0-.36.05-.55.09-.11,1.19-1.13,2.13-2.31,2.07-.88-.04-1.56-.62-1.76-1.39-.61-.08-1.32.39-1.61.98-.14,1.19.43,2.36,1.45,3.05-.12-.26-.16-.56-.11-.86.03-.2.1-.39.2-.56-.02.07-.04.14-.05.22-.14.84.47,1.6,1.36,1.67.89.07,1.67-.61,1.76-1.48,0-.08,0-.15,0-.23.05.19.07.39.05.6-.03.33-.16.64-.36.89.12-.11.21-.23.3-.38.19-.32.25-.54.67-.47.18.03.5.08.66.16.26.12.25.31.2.55.04-.07.08-.14.13-.21-.03.07-.06.14-.08.22-.25.86.23,1.76,1.1,1.98.87.22,1.76-.34,1.95-1.22.01-.06.02-.13.03-.19,0-.01,0-.03,0-.04,0,0,0,.01,0,.02,0,0,0-.01,0-.02,0,.01,0,.03,0,.04.01.04.02.08.04.12.23.58.89.85,1.45.6.56-.25.8-.93.55-1.49-.02-.05-.05-.1-.08-.14.1.1.18.22.24.35.27.6.02,1.31-.58,1.58-.29.13-.61.13-.89.02.18.08.34.18.53.22.31.06.6-.08.92-.05.39.05.72.32,1.11.38.63.1,1.16-.44,1.78-.54.24-.04.49,0,.74-.02.36-.01,1.44-.26,1.5-.71.09-.58-1.09-.08-1.38-.12-.41-.06-.73-.29-.97-.62-.26-.34-.49-.69-.95-.63-.27.03-.42.32-.69.34-.25.01-.37-.17-.58-.28-.61-.31-1.13-.43-1.55-1.03-.1-.15-.2-.31-.35-.39-.21-.12-.47-.05-.7.01-.86.22-1.84.17-2.55-.35-.72-.52-1.04-1.59-.61-2.41.25.76.65,1.57,1.4,1.82.83.27,1.69-.28,2.47-.66.1-.05.22-.1.33-.08.17.03.28.21.33.38.05.18.05.37.09.55.09.38.37.7.72.83.75.25.97-.3,1.34-.77.29-.36.4-.09.65.21.17.22.35.39.6.5.48.21.93.13,1.34-.06.22.61.34,1.23.96,1.64.42.27,1.22.64,1.71.39.22-.11.3-.32.29-.56-.03-.1-.06-.2-.08-.31,0,0,0,0,0,0,.05-.07.12-.13.19-.19-.04,0-.07.01-.11.01-.06,0-.12,0-.17-.02-.01,0-.03,0-.04,0-.37-.06-.34-.25-.2-.47.02-.13.08-.27.17-.36.08-.09.18-.17.28-.25.05-.1.13-.2.23-.22.02-.02.03-.04.05-.06.04-.05.08-.11.13-.15.05-.04.13-.06.2-.03.05.02.08.07.11.11.1.17.14.36.12.55.12-.25.18-.52.18-.81,0,0,0,0,0,0-.18-.18-.41-.26-.58-.25-.02,0-.04,0-.06,0,0-.01.02-.03.03-.04.08-.12.14-.26.2-.4-.29.57-.93.95-1.68.89ZM15.81,20.85c-.19.24-.17.51-.25.78-.03.09-.06.19-.14.24-.09.06-.22.05-.3,0-.08-.06-.13-.15-.16-.24-.08-.25-.06-.54.05-.79.04-.1.1-.19.16-.27.14-.18.52-.44.75-.35.33.13.03.46-.11.64ZM22.94,22.61c.4.09.82.1,1.22.18.41.08.82.24,1.09.57.17.21.27.53.1.75-.21.28-.65.15-.94-.04-.29-.19-.63-.43-.94-.28-.4.18-.51.9-.95.88-.12,0-.22-.07-.32-.14-.84-.67-.87-2.1-1.77-2.55-.59-.3-1.37-.03-1.87.47-.23.23-.44.52-.75.63-.39.13-.81-.11-.98-.44-.32-.61-.18-1.65.75-1.41.27.07.52.22.81.25.55.06,1.05-.33,1.58-.5.09-.03.2-.06.29-.04.12.02.21.11.3.19.69.63,1.46,1.29,2.4,1.5Z"/>
      <path class="cls-8" d="M24,24.63c-.03-.07-.05-.15-.06-.23,0,.14,0,.28-.04.42-.05.23-.14.43-.27.61.19-.12.39-.24.62-.25.13,0,.25.03.36.07-.27-.12-.49-.34-.61-.63Z"/>
      <path class="cls-1" d="M34,21.89s-.01.08-.02.12c-.03.14-.1.29-.2.42-.13.17-.31.31-.53.34-.08.06-.15.12-.19.19,0,0,0,0,0,0,.02.1.05.21.08.31.01.24-.07.45-.29.56-.49.25-1.29-.11-1.71-.39-.63-.4-.74-1.02-.96-1.64-.42.2-.87.28-1.34.06-.25-.11-.43-.28-.6-.5-.24-.3-.36-.57-.65-.21-.38.48-.6,1.03-1.34.77-.35-.12-.64-.45-.72-.83-.04-.18-.04-.37-.09-.55-.05-.18-.17-.35-.33-.38-.11-.02-.22.03-.33.08-.78.37-1.64.93-2.47.66-.75-.24-1.15-1.06-1.4-1.82-.42.81-.1,1.88.61,2.41.71.52,1.69.57,2.55.35.23-.06.49-.13.7-.01.15.08.24.25.35.39.42.6.95.72,1.55,1.03.21.11.33.29.58.28.27-.01.42-.3.69-.34.46-.06.69.29.95.63.24.32.57.55.97.62.29.05,1.47-.46,1.38.12-.06.45-1.14.7-1.5.71-.25,0-.49-.02-.74.02-.62.09-1.15.63-1.78.54-.39-.06-.72-.33-1.11-.38-.31-.04-.61.11-.92.05-.19-.04-.36-.14-.53-.22-.02,0-.03-.01-.05-.02-.11-.05-.23-.08-.36-.07-.23,0-.43.13-.62.25-.32.46-.85.74-1.42.73,2.9.47,5.98.16,8.62-.64.62-.17,3.67-1.26,3.93-3.35.06-.48-.38-.9-.58-1.11,0,0,0,0,0,0,0,.29-.07.56-.18.81Z"/>
      <path class="cls-1" d="M20.65,24.02c.04-.12.09-.24.14-.35.06-.24.06-.42-.2-.55-.16-.08-.48-.13-.66-.16-.42-.07-.47.15-.67.47-.09.15-.18.27-.3.38-.35.45-.91.73-1.51.68-.22-.02-.42-.08-.61-.17.42.24.85.47,1.31.67,1.1.49,2.3.87,3.54,1.1-.85-.29-1.31-1.2-1.05-2.07Z"/>
      <path class="cls-1" d="M16.12,23.57c-1.02-.7-1.59-1.86-1.45-3.05-.01.03-.03.06-.04.09-.2.52-.82,1.61,1.38,3.17.19.14.41.28.64.42-.23-.16-.42-.38-.53-.63Z"/>
      <path class="cls-1" d="M16.65,24.2c.06.04.13.08.2.12.18.09.39.15.61.17.6.05,1.17-.23,1.51-.68.19-.25.32-.56.36-.89.02-.21,0-.41-.05-.6,0,.07,0,.15,0,.23-.09.87-.87,1.55-1.76,1.48-.88-.07-1.5-.83-1.36-1.67.01-.08.03-.15.05-.22-.1.17-.17.36-.2.56-.05.31,0,.6.11.86.11.25.3.47.53.63Z"/>
      <path class="cls-1" d="M18.04,20.92c1.17.06,2.2-.89,2.31-2.07-.06.02-.13.03-.19.05-.3.86-1.13,1.47-2.04,1.43-1.11-.05-1.87-1.01-1.68-2.11.01-.07.03-.13.04-.2,0-.03.02-.06.02-.09-.12.23-.21.48-.26.75-.03.2-.04.39-.02.58.01.1.03.19.05.28.2.77.88,1.34,1.76,1.39Z"/>
      <path class="cls-1" d="M23.92,24.21s0,.01,0,.02c0,0,0,.01,0,.02,0-.01,0-.03,0-.04Z"/>
      <path class="cls-1" d="M23.63,25.44c.12-.18.22-.39.27-.61.03-.14.04-.28.04-.42,0-.05-.02-.11-.02-.16,0,.06-.01.13-.03.19-.19.88-1.08,1.45-1.95,1.22-.87-.22-1.35-1.12-1.1-1.98.02-.08.05-.15.08-.22-.05.07-.09.13-.13.21-.06.11-.11.23-.14.35-.26.87.2,1.78,1.05,2.07.04.01.08.03.12.04.13.03.26.05.39.05.57,0,1.1-.27,1.42-.73Z"/>
      <path class="cls-1" d="M24,24.63c.12.29.34.51.61.63.02,0,.03.01.05.02.28.11.59.11.89-.02.6-.27.84-.98.58-1.58-.06-.14-.14-.25-.24-.35.03.05.05.09.08.14.25.57.02,1.24-.55,1.49-.56.25-1.22-.02-1.45-.6-.02-.04-.03-.08-.04-.12,0,0,0-.01,0-.02,0,0,0-.01,0-.02,0,.01,0,.03,0,.04,0,.05,0,.11.02.16.01.08.03.15.06.23Z"/>
      <path class="cls-1" d="M33.81,19.19c.05.95-.74,1.68-1.73,1.59-.99-.08-1.76-.97-1.74-1.95,0-.08,0-.16.02-.23,0,0,0,0,0,0-.07.19-.12.4-.12.63-.02,1.04.79,1.98,1.85,2.06.74.06,1.39-.31,1.68-.89.04-.07.07-.14.09-.22.06-.18.09-.38.08-.59-.01-.21-.06-.41-.14-.61,0-.02-.01-.03-.02-.05.02.08.03.17.03.25Z"/>
      <path class="cls-1" d="M29.17,20.13c.27.08.53.09.78.04,0,0-1.44-.29-1.85-1.52-.08,0-.17,0-.25,0,.14.68.63,1.27,1.32,1.47Z"/>
      <path class="cls-7" d="M32.87,18.8c.08.13.09.28.04.42.07.07.13.14.2.2.05.04.1.09.16.1.07.01.14-.03.17-.09.03-.06.04-.13.04-.2,0-.29-.15-.61-.37-.83,0,.04.02.08.02.11-.19,0-.39.02-.58.02.12.08.24.15.31.27Z"/>
      <path class="cls-7" d="M33.17,21.69c.08-.07.16-.14.23-.22-.11.01-.18.12-.23.22Z"/>
      <path class="cls-7" d="M32.72,22.3c-.13.21-.16.41.2.47.01,0,.03,0,.04,0-.22-.06-.28-.27-.25-.47Z"/>
      <path class="cls-7" d="M33.98,22.02s.01-.08.02-.12c.02-.19-.02-.38-.12-.55-.03-.04-.06-.09-.11-.11-.07-.03-.14-.01-.2.03-.05.04-.09.1-.13.15-.02.02-.03.04-.05.06-.07.08-.15.15-.23.22-.1.08-.19.16-.28.25-.09.09-.15.23-.17.36-.03.2.03.41.25.47.05.01.1.02.17.02.04,0,.08,0,.11-.01.22-.04.4-.17.53-.34.1-.13.16-.27.2-.42Z"/>
      <path class="cls-7" d="M15.92,20.21c-.23-.09-.61.17-.75.35-.07.08-.12.18-.16.27-.11.26-.14.54-.05.79.03.09.08.18.16.24.08.06.21.07.3,0,.08-.05.12-.15.14-.24.08-.27.06-.54.25-.78.14-.17.43-.51.11-.64Z"/>
      <path class="cls-7" d="M26.5,19.31c.18.1.31.37.2.55-.08.12-.24.15-.38.11-.14-.03-.26-.12-.39-.18-.57-.27-1.22-.07-1.82.09-.46.12-.99.2-1.42.04.33.19.75.17,1.12.09.43-.1.84-.28,1.27-.31.43-.03.92.13,1.14.55.11.21.17.51.4.57.19.05.35-.12.51-.22.33-.22.79-.2,1.12.05.36.27.58.78,1.01.93.45.15.96-.15,1.38.1.21.12.34.36.45.58.11.22.21.46.41.62.24.19.65.18.66-.16,0-.28-.42-.69-.61-.88-.53-.53-1.21-.89-1.9-.98-.27-.04-.55-.03-.81-.13-.5-.18-.82-.67-1.13-1.1-.32-.43-.73-.87-1.22-.85-.28,0-.54.17-.82.16-.17,0-.32-.08-.48-.16.21.18.41.34.72.4.2.04.41.04.59.14Z"/>
      <path class="cls-7" d="M20.24,20.92c-.09-.02-.19,0-.29.04-.52.18-1.03.56-1.58.5-.28-.03-.53-.18-.81-.25-.93-.24-1.07.81-.75,1.41.18.34.6.57.98.44.31-.1.52-.39.75-.63.51-.5,1.28-.77,1.87-.47.91.45.94,1.88,1.77,2.55.09.07.2.14.32.14.44.02.55-.7.95-.88.31-.14.65.09.94.28.29.19.73.32.94.04.16-.22.06-.54-.1-.75-.27-.33-.68-.5-1.09-.57-.4-.08-.82-.09-1.22-.18-.94-.22-1.7-.87-2.4-1.5-.09-.08-.18-.16-.3-.19Z"/>
      <path class="cls-8" d="M20.17,14.49s.01-.02.02-.03c0,.01-.01.02-.02.03Z"/>
      <path class="cls-8" d="M20.23,14.37s0-.02.01-.02c0,0,0,.02-.01.02Z"/>
      <path class="cls-8" d="M31.3,16.29s.07.02.1.04c-.03-.01-.07-.03-.1-.04Z"/>
      <path class="cls-8" d="M31.17,16.24s.06.02.09.03c-.03-.01-.06-.02-.09-.03Z"/>
      <path class="cls-8" d="M31.12,16.23s.03-.08.04-.13c-.01.04-.02.08-.04.13Z"/>
      <path class="cls-8" d="M31.19,15.95s-.01.09-.02.13c0-.04.02-.08.02-.13Z"/>
      <path class="cls-8" d="M20.11,14.6s.01-.02.02-.03c0,.01-.01.02-.02.03Z"/>
      <path class="cls-8" d="M31.55,16.4s.08.04.12.06c-.04-.02-.08-.04-.12-.06Z"/>
      <path class="cls-8" d="M31.43,16.34s.07.03.11.05c-.04-.02-.07-.03-.11-.05Z"/>
      <path class="cls-8" d="M31.68,16.46s.08.05.12.07c-.04-.03-.08-.05-.12-.07Z"/>
      <path class="cls-8" d="M22.39,12.29c-.08.01-.16.03-.24.05-.05,0-.09.02-.14.04.05-.01.09-.03.14-.04.08-.02.16-.03.24-.05Z"/>
      <path class="cls-8" d="M16.45,18.53h0c.02-.12.05-.25.08-.38-.04.13-.07.26-.08.38Z"/>
      <path class="cls-8" d="M16.78,18.54c.64.02,1.28.05,1.91.06-.11-.06-.22-.13-.32-.21-.66-.48-1.15-1.16-.54-1.68.73-.64,1.41.03,2.03.29.3.12.63.15.96.19.97.12,1.92.38,2.83.76.41.17.9.35,1.27.61.06.04.11.08.16.12.92,0,1.83-.01,2.75-.03.08,0,.17,0,.25,0,.13,0,.27,0,.4,0-.21-.22-.4-.51-.67-.74-.22-.19-.5-.25-.76-.34-.45-.15-.87-.4-1.22-.72-.06-.06-.13-.13-.15-.21-.16-.04-.31-.1-.45-.18-.26-.15-.47-.38-.69-.58-.54-.47-1.16-.76-1.79-.98-.47-.16-1.7-.77-1.05-1.56.53-.67,1.77-.05,2.35.17.54.21,1.07.48,1.64.61.57.13,1.16.12,1.72-.04.4-.11.78-.3,1.19-.3.41,0,.88.24,1.04.7.1.3.03.61-.12.86.04,0,.08.02.11.06.04.06.02.13,0,.19-.19.51-.42,1-.68,1.47-.06.11-.13.23-.11.36.02.23.26.38.47.41.8.08,1.6-.94,2.41-.32.29.22.33.59.6.85.03.03.05.05.08.07.05.04.11.07.16.11.19,0,.38-.02.58-.02,0-.04-.01-.08-.02-.11-.03-.14-.07-.29-.13-.43-.02-.06-.05-.12-.08-.18-.25-.51-.65-.95-1.11-1.24.13.08.25.18.37.28-.24-.08-.49-.11-.72-.1-.71.02-1.34.35-2.01.45.56-.19,1.11-.38,1.44-1.02.17-.32.25-.7.24-1.09.08.29.11.6.07.89.06-.44-.02-.93-.24-1.34-.53-.99-1.59-1.35-2.52-1.61.03,0,.07.02.1.03-.39.16-.78.39-1.16.61.44-.45.84-.93.98-1.64.11-.52.11-1.13,0-1.71-.44-.69-1.09-1.14-1.73-1.51-.28-.16-.56-.31-.79-.55-.23-.24-.4-.61-.36-.98-.2.68-.76,1.08-1.26,1.47-.06.05-.12.09-.18.14-.37.62-.69,1.25-.6,2.13.07.66.32,1.2.79,1.58.15.12.32.22.49.31-.03,0-.06-.01-.09-.02-.47-.11-.97-.11-1.44-.21-.41-.08-.8-.22-1.21-.24-.03,0-.07,0-.1,0,.05-.02.09-.03.14-.05-.63.19-1.21.73-1.53,1.43-.07.14-.12.3-.19.45.23.93,1.66,1.41,2.37,1.58.49.12.94.16,1.31.59.29.33.53.7.86.99.49.41,1.09.54,1.69.65-.64.19-1.38-.03-1.95-.4-.72-.47-1.37-.79-2.19-.93-.84-.14-1.79-.03-2.56-.44-.52-.27-.94-.63-1.52-.7.01,0,.03-.01.04-.02.11-.05.23-.1.34-.14-.11.04-.23.09-.34.14-.64.31-1.2.93-1.48,1.64-.02.04-.05.11-.08.21-.07.19-.16.45-.23.72.06.15.15.28.24.4ZM24.54,11.12c-.1-.24-.17-.5-.16-.77.01-.27.11-.52.21-.75.1-.23.57-1.49.79-1.33.09.07.13.21.17.33.16.51.47.94.87,1.2.44.28.99.38,1.27.87.27.46.16,1.13-.17,1.5-.33.37-.84.48-1.31.4-.72-.13-1.37-.69-1.69-1.45Z"/>
      <path class="cls-8" d="M30.05,18.61c.1,0,.21,0,.31,0,0,0,0,0,0,0,.01,0,.03,0,.04,0-.12-.03-.24-.02-.36.01Z"/>
      <path class="cls-1" d="M21.97,12.43c.41.02.81.16,1.21.24.48.09.97.09,1.44.21.03,0,.06.01.09.02-.17-.09-.34-.18-.49-.31-.47-.38-.72-.92-.79-1.58-.09-.87.23-1.51.6-2.13,0,0,0,0,0,0-.02.01-.03.03-.05.04-.01.01-.02.02-.04.03-.02.01-.03.03-.05.04-.01.01-.03.02-.04.04-.02.01-.03.03-.04.04-.01.01-.03.03-.04.04-.01.01-.03.03-.04.04-.01.01-.03.03-.04.04-.01.01-.03.03-.04.04-.01.02-.03.03-.04.05-.01.01-.02.03-.04.04-.01.02-.03.04-.04.06,0,.01-.02.02-.03.04-.02.03-.05.06-.07.1,0,.01-.01.02-.02.03-.01.02-.03.05-.04.07,0,.01-.02.03-.02.04-.01.02-.02.04-.03.06,0,.02-.01.03-.02.05,0,.02-.02.04-.03.06,0,.02-.01.03-.02.05,0,.02-.02.04-.02.07,0,.02-.01.03-.02.05,0,.02-.01.05-.02.07,0,.02,0,.03-.01.05,0,.03-.01.05-.02.08,0,.01,0,.03,0,.04,0,.04-.01.08-.01.13,0,0,0,0,0,0,0,.03,0,.07,0,.1,0,.52.2,1.1-.09,1.49-.16.21-.4.27-.65.32-.08.01-.16.03-.24.05-.05,0-.09.02-.14.04,0,0,0,0,0,0-.05.01-.09.03-.14.05.03,0,.07,0,.1,0Z"/>
      <path class="cls-1" d="M18.29,15.6c.58.07,1.01.43,1.52.7.77.41,1.72.29,2.56.44.82.14,1.47.46,2.19.93.57.37,1.31.59,1.95.4-.6-.1-1.2-.23-1.69-.65-.34-.29-.58-.66-.86-.99-.37-.43-.82-.47-1.31-.59-.71-.17-2.14-.65-2.37-1.58-.01.03-.03.07-.04.1,0,0,0,.02-.01.02-.01.03-.03.06-.04.08,0,.01-.01.02-.02.03-.01.03-.03.05-.04.08,0,.01-.01.02-.02.03-.02.04-.05.07-.07.1-.25.33-.62.48-1,.61-.06.02-.12.04-.17.06-.06.02-.12.04-.19.06,0,0,0,0,0,0-.11.04-.23.09-.34.14-.01,0-.03.01-.04.02Z"/>
      <path class="cls-1" d="M16.53,18.14h0s0,0,0,0c-.04.13-.07.26-.08.38.11,0,.22,0,.33.01-.1-.12-.18-.25-.24-.4Z"/>
      <path class="cls-1" d="M31.12,15.06c0,.39-.07.76-.24,1.09-.33.64-.87.83-1.44,1.02.67-.1,1.3-.43,2.01-.45.23,0,.47.03.72.1-.12-.1-.24-.2-.37-.28,0,0,0,0,0,0-.04-.03-.08-.05-.12-.07,0,0,0,0,0,0-.04-.02-.08-.04-.12-.06,0,0-.01,0-.02-.01-.04-.02-.07-.03-.11-.05,0,0-.02,0-.03-.01-.03-.01-.07-.03-.1-.04-.01,0-.03,0-.04-.01-.03-.01-.06-.02-.09-.03-.02,0-.03,0-.05-.01.01-.04.02-.08.04-.13,0,0,0-.02,0-.03,0-.04.02-.08.02-.13,0,0,0,0,0,0,.04-.29.02-.6-.07-.89Z"/>
      <path class="cls-1" d="M28.34,12c-.14.71-.54,1.19-.98,1.64.38-.22.77-.46,1.16-.61-.03,0-.07-.02-.1-.03.55-.63.46-1.77.02-2.55,0,0,0,0,0,0-.03-.05-.06-.1-.09-.15,0,0,0,0,0,0,.1.58.1,1.19,0,1.71Z"/>
      <path class="cls-7" d="M26.23,12.57c.47.08.97-.03,1.31-.4.33-.37.44-1.04.17-1.5-.28-.5-.84-.6-1.27-.87-.4-.25-.72-.69-.87-1.2-.04-.12-.08-.26-.17-.33-.22-.16-.7,1.1-.79,1.33-.1.24-.2.49-.21.75-.01.27.06.53.16.77.32.76.97,1.32,1.69,1.45Z"/>
      <path class="cls-7" d="M25.69,16.53c.03-.1.13-.14.22-.16.62-.13,1.3.1,1.9-.11.6-.21,1.03-.84,1.65-.91.02,0,.04,0,.06,0,.15-.25.22-.57.12-.86-.15-.46-.62-.7-1.04-.7-.41,0-.79.19-1.19.3-.56.16-1.15.17-1.72.04-.57-.13-1.1-.4-1.64-.61-.58-.22-1.82-.84-2.35-.17-.64.79.58,1.4,1.05,1.56.63.22,1.25.51,1.79.98.23.2.44.43.69.58.14.09.29.15.45.18,0-.03-.01-.07,0-.11Z"/>
      <path class="cls-7" d="M29.5,18.83c.18-.08.36-.18.55-.22.12-.03.23-.04.36-.01,0,0,0,0,0,0,.47.1.76.66,1.2.92.32.18.71.2,1,.04.14-.07.25-.2.3-.35.05-.13.04-.28-.04-.42-.08-.12-.19-.19-.31-.27-.05-.03-.11-.07-.16-.11-.03-.02-.06-.05-.08-.07-.27-.26-.31-.64-.6-.85-.81-.62-1.61.4-2.41.32-.21-.02-.46-.17-.47-.41-.01-.13.05-.25.11-.36.26-.47.49-.96.68-1.47.02-.06.04-.13,0-.19-.03-.04-.07-.05-.11-.06-.02,0-.04,0-.06,0-.62.07-1.05.7-1.65.91-.6.21-1.27-.02-1.9.11-.09.02-.19.06-.22.16-.01.04,0,.07,0,.11.02.08.08.16.15.21.36.33.78.57,1.22.72.26.09.54.15.76.34.27.23.46.53.67.74.25.25.53.4,1,.19Z"/>
      <path class="cls-7" d="M21.88,19.19c.16.17.28.37.44.53.11.1.23.17.36.22.43.16.96.08,1.42-.04.61-.16,1.25-.36,1.82-.09.13.06.25.14.39.18.14.03.3,0,.38-.11.12-.18-.01-.44-.2-.55-.18-.1-.39-.1-.59-.14-.3-.06-.5-.23-.72-.4-.03-.03-.07-.05-.1-.08-.05-.04-.11-.08-.16-.12-.38-.26-.86-.44-1.27-.61-.92-.39-1.87-.64-2.83-.76-.33-.04-.66-.07-.96-.19-.62-.26-1.3-.92-2.03-.29-.6.52-.12,1.2.54,1.68.1.08.21.15.32.21.37.22.73.36.94.36.18,0,.35-.03.52-.07.06-.01.13-.03.19-.05.18-.04.36-.09.55-.09.37,0,.73.15.99.42Z"/>
    </g>
    <g>
      <g>
        <g>
          <g class="cls-17">
            <path class="cls-15" d="M26.83,13.8l-.28,2.92c5.47.4,9.16,2.9,9.16,5.16,0,2.47-4.4,5.22-10.7,5.22s-10.7-2.75-10.7-5.22c0-2.32,3.87-4.88,9.55-5.19l.28-2.94c-7.22.26-12.77,3.74-12.77,8.13s5.99,8.15,13.63,8.15,13.63-3.58,13.63-8.15c0-4.2-5.06-7.56-11.81-8.08Z"/>
          </g>
          <path class="cls-15" d="M25,28.55c-7.23,0-12.97-3.2-13.58-7.41-.04.24-.06.49-.06.74,0,4.57,5.99,8.15,13.63,8.15s13.63-3.58,13.63-8.15c0-.25-.02-.5-.06-.74-.61,4.21-6.35,7.41-13.58,7.41Z"/>
        </g>
        <g>
          <g class="cls-17">
            <path class="cls-15" d="M23.19,10.58c-.36-.16-.63-.34-.77-.53-1.19.6-7.75,4.43-7.5,15.83l2.44,1.25s-1.45-9.19,5.84-16.55Z"/>
          </g>
          <g class="cls-18">
            <path class="cls-15" d="M25.3,7.66c-6.78,0-12.27,5.5-12.27,12.27s5.5,8.64,12.27,8.64,12.27-1.86,12.27-8.64-5.5-12.27-12.27-12.27ZM25.57,11.08c-1.85-.11-3.32-.74-3.28-1.41.04-.67,1.57-1.13,3.42-1.03,1.85.11,3.32.74,3.28,1.41-.04.67-1.57,1.13-3.42,1.03Z"/>
          </g>
          <path class="cls-15" d="M26.1,11.45c-.18,0-.36,0-.54-.02-1.84-.1-3.67-.75-3.61-1.78.02-.34.26-.81,1.28-1.12.68-.21,1.58-.29,2.51-.24.94.05,1.81.24,2.47.52.98.42,1.16.92,1.14,1.26-.02.34-.26.81-1.28,1.12-.55.17-1.24.25-1.97.25ZM25.18,8.98c-.66,0-1.28.08-1.76.22-.61.18-.78.4-.78.49-.02.31,1.09.93,2.95,1.04.86.05,1.66-.03,2.27-.21.61-.18.78-.4.78-.49,0-.09-.14-.33-.72-.58-.58-.25-1.38-.42-2.23-.46-.17,0-.34-.01-.51-.01Z"/>
        </g>
      </g>
      <g>
        <path class="cls-13" d="M27.09,11.06l.81-8.39c.07-.74-.59-.86-1.33-.93-.74-.07-1.27-.06-1.34.68l-.82,8.57c.9.04,1.79.07,2.69.08Z"/>
        <path class="cls-4" d="M24.47,10.24l-.07.74c.9.04,1.79.07,2.69.08l.15-1.52c-.79.58-1.77.85-2.77.7Z"/>
        <path class="cls-15" d="M26.1,11.45c-.18,0-.36,0-.54-.02-1.84-.1-3.67-.75-3.61-1.78l.7.04c-.02.31,1.09.93,2.95,1.04.86.05,1.66-.03,2.27-.21.61-.18.78-.4.78-.49l.7.04c-.02.34-.26.81-1.28,1.12-.55.17-1.24.25-1.97.25Z"/>
        <g>
          <path class="cls-12" d="M25.28,2.13c-.04.34.51.68,1.23.76s1.33-.13,1.37-.47c.04-.34-.51-.68-1.23-.76s-1.33.13-1.37.47Z"/>
          <path class="cls-3" d="M26.82,3.08c-.11,0-.22,0-.33-.02-.84-.09-1.43-.5-1.38-.95h0c.05-.45.72-.71,1.56-.62.84.09,1.43.5,1.38.95-.04.39-.55.64-1.23.64ZM25.45,2.15c-.02.18.39.49,1.08.57.69.08,1.15-.13,1.17-.31s-.39-.49-1.08-.57c-.69-.08-1.15.13-1.17.31h0Z"/>
        </g>
      </g>
    </g>
  </g>
</svg>