<?xml version="1.0" encoding="UTF-8"?>
<svg id="_圖層_1" data-name="圖層 1" xmlns="http://www.w3.org/2000/svg" viewBox="0 0 50 68">
  <defs>
    <style>
      .cls-1 {
        fill: #295c50;
      }

      .cls-1, .cls-2, .cls-3, .cls-4, .cls-5, .cls-6, .cls-7, .cls-8, .cls-9, .cls-10, .cls-11, .cls-12, .cls-13, .cls-14, .cls-15 {
        stroke-width: 0px;
      }

      .cls-2 {
        fill: #000;
      }

      .cls-3 {
        fill: #e1e1e1;
      }

      .cls-16 {
        opacity: .5;
      }

      .cls-4 {
        fill: #2f7262;
      }

      .cls-17 {
        opacity: .2;
      }

      .cls-5 {
        fill: #f0f0f0;
      }

      .cls-6 {
        fill: #500f0f;
      }

      .cls-18 {
        opacity: .15;
      }

      .cls-19 {
        opacity: .3;
      }

      .cls-7 {
        fill: #f08700;
      }

      .cls-8 {
        fill: #e2e2e2;
      }

      .cls-9 {
        fill: #d268cc;
      }

      .cls-20 {
        opacity: .1;
      }

      .cls-10 {
        fill: #c6905c;
      }

      .cls-11 {
        fill: #fff;
      }

      .cls-12 {
        fill: #fafafa;
      }

      .cls-13 {
        fill: #223f38;
      }

      .cls-14 {
        fill: #c16502;
      }

      .cls-15 {
        fill: #bc6c1d;
      }
    </style>
  </defs>
  <g class="cls-20">
    <ellipse class="cls-6" cx="25" cy="60.35" rx="10.51" ry="4.84"/>
  </g>
  <g>
    <g>
      <path class="cls-11" d="M25.07,63.16c-5.42,0-9.66-2.44-9.66-5.55s4.24-5.54,9.66-5.54,9.66,2.44,9.66,5.54-4.24,5.55-9.66,5.55ZM25.07,53.12c-4.67,0-8.61,2.06-8.61,4.49s3.94,4.49,8.61,4.49,8.61-2.06,8.61-4.49-3.94-4.49-8.61-4.49Z"/>
      <g>
        <polyline class="cls-7" points="16 57.98 12.9 22.02 37.23 22.02 34 58.23"/>
        <path class="cls-14" d="M35.13,22.02c-1.61,4.95-1.88,10.11-2.09,15.35-.19,4.9-.37,10.49-3,14.82-1.12,1.84-2.74,3.6-4.95,4.03-2.19.43-4.38-.07-6.24-1.28-1.56-1-2.65-2.34-3.56-3.82l.72,6.16,6.4,3.94,10.49-2.51,1.55-1.32,2.79-35.37h-2.1Z"/>
      </g>
      <g>
        <path class="cls-11" d="M25.07,59.85c-3.66,0-7.48-1.85-8.94-3.55-.55.65-.2.22-.2.98,0,2.77,4.09,5.02,9.14,5.02s9.14-2.25,9.14-5.02c0-.76.65-.63.1-1.28-1.46,1.71-5.58,3.85-9.24,3.85Z"/>
        <polygon class="cls-11" points="15.48 58.03 12.33 21.5 37.8 21.5 34.73 57.66 33.68 57.57 36.66 22.55 13.48 22.55 16.52 57.94 15.48 58.03"/>
        <path class="cls-8" d="M37.53,23.27l.04-1.56c-2.52-6.86-10.73-6.46-12.34-6.32-1.57-.14-9.39-.52-12.13,5.78,7.57,1.25,15.16,2.43,22.75,3.57.53-.53,1.09-1.01,1.68-1.47Z"/>
        <path class="cls-8" d="M37.53,23.27l.04-1.56c-2.52-6.86-10.7-6.78-12.32-6.78s-11.53.46-12.53,7.57c5.12,9.25,15.54,1.1,23.13,2.24.53-.53,1.09-1.01,1.68-1.47Z"/>
      </g>
    </g>
    <g>
      <g>
        <ellipse class="cls-10" cx="24.93" cy="22.27" rx="11.57" ry="5.85"/>
        <g>
          <path class="cls-15" d="M29.26,23.01c-.03.98-1.01,1.56-1.82,1.91-1.75.71-3.74.81-5.55.24-2.74-.9-2.74-3.38,0-4.28,1.82-.58,3.81-.47,5.55.24.81.35,1.78.93,1.82,1.91h0ZM29.26,23.01c-.05-.98-1.03-1.53-1.85-1.81-1.71-.54-3.66-.44-5.3.24-2.1.87-2.11,2.29,0,3.16,1.64.67,3.59.78,5.3.24.82-.29,1.8-.84,1.85-1.82h0Z"/>
          <path class="cls-15" d="M21.5,22.93c.23-1.79,3.85-2.05,5.21-1.51,1.94.64,1.94,2.39,0,3.03-1.35.54-4.98.28-5.21-1.51h0ZM21.5,22.93c.29,1.84,3.77,1.73,5.06,1.12,1.48-.6,1.48-1.63,0-2.23-1.3-.61-4.75-.73-5.06,1.12h0Z"/>
        </g>
      </g>
      <g class="cls-16">
        <path class="cls-11" d="M25,29.63c-7.64,0-13.63-3.58-13.63-8.14s5.99-8.14,13.63-8.14,13.63,3.58,13.63,8.14-5.99,8.14-13.63,8.14ZM25,16.27c-6.3,0-10.7,2.75-10.7,5.22s4.39,5.22,10.7,5.22,10.7-2.75,10.7-5.22-4.39-5.22-10.7-5.22Z"/>
      </g>
    </g>
    <g>
      <g>
        <g>
          <path class="cls-11" d="M25.17,59.88c-3.71,0-7.59-1.88-9.07-3.61-.56.66-.2.15-.2.92,0,2.81,4.15,5.09,9.28,5.09s9.28-2.28,9.28-5.09c0-.77.66-.57.1-1.23-1.48,1.73-5.66,3.91-9.38,3.91Z"/>
          <g>
            <line class="cls-11" x1="15.97" y1="58.02" x2="12.82" y2="21.48"/>
            <rect class="cls-11" x="13.87" y="21.41" width="1.05" height="36.67" transform="translate(-3.35 1.38) rotate(-4.92)"/>
          </g>
          <g class="cls-17">
            <path class="cls-11" d="M37.36,22.54c-.93,3.24-6.03,5.72-12.19,5.72-6.77,0-12.27-3-12.34-6.71h-.07l2.96,36.24c.01.24.03-1.44.06-1.22l.05.56s0,.09,0,.14c0,.18.02.36.05.54l.02.29h.05c.72,2.42,4.54,4.27,9.15,4.27,5.12,0,9.28-2.28,9.28-5.09h0s.03-.32.03-.32c.1-.75.47,0,.21-.67l2.75-33.74Z"/>
          </g>
        </g>
        <g>
          <g class="cls-19">
            <polygon class="cls-11" points="18.09 61.53 15.75 26.16 21.74 28.03 24.77 28.47 23.55 62.75 18.09 61.53"/>
          </g>
          <g class="cls-19">
            <polygon class="cls-11" points="19.78 61.94 17.41 26.81 21.74 28.03 21.58 62.22 19.78 61.94"/>
          </g>
        </g>
      </g>
      <path class="cls-11" d="M27.44,14.3c-.88-.05-2.63-.07-3.51-.05-6.52.15-11.43,3.42-11.43,7.23,0,4.08,5.64,7.27,12.84,7.27s12.84-3.2,12.84-7.27c0-3.67-4.56-6.82-10.74-7.18ZM25.34,27.77c-6.53,0-11.85-2.82-11.85-6.29,0-3.22,4.59-6.11,10.5-6.24.86-.02,2.59,0,3.44.06,5.55.34,9.75,3.1,9.75,6.18,0,3.47-5.32,6.29-11.85,6.29Z"/>
    </g>
    <g>
      <g>
        <g>
          <g>
            <path class="cls-3" d="M34.67,14.47c-5.25-3.03-13.77-3.03-19.03,0-2.63,1.52-3.94,3.5-3.94,5.49,0,.39,0,1.97,0,2.37,0,1.98,1.32,3.96,3.94,5.47,5.25,3.03,13.77,3.03,19.03,0,2.63-1.52,3.94-3.51,3.94-5.5,0-.39,0-1.94,0-2.33,0-1.99-1.31-3.98-3.94-5.5Z"/>
            <g class="cls-20">
              <path class="cls-2" d="M19.77,12.84c-1.5.38-2.91.92-4.13,1.63-2.63,1.52-3.94,3.5-3.94,5.49,0,.39,0,1.97,0,2.37,0,1.98,1.32,3.96,3.94,5.47,1.23.71,2.63,1.25,4.13,1.63V12.84Z"/>
            </g>
          </g>
          <path class="cls-5" d="M34.67,14.47c5.25,3.03,5.25,7.95,0,10.99-5.25,3.03-13.77,3.03-19.03,0-5.25-3.03-5.25-7.95,0-10.99,5.25-3.03,13.77-3.03,19.03,0Z"/>
        </g>
        <g>
          <path class="cls-3" d="M37.18,19.11h0l-.44-1.79h0c-.17-1.49-1.29-2.96-3.38-4.1-4.54-2.48-11.89-2.48-16.42,0-2.09,1.14-3.21,2.61-3.38,4.1h0l-.45,1.79h0c-.19,1.79.96,3.62,3.46,4.99,4.65,2.54,12.5,2.54,17.14,0,2.5-1.37,3.66-3.2,3.46-4.99Z"/>
          <g class="cls-20">
            <path class="cls-2" d="M16.94,13.22c-2.09,1.14-3.21,2.61-3.38,4.1h0l-.45,1.79h0c-.19,1.79.96,3.62,3.46,4.99.95.52,2.03.93,3.2,1.24l.28-2.55.56-10.93c-1.33.31-2.58.76-3.67,1.35Z"/>
          </g>
          <path class="cls-5" d="M33.37,13.22c4.54,2.48,4.54,6.5,0,8.98-4.54,2.48-11.89,2.48-16.42,0-4.54-2.48-4.54-6.5,0-8.98,4.54-2.48,11.89-2.48,16.42,0Z"/>
          <path class="cls-3" d="M32.23,14.18c3.91,1.95,3.91,5.1,0,7.05-3.91,1.95-10.25,1.95-14.16,0-3.91-1.95-3.91-5.1,0-7.05s10.25-1.95,14.16,0Z"/>
          <g class="cls-20">
            <path class="cls-2" d="M32.23,14.18c3.91,1.95,3.91,5.1,0,7.05-3.91,1.95-10.25,1.95-14.16,0-3.91-1.95-3.91-5.1,0-7.05s10.25-1.95,14.16,0Z"/>
          </g>
          <path class="cls-12" d="M32.23,15.19c-3.91-1.95-10.25-1.95-14.16,0-1.7.84-2.66,1.92-2.88,3.02.22,1.1,1.18,2.18,2.88,3.02,3.91,1.95,10.25,1.95,14.16,0,1.7-.84,2.66-1.92,2.88-3.02-.22-1.1-1.18-2.18-2.88-3.02Z"/>
        </g>
      </g>
      <g class="cls-17">
        <path class="cls-2" d="M26.37,17.51c.67.39.67,1.02,0,1.4-.67.39-1.76.39-2.43,0-.67-.39-.67-1.02,0-1.4s1.76-.39,2.43,0Z"/>
      </g>
      <g id="Straw">
        <path class="cls-1" d="M25.24,2.93c-.01-.17-.14-.34-.38-.45-.47-.23-1.21-.18-1.65.12-.22.15-.32.33-.31.5,0,.1,1.11,15.29,1.12,15.4.01.17.14.34.38.45.47.23,1.21.18,1.65-.12.22-.15.32-.33.31-.5,0-.1-1.11-15.29-1.12-15.4Z"/>
        <g class="cls-18">
          <path class="cls-2" d="M24.4,18.95c.47.23,1.21.18,1.65-.12.22-.15.32-.33.31-.5,0,0,0-.04,0-.11-.65.51-1.56.65-1.75-1.7-.2-2.55-1.02-13.5-1.02-13.5l-.08-.56c-.1.04-.2.08-.29.14-.22.15-.32.33-.31.5,0,.1,1.11,15.29,1.12,15.4.01.17.14.34.38.45Z"/>
        </g>
        <path class="cls-9" d="M23.21,2.6c-.22.15-.32.33-.31.5.01.17.14.34.38.45.47.23,1.21.18,1.65-.12.22-.15.32-.33.31-.5s-.14-.34-.38-.45c-.47-.23-1.21-.18-1.65.12Z"/>
        <g>
          <path class="cls-13" d="M23.21,2.6c-.22.15-.32.33-.31.5.01.17.14.34.38.45.47.23,1.21.18,1.65-.12.22-.15.32-.33.31-.5s-.14-.34-.38-.45c-.47-.23-1.21-.18-1.65.12Z"/>
          <path class="cls-4" d="M23.98,3.87c-.28,0-.55-.05-.77-.16-.29-.14-.46-.35-.47-.6-.02-.25.12-.48.38-.66.49-.33,1.29-.39,1.82-.13.29.14.46.35.47.6.02.24-.12.48-.38.66-.28.19-.67.29-1.05.29ZM24.17,2.51c-.31,0-.63.08-.86.23h0c-.15.1-.24.23-.23.34,0,.11.11.22.28.31.42.2,1.09.15,1.48-.1.15-.1.24-.23.23-.34,0-.11-.11-.23-.28-.31-.17-.08-.39-.13-.62-.13Z"/>
        </g>
      </g>
    </g>
  </g>
</svg>