<?xml version="1.0" encoding="UTF-8"?>
<svg id="_圖層_1" data-name="圖層 1" xmlns="http://www.w3.org/2000/svg" viewBox="0 0 50 68">
  <defs>
    <style>
      .cls-1 {
        fill: #a33015;
      }

      .cls-1, .cls-2, .cls-3, .cls-4, .cls-5 {
        stroke-width: 0px;
      }

      .cls-6 {
        opacity: .2;
      }

      .cls-2 {
        fill: #e3e2e1;
      }

      .cls-3 {
        fill: #500f0f;
      }

      .cls-7 {
        opacity: .4;
      }

      .cls-8 {
        opacity: .3;
      }

      .cls-9 {
        opacity: .1;
      }

      .cls-4 {
        fill: #fff;
      }

      .cls-5 {
        fill: #d13a15;
      }
    </style>
  </defs>
  <g class="cls-9">
    <ellipse class="cls-3" cx="24.88" cy="59.44" rx="11.57" ry="5.75"/>
  </g>
  <g>
    <g>
      <path class="cls-4" d="M25,62.77c-5.87,0-10.46-2.62-10.46-5.96s4.6-5.96,10.46-5.96,10.46,2.62,10.46,5.96-4.6,5.96-10.46,5.96ZM25,51.8c-5.15,0-9.51,2.29-9.51,5.01s4.35,5.01,9.51,5.01,9.51-2.29,9.51-5.01-4.35-5.01-9.51-5.01Z"/>
      <g>
        <polyline class="cls-1" points="15.1 57.7 11.71 16.29 38.29 16.29 34.76 55.85"/>
        <path class="cls-3" d="M35.99,16.29c-1.76,5.41-2.05,11.05-2.28,16.77-.21,5.36-.4,11.46-3.28,16.19-1.22,2.01-3,3.93-5.41,4.4-2.39.47-4.78-.08-6.82-1.4-1.7-1.1-2.89-2.56-3.89-4.17l.79,9.61,17.46.42.99-1.73,1.69-1.45,3.05-38.65h-2.3Z"/>
      </g>
      <g>
        <path class="cls-4" d="M25,57.63c-4,0-8.17-2.02-9.77-3.88-.61.71-.22,2.23-.22,3.06,0,3.03,4.47,5.49,9.99,5.49s9.99-2.46,9.99-5.49c0-.83.72-2.68.11-3.39-1.6,1.86-6.1,4.21-10.1,4.21Z"/>
        <polygon class="cls-4" points="14.62 57.74 11.19 15.82 38.81 15.82 35.46 56.85 34.51 56.77 37.77 16.77 12.23 16.77 15.57 57.66 14.62 57.74"/>
        <path class="cls-2" d="M38.62,17.66l.05-1.71c-2.75-7.5-11.72-7.06-13.49-6.9-1.72-.16-10.26-.57-13.25,6.31,8.28,1.37,16.56,2.66,24.86,3.9.58-.58,1.19-1.11,1.83-1.6Z"/>
        <path class="cls-2" d="M38.62,17.66l.05-1.71c-2.75-7.5-11.72-7.06-13.49-6.9-1.72-.16-12.57,0-13.66,7.77,5.6,10.1,16.98,1.2,25.27,2.44.58-.58,1.19-1.11,1.83-1.6Z"/>
      </g>
    </g>
    <g>
      <ellipse class="cls-3" cx="24.92" cy="17.16" rx="12.64" ry="6.4"/>
      <g>
        <g>
          <path class="cls-1" d="M14.61,16.48s2.84,2.84,5.2,2.72c2.37-.12,6.27-1.3,6.39-1.89.12-.59-2.25-3.93-4.61-3.9-3.25.04-6.98,1.18-6.98,3.08Z"/>
          <path class="cls-5" d="M16.97,15.87s1.97,2.87,2.6,2.72c2.31-.53,6.52-.69,6.64-1.28.12-.59-2.05-3.5-4.42-3.47-3.25.04-4.81,1.08-4.81,2.03Z"/>
          <g class="cls-7">
            <polygon class="cls-1" points="14.61 16.48 14.94 20.86 19.6 23.14 25.61 23.14 26.2 17.31 18.98 19.2 14.61 16.48"/>
          </g>
          <g class="cls-7">
            <polygon class="cls-1" points="18.46 22.52 25.61 23.14 26.2 17.31 18.98 19.2 18.46 22.52"/>
          </g>
        </g>
        <g>
          <path class="cls-5" d="M26.91,16.51s1.79-3.5,3.5-3.5,4.9,2.1,5.44,2.56c.54.47-2.25,3.26-2.25,3.26,0,0-3.89-.31-6.68-2.33Z"/>
          <path class="cls-1" d="M35.85,15.57c-.12-.1-.38-.29-.72-.51-.42.95-2.24,2.77-2.24,2.77,0,0-3.1-.25-5.75-1.74-.15.26-.23.42-.23.42,2.8,2.02,6.68,2.33,6.68,2.33,0,0,2.8-2.8,2.25-3.26Z"/>
          <g class="cls-7">
            <polygon class="cls-1" points="26.91 16.51 27.37 20.86 33.28 22.72 35.97 20.24 35.85 15.57 33.5 18.87 26.91 16.51"/>
          </g>
          <g class="cls-7">
            <polygon class="cls-1" points="33.28 22.72 35.97 20.24 35.85 15.57 33.5 18.87 33.28 22.72"/>
          </g>
        </g>
        <g>
          <ellipse class="cls-1" cx="26.65" cy="13.45" rx="1.24" ry=".57"/>
          <path class="cls-1" d="M23.44,12.26c0,.11.39.21.88.21s.88-.09.88-.21-.39-.21-.88-.21-.88.09-.88.21Z"/>
          <ellipse class="cls-1" cx="26.65" cy="11.74" rx=".62" ry=".21"/>
          <path class="cls-1" d="M27.79,22.26c0,.09.19.16.41.16s.41-.07.41-.16-.19-.16-.41-.16-.41.07-.41.16Z"/>
          <path class="cls-1" d="M17.12,12.62c0,.14.3.26.67.26s.67-.12.67-.26-.3-.26-.67-.26-.67.12-.67.26Z"/>
          <path class="cls-1" d="M16.18,13.4c0,.06.14.1.31.1s.31-.05.31-.1-.14-.1-.31-.1-.31.05-.31.1Z"/>
        </g>
      </g>
    </g>
    <g>
      <g>
        <g>
          <path class="cls-4" d="M25,57.63c-4,0-8.17-2.02-9.77-3.88-.61.71-.22,2.23-.22,3.06,0,3.03,4.47,5.49,9.99,5.49s9.99-2.46,9.99-5.49c0-.83.72-2.68.11-3.39-1.6,1.86-6.1,4.21-10.1,4.21Z"/>
          <g>
            <line class="cls-4" x1="15.1" y1="57.7" x2="11.71" y2="16.29"/>
            <rect class="cls-4" x="12.93" y="16.22" width=".95" height="41.54" transform="translate(-2.97 1.21) rotate(-4.67)"/>
          </g>
          <g class="cls-6">
            <path class="cls-4" d="M38.13,17.43c-1,3.49-6.49,6.16-13.13,6.16-7.29,0-13.21-3.23-13.29-7.22h-.08l3.19,39.02c.01.25.04.51.06.75l.05.6c0,.05,0,.1,0,.15,0,.2.02.39.06.58l.03.31h.05c.77,2.61,4.89,4.6,9.85,4.6,5.51,0,9.99-2.46,9.99-5.49h0s.03-.34.03-.34c.11-.81.5-2.07.23-2.79l2.96-36.32Z"/>
          </g>
        </g>
        <g>
          <g class="cls-8">
            <polygon class="cls-4" points="17.38 59.41 14.86 21.33 21.31 23.35 24.58 23.81 23.26 60.73 17.38 59.41"/>
          </g>
          <g class="cls-8">
            <polygon class="cls-4" points="19.2 59.85 16.65 22.03 21.31 23.35 21.14 60.15 19.2 59.85"/>
          </g>
        </g>
      </g>
      <path class="cls-4" d="M25,24.23c-7.81,0-13.92-3.49-13.92-7.93s6.12-7.93,13.92-7.93,13.92,3.49,13.92,7.93-6.12,7.93-13.92,7.93ZM25,9.63c-6.86,0-12.65,3.05-12.65,6.66s5.79,6.66,12.65,6.66,12.65-3.05,12.65-6.66-5.79-6.66-12.65-6.66Z"/>
    </g>
  </g>
</svg>