<?xml version="1.0" encoding="UTF-8"?>
<svg id="_圖層_1" data-name="圖層 1" xmlns="http://www.w3.org/2000/svg" viewBox="0 0 50 68">
  <defs>
    <style>
      .cls-1 {
        opacity: .5;
      }

      .cls-2 {
        fill: #dd7330;
      }

      .cls-2, .cls-3, .cls-4, .cls-5, .cls-6, .cls-7, .cls-8, .cls-9 {
        stroke-width: 0px;
      }

      .cls-3 {
        fill: #e3e2e1;
      }

      .cls-4 {
        fill: #f6ad7e;
      }

      .cls-5 {
        fill: #500f0f;
      }

      .cls-6 {
        fill: #e3a272;
      }

      .cls-7 {
        fill: #f6f6f6;
      }

      .cls-10 {
        opacity: .1;
      }

      .cls-8 {
        fill: #fff;
      }

      .cls-9 {
        fill: #efeff0;
      }
    </style>
  </defs>
  <g class="cls-10">
    <ellipse class="cls-5" cx="25" cy="52.35" rx="24.62" ry="12.84"/>
  </g>
  <g>
    <g>
      <g>
        <ellipse class="cls-7" cx="24.84" cy="47.38" rx="23.18" ry="13.78"/>
        <path class="cls-8" d="M24.84,61.65c-13.05,0-23.67-6.4-23.67-14.27s10.62-14.27,23.67-14.27,23.67,6.4,23.67,14.27-10.62,14.27-23.67,14.27ZM24.84,34.09c-12.51,0-22.68,5.96-22.68,13.28s10.18,13.28,22.68,13.28,22.68-5.96,22.68-13.28-10.18-13.28-22.68-13.28Z"/>
      </g>
      <g>
        <ellipse class="cls-3" cx="24.57" cy="47.84" rx="15.29" ry="9.09"/>
        <ellipse class="cls-3" cx="24.57" cy="47.84" rx="15.29" ry="9.09"/>
      </g>
    </g>
    <g>
      <g>
        <path class="cls-8" d="M39.59,33.79s-.75-1.91.66-2.66c1.42-.76,6.43-1.13,7.94,1.04,1.51,2.17,1.23,6.14-1.7,7.47-2.93,1.32-7.18.09-7.84,3.12-.66,3.02-4.44,1.89-3.4-.38,1.04-2.27,3.02-4.63,6.99-4.82,3.97-.19,4.42-2.05,3.81-3.18-1.45-2.7-6.08,1.31-6.46-.58Z"/>
        <path class="cls-9" d="M48.82,33.47c.26,1.95-.55,5.53-5.26,5.57-4.39.04-6.62,2.75-7.82,5.27.92.58,2.5.29,2.91-1.56.66-3.02,4.91-1.8,7.84-3.12,2.41-1.09,3.03-3.96,2.33-6.16Z"/>
        <path class="cls-9" d="M46.05,33.21c-1.93-1.16-4.34.77-4.34.77,0,0,0,.01-.01.02,1.54-.49,3.5-1.23,4.35.36.51.95.27,2.41-2.17,2.97,3.29-.23,4.01-3.02,2.17-4.13Z"/>
        <path class="cls-8" d="M39.59,33.79s-.75-1.91.66-2.66c1.42-.76,6.43-1.13,7.94,1.04,1.51,2.17,1.23,6.14-1.7,7.47-2.93,1.32-7.18.09-7.84,3.12-.66,3.02-4.44,1.89-3.4-.38,1.04-2.27,3.02-4.63,6.99-4.82,3.97-.19,4.42-2.05,3.81-3.18-1.45-2.7-6.08,1.31-6.46-.58Z"/>
        <path class="cls-9" d="M48.82,33.47c.26,1.95-.55,5.53-5.26,5.57-4.39.04-6.62,2.75-7.82,5.27.92.58,2.5.29,2.91-1.56.66-3.02,4.91-1.8,7.84-3.12,2.41-1.09,3.03-3.96,2.33-6.16Z"/>
        <path class="cls-9" d="M46.05,33.21c-1.93-1.16-4.34.77-4.34.77,0,0,0,.01-.01.02,1.54-.49,3.5-1.23,4.35.36.51.95.27,2.41-2.17,2.97,3.29-.23,4.01-3.02,2.17-4.13Z"/>
      </g>
      <g>
        <path class="cls-7" d="M40.98,29.48l.07-2.29c-3.16-8.61-13.46-8.11-15.48-7.92-2.02-.19-12.32-.68-15.48,7.92l-.4.89s-.58,2.25,1.94,11.36c1.24,4.46,2.42,8.92,2.42,8.92,0,0,3.43,4.22,11.16,4.53v.02c.12,0,.23,0,.35,0,.12,0,.23,0,.35,0v-.02c9.23.02,11.44-5.44,11.44-5.44l3.61-17.97Z"/>
        <path class="cls-7" d="M40.99,29.15l.05-1.96c-3.16-8.61-13.46-8.11-15.48-7.92-1.97-.18-11.77-.65-15.21,7.25,9.5,1.57,19.01,3.05,28.53,4.48.66-.66,1.37-1.27,2.1-1.84Z"/>
      </g>
      <path class="cls-9" d="M11.51,24.46c-.56.79-1.05,1.69-1.43,2.73l-.4.89s-.58,2.25,1.94,11.36c1.24,4.46,2.42,8.92,2.42,8.92,0,0,1.35,1.66,4.26,2.98-6.06-19.79-3.4-24.79-3.4-24.79l-3.4-2.08Z"/>
      <g>
        <g>
          <ellipse class="cls-2" cx="25.27" cy="28.58" rx="14.51" ry="7.34"/>
          <g>
            <g class="cls-1">
              <ellipse class="cls-6" cx="24.97" cy="27.98" rx="11.71" ry="5.89"/>
            </g>
            <path class="cls-4" d="M17.87,25.13s-3.04.98-2.94,3.19c.13,3.14,10.41,6.11,17.02,3.19,6.61-2.93,2.94-6.54-2.01-7.58,0,0-2.51-.34-3.59-.17,0,0,3.52.09,4.09,1.98s-1.29,2.67-1.01,3.7c0,0-.43-.86.14-1.72.57-.86-.43-3.27-3.09-3.44,0,0,1.29.69.93,1.64s-1.29.86-1.08,1.55c0,0-.22-.6.22-1.29.43-.69-.36-1.89-2.15-2.41,0,0,.22.86-.36,1.03-.57.17-.29,1.03-.29,1.03,0,0-.14-3.7-3.81-3.01,0,0-.43,1.98,3.16,3.19,0,0-3.09.17-3.88-.95,0,0-.93.26-.29,1.12.65.86,2.87,1.46,4.52,1.38,1.65-.09,2.15.52,2.15.52,0,0-4.95.78-6.96-1.38,0,0-.57,2.5,3.02,2.76,3.59.26,5.82-.86,6.82.43,0,0-.72-.26-2.44,0-1.72.26-9.76.52-8.19-4.74Z"/>
          </g>
        </g>
        <path class="cls-8" d="M25.36,36.57c-8.89,0-15.86-3.95-15.86-8.99s6.97-8.99,15.86-8.99,15.86,3.95,15.86,8.99-6.97,8.99-15.86,8.99ZM25.36,19.82c-8.07,0-14.64,3.48-14.64,7.77s6.57,7.77,14.64,7.77,14.64-3.48,14.64-7.77-6.57-7.77-14.64-7.77Z"/>
      </g>
    </g>
  </g>
</svg>