<?xml version="1.0" encoding="UTF-8"?>
<svg id="_圖層_1" data-name="圖層 1" xmlns="http://www.w3.org/2000/svg" viewBox="0 0 50 68">
  <defs>
    <style>
      .cls-1 {
        fill: #a5db29;
      }

      .cls-1, .cls-2, .cls-3, .cls-4, .cls-5, .cls-6, .cls-7 {
        stroke-width: 0px;
      }

      .cls-2 {
        fill: #500f0f;
      }

      .cls-3 {
        fill: #e2e2e2;
      }

      .cls-8 {
        opacity: .1;
      }

      .cls-4 {
        fill: #efefef;
      }

      .cls-5 {
        fill: #7abf1c;
      }

      .cls-6 {
        fill: #fff;
      }

      .cls-7 {
        fill: #6d9e18;
      }
    </style>
  </defs>
  <g class="cls-8">
    <ellipse class="cls-2" cx="25" cy="54.65" rx="22.36" ry="10.54"/>
  </g>
  <g>
    <g>
      <g>
        <ellipse class="cls-4" cx="25" cy="51.63" rx="20.58" ry="9.73"/>
        <path class="cls-6" d="M25,61.91c-11.85,0-21.13-4.52-21.13-10.28s9.28-10.28,21.13-10.28,21.13,4.52,21.13,10.28-9.28,10.28-21.13,10.28ZM25,42.45c-11.05,0-20.03,4.12-20.03,9.18s8.99,9.18,20.03,9.18,20.03-4.12,20.03-9.18-8.99-9.18-20.03-9.18Z"/>
      </g>
      <ellipse class="cls-3" cx="24.76" cy="51.96" rx="13.58" ry="6.42"/>
    </g>
    <g>
      <g>
        <path class="cls-4" d="M41.1,36.11H10.05s-1.17,18.15,15.51,18.73h0s0,0,0,0c0,0,0,0,0,0h0c16.68-.58,15.51-18.73,15.51-18.73Z"/>
        <path class="cls-3" d="M41.16,37.04l.05-1.55c-3.13-6.8-13.36-6.41-15.36-6.26-1.95-.14-16.32.5-14.77,8.12,9.43,1.24,18.55.02,28,1.15.66-.52,1.36-1,2.09-1.45Z"/>
      </g>
      <g>
        <g>
          <g>
            <ellipse class="cls-5" cx="25.55" cy="36.59" rx="14.4" ry="5.8"/>
            <path class="cls-7" d="M37.31,33.24c.97.78,1.52,1.66,1.52,2.6,0,3.2-6.45,5.8-14.4,5.8-4.85,0-9.15-.97-11.75-2.45,2.37,1.9,7.24,3.2,12.87,3.2,7.95,0,14.4-2.6,14.4-5.8,0-1.25-.98-2.4-2.65-3.35Z"/>
          </g>
          <g>
            <path class="cls-1" d="M21.13,38.49c0-1.8,3.65-3.27,8.16-3.27,3.23,0,6.03.75,7.35,1.84.16-.31.24-.63.24-.95,0-2.57-5.2-4.65-11.62-4.65s-11.62,2.08-11.62,4.65c0,2.3,4.17,4.21,9.65,4.58-1.34-.58-2.15-1.36-2.15-2.21Z"/>
            <path class="cls-5" d="M24.89,33.75c0,.3-.6.54-1.35.54s-1.35-.24-1.35-.54.6-.54,1.35-.54,1.35.24,1.35.54Z"/>
            <path class="cls-5" d="M19.11,34.41c0,.17-.34.3-.76.3s-.76-.14-.76-.3.34-.3.76-.3.76.14.76.3Z"/>
            <path class="cls-5" d="M24.12,35.64c0,.14-.28.25-.62.25s-.62-.11-.62-.25.28-.25.62-.25.62.11.62.25Z"/>
            <path class="cls-5" d="M28.73,33.77c0,.14-.28.25-.62.25s-.62-.11-.62-.25.28-.25.62-.25.62.11.62.25Z"/>
            <ellipse class="cls-5" cx="26.58" cy="34.58" rx=".85" ry=".34"/>
            <ellipse class="cls-5" cx="31.81" cy="34.15" rx="1.47" ry=".59"/>
            <path class="cls-5" d="M20.05,37.92c0,.15-.3.27-.67.27s-.67-.12-.67-.27.3-.27.67-.27.67.12.67.27Z"/>
            <path class="cls-5" d="M19.11,36.69c0,.32-.66.59-1.47.59s-1.47-.26-1.47-.59.66-.59,1.47-.59,1.47.26,1.47.59Z"/>
            <path class="cls-1" d="M26.65,37.72c-.08.57,1.2,1.15,2.85,1.28,1.65.14,3.05-.21,3.13-.78.08-.57-1.2-1.15-2.85-1.28-1.65-.14-3.05.21-3.13.78Z"/>
          </g>
          <ellipse class="cls-5" cx="28.03" cy="32.5" rx=".94" ry=".38"/>
        </g>
        <path class="cls-6" d="M25.64,43.16c-8.9,0-15.87-3.23-15.87-7.35s6.97-7.35,15.87-7.35,15.87,3.23,15.87,7.35-6.97,7.35-15.87,7.35ZM25.64,29.91c-8.62,0-14.41,3.05-14.41,5.89s5.79,5.89,14.41,5.89,14.41-3.05,14.41-5.89-5.79-5.89-14.41-5.89Z"/>
      </g>
    </g>
  </g>
</svg>