<svg fill="none" height="24" viewBox="0 0 24 24" width="24" xmlns="http://www.w3.org/2000/svg"><path d="m10.659.0905283c.1039-.0593247.2214-.0905283.341-.0905283s.2371.0312036.341.0905283l5.1563 2.9466217c.1052.06011.1926.14696.2535.25176.0608.10479.0929.22381.093.34499v5.49313l4.8097 2.74997c.1048.0599.192.1463.2529.2506.0608.1043.0931.2227.0936.3434v5.8933c0 .1212-.0321.2402-.093.345-.0608.1048-.1483.1916-.2535.2517l-5.1562 2.9467c-.1039.0593-.2214.0905-.3411.0905-.1196 0-.2371-.0312-.341-.0905l-4.8152-2.75-4.81525 2.7513c-.10386.0594-.22139.0906-.341.0906s-.23714-.0312-.341-.0906l-5.15625-2.9466c-.105225-.0601-.192693-.147-.2535424-.2518-.0608496-.1047-.09291851-.2238-.0929576-.3449v-5.8933c.00003909-.1212.032108-.2402.0929576-.345.0608494-.1048.1483174-.1916.2535424-.2517l4.80975-2.74867v-5.49313c.00004-.12118.03211-.2402.09296-.34499.06085-.1048.14831-.19165.25354-.25176zm-4.81525 10.2272717-3.77025 2.1546 3.77025 2.1546 3.77025-2.1546zm4.46875 3.3399-3.78125 2.1601v4.3092l3.78125-2.1601zm1.375 4.3092 3.7813 2.1601v-4.3092l-3.7813-2.1601zm.6985-5.4945 3.7702 2.1546 3.7703-2.1546-3.7703-2.1546zm3.0828-3.34537v-4.30925l-3.7813 2.1615v4.30922zm-5.1563 2.16147v-4.30922l-3.78125-2.1615v4.30925zm-3.08275-7.6546 3.77025 2.15463 3.7703-2.15463-3.7703-2.15462zm13.39525 10.0238-3.7812 2.1601v4.3092l3.7812-2.1601zm-15.46875 6.4693v-4.3092l-3.78125-2.1601v4.3092z" fill="#888"/></svg>