<?xml version="1.0" encoding="UTF-8"?>
<svg id="_圖層_1" data-name="圖層 1" xmlns="http://www.w3.org/2000/svg" viewBox="0 0 50 68">
  <defs>
    <style>
      .cls-1 {
        fill: #a33015;
      }

      .cls-1, .cls-2, .cls-3, .cls-4, .cls-5, .cls-6 {
        stroke-width: 0px;
      }

      .cls-7 {
        opacity: .5;
      }

      .cls-2 {
        fill: #e3e2e1;
      }

      .cls-3 {
        fill: #500f0f;
      }

      .cls-8 {
        opacity: .3;
      }

      .cls-4 {
        fill: #f6f6f6;
      }

      .cls-9 {
        opacity: .1;
      }

      .cls-5 {
        fill: #fff;
      }

      .cls-6 {
        fill: #efeff0;
      }
    </style>
  </defs>
  <g class="cls-9">
    <ellipse class="cls-3" cx="25" cy="52.29" rx="24.74" ry="12.91"/>
  </g>
  <g>
    <g>
      <g>
        <ellipse class="cls-4" cx="25.14" cy="48.04" rx="23.29" ry="13.84"/>
        <path class="cls-5" d="M25.14,62.38c-13.11,0-23.78-6.43-23.78-14.34s10.67-14.34,23.78-14.34,23.78,6.43,23.78,14.34-10.67,14.34-23.78,14.34ZM25.14,34.69c-12.57,0-22.79,5.99-22.79,13.35s10.23,13.35,22.79,13.35,22.79-5.99,22.79-13.35-10.23-13.35-22.79-13.35Z"/>
      </g>
      <g>
        <ellipse class="cls-2" cx="24.87" cy="48.5" rx="15.37" ry="9.13"/>
        <ellipse class="cls-2" cx="24.87" cy="48.5" rx="15.37" ry="9.13"/>
      </g>
    </g>
    <g>
      <path class="cls-5" d="M39.96,34.38s-.76-1.92.67-2.68c1.42-.76,6.46-1.14,7.98,1.04,1.52,2.18,1.23,6.17-1.71,7.5-2.94,1.33-7.22.09-7.88,3.13-.66,3.04-4.46,1.9-3.42-.38,1.04-2.28,3.04-4.65,7.03-4.84,3.99-.19,4.44-2.06,3.83-3.2-1.45-2.71-6.11,1.32-6.49-.58Z"/>
      <path class="cls-6" d="M49.24,34.07c.26,1.95-.55,5.56-5.29,5.6-4.41.04-6.66,2.77-7.86,5.29.92.58,2.51.29,2.92-1.57.66-3.04,4.94-1.8,7.88-3.13,2.42-1.09,3.04-3.98,2.34-6.18Z"/>
      <path class="cls-6" d="M46.46,33.8c-1.94-1.16-4.36.78-4.36.78,0,0,0,.01-.01.02,1.55-.49,3.52-1.23,4.37.37.51.95.27,2.42-2.18,2.98,3.3-.23,4.03-3.03,2.18-4.15Z"/>
      <path class="cls-5" d="M39.96,34.38s-.76-1.92.67-2.68c1.42-.76,6.46-1.14,7.98,1.04,1.52,2.18,1.23,6.17-1.71,7.5-2.94,1.33-7.22.09-7.88,3.13-.66,3.04-4.46,1.9-3.42-.38,1.04-2.28,3.04-4.65,7.03-4.84,3.99-.19,4.44-2.06,3.83-3.2-1.45-2.71-6.11,1.32-6.49-.58Z"/>
      <path class="cls-6" d="M49.24,34.07c.26,1.95-.55,5.56-5.29,5.6-4.41.04-6.66,2.77-7.86,5.29.92.58,2.51.29,2.92-1.57.66-3.04,4.94-1.8,7.88-3.13,2.42-1.09,3.04-3.98,2.34-6.18Z"/>
      <path class="cls-6" d="M46.46,33.8c-1.94-1.16-4.36.78-4.36.78,0,0,0,.01-.01.02,1.55-.49,3.52-1.23,4.37.37.51.95.27,2.42-2.18,2.98,3.3-.23,4.03-3.03,2.18-4.15Z"/>
    </g>
    <path class="cls-4" d="M41.36,30.05l.07-2.3c-3.17-8.65-13.52-8.15-15.55-7.96-2.03-.19-12.38-.69-15.55,7.96l-.4.89s-.59,2.26,1.95,11.41c1.24,4.48,2.44,8.97,2.44,8.97,0,0,3.45,4.25,11.22,4.56v.02c.12,0,.24,0,.35,0,.12,0,.23,0,.35,0v-.02c9.27.02,11.5-5.47,11.5-5.47l3.63-18.06Z"/>
    <path class="cls-6" d="M14.84,22.09c-1.89,1.2-3.55,3-4.52,5.66l-.4.89s-.59,2.26,1.95,11.41c1.24,4.48,2.44,8.97,2.44,8.97,0,0,1.17,1.43,3.66,2.69-1.49-7.94-2.7-23.66-3.13-29.63Z"/>
    <path class="cls-2" d="M41.38,29.72l.05-1.97c-3.17-8.65-13.52-8.15-15.55-7.96-1.98-.18-11.83-.66-15.28,7.28,9.54,1.58,19.1,3.07,28.67,4.5.67-.66,1.37-1.28,2.11-1.85Z"/>
    <g>
      <g>
        <g>
          <ellipse class="cls-3" cx="25.58" cy="29.15" rx="14.58" ry="7.37"/>
          <g class="cls-7">
            <path class="cls-1" d="M37.47,24.89c.99.99,1.54,2.11,1.54,3.3,0,4.07-6.53,7.37-14.58,7.37-4.91,0-9.26-1.23-11.9-3.12,2.39,2.41,7.33,4.07,13.03,4.07,8.05,0,14.58-3.3,14.58-7.37,0-1.59-.99-3.05-2.68-4.26Z"/>
          </g>
        </g>
        <g>
          <g class="cls-7">
            <path class="cls-1" d="M21.1,31.57c0-2.29,3.7-4.15,8.26-4.15,3.27,0,6.1.96,7.44,2.34.16-.39.25-.8.25-1.21,0-3.27-5.27-5.91-11.77-5.91s-11.77,2.65-11.77,5.91c0,2.92,4.22,5.35,9.77,5.83-1.35-.74-2.18-1.73-2.18-2.81Z"/>
          </g>
          <path class="cls-3" d="M24.9,25.53c0,.38-.61.69-1.36.69s-1.36-.31-1.36-.69.61-.69,1.36-.69,1.36.31,1.36.69Z"/>
          <path class="cls-3" d="M19.06,26.37c0,.21-.34.39-.77.39s-.77-.17-.77-.39.34-.39.77-.39.77.17.77.39Z"/>
          <g class="cls-8">
            <path class="cls-3" d="M24.13,27.94c0,.17-.28.31-.62.31s-.62-.14-.62-.31.28-.31.62-.31.62.14.62.31Z"/>
          </g>
          <g class="cls-8">
            <path class="cls-3" d="M28.79,25.56c0,.17-.28.31-.62.31s-.62-.14-.62-.31.28-.31.62-.31.62.14.62.31Z"/>
          </g>
          <ellipse class="cls-3" cx="26.62" cy="26.59" rx=".86" ry=".43"/>
          <ellipse class="cls-3" cx="31.9" cy="26.05" rx="1.48" ry=".75"/>
          <path class="cls-3" d="M20.01,30.84c0,.19-.3.34-.68.34s-.68-.15-.68-.34.3-.34.68-.34.68.15.68.34Z"/>
          <ellipse class="cls-3" cx="17.57" cy="29.27" rx="1.48" ry=".75"/>
          <g class="cls-7">
            <path class="cls-1" d="M26.69,30.58c-.08.73,1.22,1.46,2.89,1.63,1.67.18,3.09-.27,3.16-.99s-1.22-1.46-2.89-1.63c-1.67-.18-3.09.27-3.16.99Z"/>
          </g>
        </g>
        <ellipse class="cls-3" cx="28.08" cy="23.95" rx=".95" ry=".48"/>
      </g>
      <path class="cls-5" d="M25.66,37.15c-8.92,0-15.91-3.95-15.91-9s6.99-9,15.91-9,15.91,3.95,15.91,9-6.99,9-15.91,9ZM25.66,20.32c-8.13,0-14.74,3.51-14.74,7.83s6.61,7.83,14.74,7.83,14.74-3.51,14.74-7.83-6.61-7.83-14.74-7.83Z"/>
    </g>
  </g>
</svg>