<svg fill="none" height="24" viewBox="0 0 24 24" width="24" xmlns="http://www.w3.org/2000/svg" xmlns:xlink="http://www.w3.org/1999/xlink"><clipPath id="a"><path d="m0 2h24v19.5h-24z"/></clipPath><g clip-path="url(#a)"><path d="m23.3189 10.3876c-.8644-1.51956-2.4326-2.48825-4.4171-2.73157-1.9076-.23414-3.9872.24102-5.8518 1.33367-.0588.03443-.1177.06886-.1765.10559-.0928-.39023-.2082-.78046-.3462-1.16151-.7377-2.05444-2.0298-3.77145-3.63872-4.83655-1.67226-1.10871-3.48708-1.38876-5.11408-.78735-1.62474.59912-2.837643 1.99706-3.416938 3.93673-.558929 1.86622-.459363 4.02399.27607 6.07839.737698 2.0545 2.029798 3.7715 3.638698 4.8366 1.09523.7253 2.25382 1.0949 3.37846 1.0949.396 0 .78522-.0459 1.16991-.1377.08372.202.17876.3994.28738.5899.86442 1.5196 2.43262 2.4883 4.41712 2.7316.3191.039.6404.0574.9662.0574 1.6293 0 3.331-.4798 4.8856-1.3911 1.8669-1.0926 3.3083-2.6811 4.0641-4.4738.7852-1.8639.74-3.7256-.1245-5.2452zm-18.60531-6.8726c1.08391-.24102 2.27644.02755 3.40562.77587 1.35546.89753 2.45299 2.36433 3.08659 4.12955.1855.51418.3236 1.03985.4163 1.5678-.9029.75058-1.65187 1.62978-2.19722 2.58928-.47973-1.2304-1.32604-2.2978-2.45747-3.04837-1.43693-.95032-2.2855-2.55715-2.2674-4.29941l.01584-1.71931zm.32811 12.4506c-1.35546-.8975-2.45295-2.3643-3.08655-4.1295-.63361-1.7652-.72412-3.60391-.25344-5.17631.31906-1.06968.87346-1.91901 1.59985-2.4791l-.00906 1.03985c-.02036 2.2289 1.06582 4.28793 2.90553 5.50686 1.43692.9503 2.2855 2.5571 2.2674 4.2994l-.00453.4384c-.04526.4339-.043.8608.00679 1.2763-1.08844.2479-2.28776-.0184-3.42372-.7713zm5.2363-1.9419c.6359-1.5105 1.8691-2.8602 3.4735-3.799 1.3419-.78509 2.7969-1.20057 4.1795-1.20057.2716 0 .5386.01607.8011.0482 1.0929.13314 2.0139.53944 2.686 1.16607l-1.0092.1699c-2.1679.365-3.9782 1.8088-4.8426 3.8587-.6743 1.5999-2.0864 2.727-3.779 3.0116l-1.67.2824c-.42314-1.0399-.36883-2.2771.1607-3.5373zm11.871 1.049c-.6359 1.5104-1.8691 2.8601-3.4735 3.799-1.6044.9388-3.3739 1.3474-4.9806 1.1523-1.0929-.1331-2.0139-.5394-2.686-1.1661l1.0092-.1699c2.1679-.3649 3.9782-1.8088 4.8426-3.8586.6743-1.6 2.0863-2.727 3.779-3.0117l1.67-.2823c.4231 1.0398.3688 2.2771-.1607 3.5373z" fill="#2f7262"/></g></svg>