<?xml version="1.0" encoding="UTF-8"?>
<svg id="_圖層_1" data-name="圖層 1" xmlns="http://www.w3.org/2000/svg" viewBox="0 0 50 68">
  <defs>
    <style>
      .cls-1 {
        fill: #bbbcbe;
      }

      .cls-1, .cls-2, .cls-3, .cls-4, .cls-5, .cls-6, .cls-7, .cls-8, .cls-9, .cls-10, .cls-11, .cls-12, .cls-13, .cls-14, .cls-15, .cls-16, .cls-17, .cls-18 {
        stroke-width: 0px;
      }

      .cls-2 {
        fill: #d2ac6b;
      }

      .cls-3 {
        fill: #f0ecea;
      }

      .cls-4 {
        fill: #5e0b0b;
      }

      .cls-5 {
        fill: #cfcfd1;
      }

      .cls-6 {
        fill: #dfdfe0;
      }

      .cls-7 {
        fill: #ccccce;
      }

      .cls-8 {
        fill: #500f0f;
      }

      .cls-9 {
        fill: #ebeaed;
      }

      .cls-10 {
        fill: #b7bec0;
      }

      .cls-11 {
        fill: #d69e64;
      }

      .cls-12 {
        fill: #c3cacc;
      }

      .cls-19 {
        opacity: .1;
      }

      .cls-13 {
        fill: #aaaaac;
      }

      .cls-14 {
        fill: #d7d7d9;
      }

      .cls-15 {
        fill: #470707;
      }

      .cls-16 {
        fill: #d9b680;
      }

      .cls-17 {
        fill: #d1d1d4;
      }

      .cls-18 {
        fill: #eae7ee;
      }
    </style>
  </defs>
  <g class="cls-19">
    <path class="cls-8" d="M41.37,57.14c0,4.45-7.33,8.05-16.37,8.05s-16.37-3.61-16.37-8.05,7.33-8.05,16.37-8.05,16.37,3.61,16.37,8.05"/>
  </g>
  <g>
    <path class="cls-5" d="M9.88,53.21v1.44c0,3.71,6.77,7.41,15.13,7.41s15.13-3.55,15.13-7.41v-1.44H9.88Z"/>
    <path class="cls-6" d="M40.13,53.21c0,4.59-6.77,8.31-15.13,8.31s-15.13-3.72-15.13-8.31,6.77-8.32,15.13-8.32,15.13,3.72,15.13,8.32Z"/>
    <path class="cls-2" d="M39.25,52.81h-.11c0,1-.39,1.95-1.09,2.82-1.06,1.31-2.85,2.44-5.11,3.24-2.26.8-4.99,1.26-7.93,1.26-3.92,0-7.47-.83-10.03-2.17-1.28-.67-2.31-1.46-3.02-2.34-.71-.87-1.09-1.83-1.09-2.82,0-1,.39-1.95,1.09-2.82,1.06-1.31,2.85-2.44,5.11-3.24,2.26-.8,4.99-1.26,7.93-1.26,3.92,0,7.47.83,10.03,2.17,1.28.67,2.31,1.46,3.02,2.34.71.87,1.09,1.83,1.09,2.82h.23c0-1.06-.41-2.06-1.15-2.97-1.1-1.36-2.93-2.5-5.21-3.31-2.29-.81-5.04-1.28-8.01-1.28-3.95,0-7.53.84-10.13,2.19-1.3.68-2.36,1.49-3.09,2.39-.73.91-1.15,1.91-1.15,2.97,0,1.06.41,2.06,1.15,2.97,1.1,1.36,2.93,2.5,5.21,3.31,2.29.81,5.04,1.28,8.01,1.28,3.95,0,7.53-.84,10.13-2.19,1.3-.68,2.36-1.49,3.09-2.39.73-.91,1.15-1.91,1.15-2.97h-.11Z"/>
    <path class="cls-18" d="M39.2,50.33c.32.68.5,1.39.5,2.12,0,4.59-6.77,8.32-15.13,8.32-6.51,0-12.07-2.26-14.2-5.44,1.7,3.57,7.61,6.2,14.63,6.2,8.35,0,15.13-3.72,15.13-8.31,0-1.01-.33-1.98-.93-2.88Z"/>
    <path class="cls-17" d="M31.8,52.73c0,2.02-3.11,3.65-8.03,3.65-3.88,0-9.95-1.91-9.95-4.26,0-2.07,6.07-3.05,9.95-3.05s8.03,1.63,8.03,3.65Z"/>
    <path class="cls-1" d="M32.2,41.54s2.58-1.97,4-1.41c1.22.48,1.11,5-.29,6.67-.81.96-1.82,1.41-2.63.63-.71-.68-1.68-.74-1.68-.74l-.66,2.35s1.34,1.01,2.48,1.02c1.45.01,4.07-1.02,4.89-4.15.66-2.53.56-7.37-.91-8.14-.96-.5-2.12-1.16-2.72-.77-.59.4-3.01,2.37-3.01,2.37l.54,2.17Z"/>
    <path class="cls-7" d="M33.25,42.61s2.64-2.93,4.06-2.37c1.22.48.78,5.56-.63,7.22-.81.96-1.36,1.3-2.3,1.3s-1.74-1-1.74-1l-.49,1.71s1.07.88,2.2.89c1.45.01,3.8-1.22,4.82-4.28.86-2.57.98-7.35-.49-8.13-.96-.5-2.38-.28-2.98.11-.59.39-3.01,2.37-3.01,2.37l.54,2.17Z"/>
    <path class="cls-9" d="M31.76,38.76s3.13-2.55,4.32-2.49c1.19.07,2.62,1.68,2.62,1.68,0,0-1.32-.33-2.53.3-.95.49-4,3.35-4,3.35l-.42-2.84Z"/>
    <path class="cls-13" d="M32,51.2c0,2.5-3.18,4.52-7.1,4.52s-7.1-2.02-7.1-4.52,3.18-4.52,7.1-4.52,7.1,2.02,7.1,4.52Z"/>
    <path class="cls-6" d="M31.48,53.2c-.25.17-.51.33-.78.47h0c-.63.34-1.31.61-2.01.81-3.37.96-7.31.39-9.67-.83-5.77-2.99-4.54-18.25-4.54-18.25h20.84s.53,14.81-3.83,17.8Z"/>
    <path class="cls-14" d="M23.48,54.88c-1.7-.18-3.28-.62-4.45-1.23-3.78-1.96-4.56-9.18-4.64-13.93,0-.22,0-.43,0-.64-.02-2.17.1-3.68.1-3.68h6.45c-.24,2.04-.3,4.1-.22,6.15.01.3.03.61.05.92,0,.16.02.32.03.48.22,3.1.74,6.23,1.65,9.19.29.93.63,1.85,1.04,2.74Z"/>
    <path class="cls-3" d="M35.31,35.4c0,3.16-4.66,5.73-10.42,5.73s-10.42-2.56-10.42-5.73,4.66-5.73,10.42-5.73,10.42,2.56,10.42,5.73Z"/>
    <path class="cls-12" d="M34.23,35.4c0,.49-.13.97-.37,1.42-1.12,2.14-4.71,3.71-8.97,3.71s-7.84-1.57-8.97-3.71c-.24-.45-.37-.93-.37-1.42,0-2.83,4.18-5.13,9.33-5.13s9.33,2.3,9.33,5.13Z"/>
    <path class="cls-10" d="M21.06,30.72c-3.24.8-5.5,2.6-5.5,4.68,0,.49.13.97.37,1.42.76,1.45,2.66,2.64,5.13,3.25v-9.35Z"/>
    <path class="cls-8" d="M33.86,36.82c-.12.23-.27.46-.45.67-1.46,1.79-4.72,3.03-8.51,3.03-4.25,0-7.84-1.57-8.97-3.71.88-1.68,3.27-3.01,6.32-3.5.84-.14,1.73-.21,2.65-.21,4.25,0,7.84,1.57,8.97,3.71Z"/>
    <path class="cls-15" d="M28.42,39.53c-1.32.1-2.65.11-3.96-.05-1.26-.15-2.57-.41-3.7-1.03-1.04-.57-1.76-1.58-1.9-2.76-.06-.5.02-.99.18-1.44-1.47.65-2.57,1.54-3.11,2.57,1.12,2.14,4.71,3.71,8.97,3.71,2.39,0,4.57-.49,6.22-1.31-.89.14-1.79.25-2.69.31Z"/>
    <path class="cls-4" d="M33.86,36.82c-.12.23-.27.46-.45.67-.55.21-1.12.31-1.67.16-.58-.16-1.06-.59-1.65-.69-.64-.12-1.29.16-1.91.36-.62.2-1.36.32-1.89-.06-.88-.64-.56-2.14-1.35-2.9-.48-.46-1.21-.49-1.86-.65-.29-.07-.59-.2-.83-.39.84-.14,1.73-.21,2.65-.21,4.25,0,7.84,1.57,8.97,3.71Z"/>
    <path class="cls-8" d="M26.03,33.89c-.1,0-.1.16,0,.16s.1-.16,0-.16Z"/>
    <path class="cls-8" d="M26.55,35.28c-.08,0-.08.12,0,.12s.08-.12,0-.12Z"/>
    <path class="cls-8" d="M27.22,36.39l-.04-.05-.02-.02-.05-.03h-.06s-.04,0-.04,0c-.02,0-.05.02-.06.04l-.02.02-.03.03-.02.04v.07s0,.04,0,.04l.02.04.03.03.04.02s.04.02.07.01h.05s.04-.02.04-.02l.03-.03.03-.03.02-.04v-.07s0-.04,0-.04Z"/>
    <path class="cls-8" d="M29.08,35.04c-.06,0-.06.09,0,.09s.06-.09,0-.09Z"/>
    <path class="cls-8" d="M27.77,34.01c-.09,0-.09.14,0,.14s.09-.14,0-.14Z"/>
    <path class="cls-8" d="M27.08,35.04c-.14,0-.14.21,0,.21s.14-.21,0-.21Z"/>
    <path class="cls-8" d="M27.77,35.83c-.18,0-.18.28,0,.28s.18-.28,0-.28Z"/>
    <path class="cls-8" d="M29.04,35.82c-.2,0-.2.31,0,.31s.2-.31,0-.31Z"/>
    <path class="cls-8" d="M29.08,34.26c-.2,0-.2.3,0,.3s.2-.3,0-.3Z"/>
    <path class="cls-8" d="M29.86,34.86c-.19,0-.19.29,0,.29s.19-.29,0-.29Z"/>
    <path class="cls-8" d="M29.97,35.81c-.11,0-.11.17,0,.17s.11-.17,0-.17Z"/>
    <path class="cls-8" d="M31.12,36.42c-.09,0-.09.14,0,.14s.09-.14,0-.14Z"/>
    <path class="cls-8" d="M31.9,36.39c-.13,0-.13.21,0,.21s.13-.21,0-.21Z"/>
    <path class="cls-8" d="M32.31,35.92c-.26,0-.26.4,0,.4s.26-.4,0-.4Z"/>
    <path class="cls-8" d="M31.34,35.43c-.12,0-.12.19,0,.19s.12-.19,0-.19Z"/>
    <path class="cls-8" d="M30.9,34.59c-.06,0-.06.09,0,.09s.06-.09,0-.09Z"/>
    <path class="cls-8" d="M30.45,35.23c-.23,0-.23.36,0,.36s.23-.36,0-.36Z"/>
    <path class="cls-8" d="M30.6,36.3c-.06,0-.06.09,0,.09s.06-.09,0-.09Z"/>
    <path class="cls-8" d="M29.41,36.49c-.09,0-.09.15,0,.15s.09-.15,0-.15Z"/>
    <path class="cls-8" d="M27.03,36.85c-.06,0-.06.1,0,.1s.06-.1,0-.1Z"/>
    <path class="cls-8" d="M26.32,36.38c-.09,0-.09.15,0,.15s.09-.15,0-.15Z"/>
    <path class="cls-8" d="M26.36,35.55c-.06,0-.06.1,0,.1s.06-.1,0-.1Z"/>
    <path class="cls-8" d="M25.91,35.27s-.04.06,0,.06.04-.06,0-.06Z"/>
    <path class="cls-8" d="M26.25,34.32c-.11,0-.11.18,0,.18s.11-.18,0-.18Z"/>
    <path class="cls-8" d="M25.73,34.19c-.05,0-.05.08,0,.08s.05-.08,0-.08Z"/>
    <path class="cls-8" d="M24.35,33.54c-.11,0-.11.18,0,.18s.11-.18,0-.18Z"/>
    <path class="cls-8" d="M23.68,33.38c-.13,0-.13.2,0,.2s.13-.2,0-.2Z"/>
    <path class="cls-8" d="M28,34.71c-.19,0-.19.29,0,.29s.19-.29,0-.29Z"/>
    <path class="cls-8" d="M27.07,34.03c-.15,0-.15.23,0,.23s.15-.23,0-.23Z"/>
    <path class="cls-8" d="M26.73,33.53c-.08,0-.08.13,0,.13s.08-.13,0-.13Z"/>
    <path class="cls-8" d="M25.77,34.9c-.14,0-.14.22,0,.22s.14-.22,0-.22Z"/>
    <path class="cls-8" d="M25.32,33.53c-.13,0-.13.2,0,.2s.13-.2,0-.2Z"/>
    <path class="cls-8" d="M30.6,35.67c-.11,0-.11.17,0,.17s.11-.17,0-.17Z"/>
    <path class="cls-8" d="M30.19,36.5c-.18,0-.18.28,0,.28s.18-.28,0-.28Z"/>
    <path class="cls-8" d="M29.08,35.23c-.09,0-.09.15,0,.15s.09-.15,0-.15Z"/>
    <path class="cls-8" d="M28.41,36.1c-.18,0-.18.27,0,.27s.18-.27,0-.27Z"/>
    <path class="cls-8" d="M28.18,36.7c-.17,0-.17.26,0,.26s.17-.26,0-.26Z"/>
    <path class="cls-8" d="M28.82,36.53c-.2,0-.2.3,0,.3s.2-.3,0-.3Z"/>
    <path class="cls-8" d="M28.54,35.44c-.14,0-.15.23,0,.23s.15-.23,0-.23Z"/>
    <path class="cls-8" d="M30.53,34.59c-.06,0-.06.09,0,.09s.06-.09,0-.09Z"/>
    <path class="cls-8" d="M31.38,35.93c-.11,0-.11.17,0,.17s.11-.17,0-.17Z"/>
    <path class="cls-8" d="M31.75,37.09c-.14,0-.15.22,0,.22s.14-.22,0-.22Z"/>
    <path class="cls-8" d="M32.24,37.31c-.1,0-.1.16,0,.16s.1-.16,0-.16Z"/>
    <path class="cls-8" d="M32.87,37.03s-.03.04,0,.04.03-.04,0-.04Z"/>
    <path class="cls-8" d="M32.91,36.51c-.07,0-.07.11,0,.11s.07-.11,0-.11Z"/>
    <path class="cls-8" d="M33.24,36.71c-.05,0-.05.08,0,.08s.05-.08,0-.08Z"/>
    <path class="cls-8" d="M33.39,36.92c-.13,0-.13.2,0,.2s.13-.2,0-.2Z"/>
    <path class="cls-8" d="M28,34.31c-.75,0-.75,1.16,0,1.16s.75-1.16,0-1.16Z"/>
    <path class="cls-8" d="M32.01,35.51c-.03-.1-.08-.18-.15-.25-.04-.03-.08-.06-.12-.09-.09-.05-.18-.08-.29-.08-.08,0-.15.01-.22.05-.07.02-.13.06-.18.12-.06.05-.09.11-.12.18-.04.07-.05.14-.05.22,0,.05.01.1.02.15.03.1.08.18.15.25.04.03.08.06.12.09.09.05.18.08.29.08.08,0,.15-.01.22-.05.07-.02.13-.06.18-.12.06-.05.09-.11.12-.18.04-.07.05-.14.05-.22l-.02-.15Z"/>
    <path class="cls-8" d="M26.19,33.85s-.05-.06-.07-.09c-.03-.02-.06-.05-.09-.07-.05-.03-.11-.05-.17-.05-.04-.01-.08-.01-.12,0-.04,0-.08.01-.11.03-.06.02-.1.05-.14.09l-.07.09h0s0,.01,0,.01h0s-.04.1-.04.1c-.02.06-.02.11,0,.17,0,.06.02.11.05.16h0s0,.01,0,.01h0s.05.06.07.09c.04.04.09.07.14.09.04.02.07.03.11.03.06.01.12.01.18,0,.04-.01.07-.03.11-.05.03-.02.06-.05.09-.07.02-.03.05-.06.07-.09.03-.05.05-.11.05-.17.01-.04.01-.08,0-.12,0-.06-.02-.12-.05-.17Z"/>
    <path class="cls-8" d="M27.07,36.08c-.43,0-.43.67,0,.67s.44-.67,0-.67Z"/>
    <path class="cls-2" d="M24.27,43.32c-3.82,0-7.54-1.38-9.9-3.61v-.64c2.24,2.33,6.01,3.79,9.9,3.79,4.77,0,8.9-1.4,11.05-3.69l-.05.69c-2.32,2.16-6.38,3.46-11,3.46Z"/>
    <path class="cls-11" d="M20.76,42.46c0,.16.02.32.03.48-2.51-.55-4.79-1.69-6.41-3.22h0v-.65h0c1.55,1.61,3.84,2.81,6.38,3.39Z"/>
    <path class="cls-16" d="M33.74,40.47c0,.18-.01.36-.02.55-.75.47-1.61.87-2.54,1.2,0-.16,0-.32,0-.48.95-.35,1.82-.77,2.57-1.26Z"/>
  </g>
</svg>