<svg fill="none" height="30" viewBox="0 0 30 30" width="30" xmlns="http://www.w3.org/2000/svg" xmlns:xlink="http://www.w3.org/1999/xlink"><clipPath id="a"><path d="m0 0h30v30h-30z"/></clipPath><g clip-path="url(#a)" fill="#2f7262"><path d="m15.0002 5.15269-1.3443-1.38188c-3.1557-3.24375-8.94192-2.12437-11.03067 1.95375-.90375 1.76625-1.1625 4.25625.2025 7.40064h-2.02125c-3.99-10.68189 7.80937-16.55626 13.86372-10.98189.1125.10375.2225.21063.33.32063.1057-.1107.2157-.21704.33-.31875 6.0563-5.57625 17.8538.29812 13.8638 10.98001h-2.0213c1.365-3.14439 1.1063-5.63439.2025-7.40064-2.0887-4.07812-7.875-5.199375-11.0306-1.95562zm-10.85247 13.59751h2.46562c1.99875 2.2181 4.73065 4.6087 8.38685 7.1156 3.6544-2.5069 6.3882-4.8975 8.3869-7.1156h2.4656c-2.3718 2.9362-5.8875 6.0937-10.8525 9.375-4.965-3.2813-8.4806-6.4388-10.85247-9.375z"/><path d="m19.62 6.2138c-.0727-.18153-.2004-.33576-.3652-.44112-.1647-.10535-.3583-.15655-.5536-.14642-.1953.01012-.3825.08107-.5355.2029s-.264.28844-.3176.47652l-2.9962 10.48692-2.7319-6.8288c-.0636-.15841-.1693-.29644-.3056-.3992-.1363-.10277-.2981-.16636-.4679-.18392s-.3412.01158-.4957.08427c-.1544.0727-.2861.18619-.3808.32823l-3.4725 5.20692h-6.06c-.24864 0-.487097.0987-.662913.2745-.1758149.1759-.27458698.4143-.27458698.663 0 .2486.09877208.487.27458698.6629.175816.1758.414273.2746.662913.2746h6.5625c.15439-.0001.30637-.0383.44244-.1113.13608-.0729.25203-.1783.33756-.3069l2.7619-4.1418 3.0881 7.7212c.0727.1815.2004.3358.3652.4411.1647.1054.3583.1566.5536.1464.1953-.0101.3825-.081.5355-.2029.153-.1218.264-.2884.3176-.4765l2.9962-10.48685 2.7319 6.82875c.0696.1738.1897.3227.3448.4277.1551.1049.338.161.5252.1611h6.5625c.2486 0 .4871-.0988.6629-.2746.1758-.1759.2746-.4143.2746-.6629 0-.2487-.0988-.4871-.2746-.663-.1758-.1758-.4143-.2745-.6629-.2745h-5.9287z"/></g></svg>