<?xml version="1.0" encoding="UTF-8"?>
<svg id="_圖層_1" data-name="圖層 1" xmlns="http://www.w3.org/2000/svg" viewBox="0 0 50 68">
  <defs>
    <style>
      .cls-1 {
        fill: #473334;
      }

      .cls-1, .cls-2, .cls-3, .cls-4, .cls-5, .cls-6, .cls-7, .cls-8, .cls-9, .cls-10, .cls-11, .cls-12, .cls-13, .cls-14, .cls-15, .cls-16, .cls-17, .cls-18 {
        stroke-width: 0px;
      }

      .cls-2 {
        fill: #cecccf;
      }

      .cls-3 {
        fill: #dfdfe0;
      }

      .cls-4 {
        fill: #583536;
      }

      .cls-5 {
        fill: #503030;
      }

      .cls-6 {
        fill: #500f0f;
      }

      .cls-7 {
        fill: #613b3c;
      }

      .cls-8 {
        fill: #412b28;
      }

      .cls-9 {
        fill: #352522;
      }

      .cls-10 {
        fill: #c3cacc;
      }

      .cls-19 {
        opacity: .1;
      }

      .cls-11 {
        fill: #ebe8ea;
      }

      .cls-12 {
        fill: #432827;
      }

      .cls-13 {
        fill: #b9b8ba;
      }

      .cls-14 {
        fill: #4e373a;
      }

      .cls-15 {
        fill: #75474a;
      }

      .cls-16 {
        fill: #513a3c;
      }

      .cls-17 {
        fill: #2f201c;
      }

      .cls-18 {
        fill: #332521;
      }
    </style>
  </defs>
  <g class="cls-19">
    <path class="cls-6" d="M37.89,58.56c0,3.66-5.77,6.63-12.89,6.63s-12.89-2.97-12.89-6.63,5.77-6.63,12.89-6.63,12.89,2.97,12.89,6.63Z"/>
  </g>
  <g>
    <path class="cls-13" d="M35.58,55.84c0,3.22-4.74,5.82-10.59,5.82s-10.59-2.61-10.59-5.82,4.74-5.82,10.59-5.82,10.59,2.61,10.59,5.82Z"/>
    <path class="cls-12" d="M39.69,27.77c0,3.92-6.58,7.09-14.7,7.09s-14.7-3.18-14.7-7.09,6.58-7.09,14.7-7.09,14.7,3.18,14.7,7.09Z"/>
    <path class="cls-3" d="M36.38,54.02c0,3.46-5.1,6.26-11.39,6.26s-11.39-2.8-11.39-6.26,5.1-6.26,11.39-6.26,11.39,2.8,11.39,6.26Z"/>
    <polygon class="cls-3" points="36.38 54.02 13.6 54.02 10.28 18.22 39.69 18.22 36.38 54.02"/>
    <path class="cls-11" d="M33.58,18.22l-1.37,40.64c1.98-.92,4.17-2.49,4.17-4.84l3.32-35.8h-6.12Z"/>
    <path class="cls-2" d="M10.28,18.22l3.32,35.8c0,2.67,3.05,4.97,6.1,5.54l-1.98-31.79s16.47,2.46,20.58-5.13c2.31-4.27-21.17-4.42-21.17-4.42h-6.84Z"/>
    <ellipse class="cls-10" cx="24.99" cy="18.22" rx="14.7" ry="8.08"/>
    <path class="cls-4" d="M39.69,27.9c-1.73,4.47-8.27,6.94-14.7,6.94s-12.26-2.14-14.68-6.66l2.11,19.1c.02.21.13.4.3.52,2.81,2.04,7.26,3.36,12.28,3.36s9.47-1.32,12.28-3.36c.17-.12.27-.31.3-.52l2.13-19.38Z"/>
    <path class="cls-5" d="M18.12,33.85c-3.12-1.07-6.41-3.06-7.81-5.67l2.11,19.1c.02.21.13.39.3.52,1.69,1.27,4.2,2.22,6.32,2.7l-.91-16.65Z"/>
    <path class="cls-7" d="M33.2,33.6l-.69,16.48c1.12-.38,3.4-1.2,4.76-2.28.16-.13.27-.31.3-.52l2.13-19.38c-.92,2.38-3.58,4.52-6.49,5.7Z"/>
    <path class="cls-15" d="M38.9,26.75c.07.27.11.54.11.82,0,3.63-6.28,6.57-14.02,6.57s-14.02-2.94-14.02-6.57c0-.28.04-.55.11-.82l-.09-1.15c-.45.68-.7,1.41-.7,2.17,0,3.92,6.58,7.09,14.7,7.09s14.7-3.18,14.7-7.09c0-.75-.24-1.47-.68-2.15l-.11,1.13Z"/>
    <path class="cls-9" d="M40.33,17.32h0l-.53-3.09h-1.28c-2.63-2.62-7.7-4.4-13.52-4.4s-10.76,1.73-13.42,4.29h-1.36s-.57,3.31-.57,3.31v.06s-.04.14-.04.14h0c-.03.23-.05.46-.05.69,0,4.69,6.91,8.49,15.44,8.49s15.44-3.8,15.44-8.49c0-.34-.04-.68-.11-1.01Z"/>
    <path class="cls-17" d="M19.39,23.8c-1.03-.95-.88-2.63-1.06-3.97-.23-1.7-.38-3.36-.25-5.07.11-1.41.34-2.81.66-4.18-3.02.74-5.53,1.99-7.16,3.56h-1.36s-.57,3.31-.57,3.31v.06s-.04.14-.04.14h0c-.03.23-.05.46-.05.69,0,4.69,6.91,8.49,15.44,8.49,4.33,0,8.24-.98,11.05-2.56-1.85.72-12.7,3.19-16.66-.45Z"/>
    <ellipse class="cls-1" cx="25" cy="14.95" rx="14.86" ry="8.17"/>
    <path class="cls-16" d="M36.14,9.55c1.84,1.36,2.94,3.05,2.94,4.87,0,4.51-6.65,8.17-14.86,8.17-4.44,0-8.42-1.07-11.14-2.76,2.71,2,7.04,3.29,11.92,3.29,8.21,0,14.86-3.66,14.86-8.17,0-2.07-1.41-3.96-3.72-5.4Z"/>
    <path class="cls-9" d="M38.22,12.91h0l-.46-2.66h-1.1c-2.27-2.26-6.64-3.79-11.66-3.79s-9.28,1.49-11.57,3.7h-1.18s-.49,2.85-.49,2.85v.05s-.03.12-.03.12h0c-.03.2-.05.39-.05.59,0,4.04,5.96,7.32,13.32,7.32s13.32-3.28,13.32-7.32c0-.29-.04-.58-.1-.87Z"/>
    <path class="cls-17" d="M20.16,18.5c-.89-.82-.76-2.27-.91-3.43-.2-1.47-.33-2.9-.22-4.38.09-1.22.3-2.42.57-3.61-2.61.64-4.77,1.72-6.18,3.07h-1.18s-.49,2.85-.49,2.85v.05s-.03.12-.03.12h0c-.03.2-.05.39-.05.59,0,4.04,5.96,7.32,13.32,7.32,3.74,0,7.11-.85,9.53-2.21-1.59.62-10.96,2.75-14.37-.39Z"/>
    <ellipse class="cls-1" cx="25" cy="10.87" rx="12.82" ry="7.05"/>
    <path class="cls-14" d="M34.53,10.29c0,2.18-3.06,4.01-7.19,4.52-.75.09-1.53.14-2.34.14-5.26,0-9.53-2.09-9.53-4.67h0c.01-2.58,4.28-4.66,9.53-4.66s9.53,2.09,9.53,4.66Z"/>
    <path class="cls-18" d="M27.34,14.8h0c-.75.11-1.53.15-2.34.15-5.26,0-9.53-2.09-9.53-4.67h0c.75-.11,1.53-.15,2.34-.15,5.27,0,9.53,2.09,9.53,4.67Z"/>
    <path class="cls-8" d="M17.81,10.14c-.8,0-1.59.05-2.34.14h0c0,.41.11.79.3,1.16.5-.04,1.02-.07,1.54-.07,4.45,0,8.18,1.5,9.23,3.52.27-.02.54-.04.8-.07h0c0-2.59-4.26-4.68-9.53-4.68Z"/>
    <path class="cls-8" d="M24.37,6.46c5.26,0,9.53,2.09,9.53,4.66,0,.42-.12.82-.33,1.2.61-.61.96-1.3.96-2.03,0-2.57-4.27-4.66-9.53-4.66-4.41,0-8.11,1.47-9.2,3.46,1.54-1.56,4.79-2.63,8.57-2.63Z"/>
    <path class="cls-16" d="M34.61,6.21c1.59,1.17,2.53,2.63,2.53,4.21,0,3.89-5.74,7.05-12.82,7.05-3.83,0-7.26-.92-9.61-2.39,2.34,1.72,6.07,2.84,10.28,2.84,7.08,0,12.82-3.15,12.82-7.05,0-1.79-1.21-3.42-3.21-4.66Z"/>
    <path class="cls-8" d="M28.18,10.47c0,.37-.69.67-1.54.67s-1.54-.3-1.54-.67.69-.67,1.54-.67,1.54.3,1.54.67Z"/>
  </g>
</svg>