<svg fill="none" height="24" viewBox="0 0 24 24" width="24" xmlns="http://www.w3.org/2000/svg"><path d="m0 12c0-6.62742 5.37258-12 12-12 6.6274 0 12 5.37258 12 12 0 6.6274-5.3726 12-12 12-6.62742 0-12-5.3726-12-12z" fill="#2f7262"/><path clip-rule="evenodd" d="m13.75 5.75c0-.82843-.6716-1.5-1.5-1.5s-1.5.67157-1.5 1.5v5h-5c-.82843 0-1.5.6716-1.5 1.5s.67157 1.5 1.5 1.5h5v5c0 .8284.6716 1.5 1.5 1.5s1.5-.6716 1.5-1.5v-5h5c.8284 0 1.5-.6716 1.5-1.5s-.6716-1.5-1.5-1.5h-5z" fill="#fff" fill-rule="evenodd"/></svg>