<svg fill="none" height="24" viewBox="0 0 24 24" width="24" xmlns="http://www.w3.org/2000/svg"><path d="m12 24c6.6274 0 12-5.3726 12-12 0-6.62742-5.3726-12-12-12-6.62742 0-12 5.37258-12 12 0 6.6274 5.37258 12 12 12z" fill="#f6f6f6"/><path d="m5.62214 11.8874c-.38506.3851-.38506 1.0104 0 1.3955l4.92886 4.9288c.3851.3851 1.0104.3851 1.3955 0 .385-.385.385-1.0104 0-1.3954l-3.24999-3.2469h9.45109c.5452 0 .9857-.4405.9857-.9858 0-.5452-.4405-.9858-.9857-.9858h-9.44801l3.24381-3.24683c.3851-.38507.3851-1.01042 0-1.39548-.3851-.38507-1.0104-.38507-1.3955 0l-4.92884 4.92881z" fill="#3d3d3d"/></svg>