<svg fill="none" height="24" viewBox="0 0 24 24" width="24" xmlns="http://www.w3.org/2000/svg"><path clip-rule="evenodd" d="m21 12c0 4.9706-4.0294 9-9 9-4.97056 0-9-4.0294-9-9 0-4.97056 4.02944-9 9-9 4.9706 0 9 4.02944 9 9zm-13.7834.9621c-.2888-.2888-.2888-.7578 0-1.0466l-.00231-.0023 3.69661-3.69661c.2888-.2888.7578-.2888 1.0466 0s.2888.75781 0 1.04661l-2.43281 2.4352h7.08601c.4089 0 .7393.3303.7393.7393 0 .4089-.3304.7393-.7393.7393h-7.08832l2.43742 2.4352c.2888.2888.2888.7578 0 1.0466s-.7578.2888-1.0466 0z" fill="#3d3d3d" fill-rule="evenodd"/></svg>