<svg fill="none" height="24" viewBox="0 0 24 24" width="24" xmlns="http://www.w3.org/2000/svg" xmlns:xlink="http://www.w3.org/1999/xlink"><clipPath id="a"><path d="m6 4h13v16h-13z"/></clipPath><g clip-path="url(#a)"><path d="m18.6622 13.4236c1.3533-6.16747-1.7046-8.12414-3.0851-8.86432-.3037-.16325-.6234-.29742-.9566-.38687 0 0-.0045 0-.0068 0-1.6729-.44276-3.4614-.01565-5.0345 1.20308-.25161.19455-.49416.40699-.72537.63508-1.15379 1.13822-2.02424 2.65884-2.4912 4.37173-.55762 2.0573-.47149 4.1594.24482 5.9215.74577 1.8314 2.07637 3.0837 3.75155 3.5265 1.6729.4427 3.4614.0156 5.0345-1.2031 1.5142-1.1718 2.6567-2.9518 3.2143-5.0068.0181-.0649.034-.1297.0521-.1968zm-1.6049-5.20814c.6052 1.48484.6733 3.27604.1927 5.04484-.4012 1.4782-1.1425 2.7819-2.1217 3.7479-.1927.1901-.3922.3645-.603.5277-.8682.6709-1.8043 1.0376-2.7156 1.0734l.5962-.8229c1.2807-1.7666 1.555-4.0252.7344-6.0422-.6392-1.5743-.4261-3.33643.5735-4.71616l.9861-1.36185c1.0245.42265 1.8519 1.31042 2.3552 2.54927zm-9.13965 7.57174c-.60523-1.4848-.67324-3.276-.19268-5.0448.48056-1.76887 1.44848-3.28501 2.72463-4.27341.8682-.67086 1.8044-1.0376 2.7157-1.07338l-.5962.82292c-1.2807 1.7666-1.555 4.02517-.7345 6.04217.6393 1.5743.4262 3.3365-.5734 4.7162l-.9861 1.3618c-1.02458-.4226-1.85196-1.3104-2.35519-2.5492z" fill="#2f7262" stroke="#2f7262" stroke-width=".2"/></g></svg>