<svg fill="none" height="28" viewBox="0 0 28 28" width="28" xmlns="http://www.w3.org/2000/svg"><g clip-rule="evenodd" fill="#2f7262" fill-rule="evenodd"><path d="m7.43489 4.375h.00261 13.125.0026c.8108.00243 1.5877.32558 2.161.8989.5733.57331.8965 1.3502.8989 2.16099v.00261 5.6875c0 .4832-.3918.875-.875.875h-17.5c-.48325 0-.875-.3918-.875-.875v-5.6875-.00261c.00243-.81079.32558-1.58768.8989-2.16099.57331-.57332 1.3502-.89647 2.16099-.8989zm.00408 1.75c-.34806.00134-.6815.1402-.92764.38633-.24613.24614-.38499.57958-.38633.92764v4.81103h15.75v-4.81088c-.0013-.34811-.1402-.68161-.3863-.92779-.2462-.24613-.5796-.38499-.9277-.38633z"/><path d="m6.12241 12.25h.00259 15.75.0026c1.1586.0034 2.2687.4652 3.088 1.2844.8192.8193 1.281 1.9294 1.2844 3.088v.0026 6.125c0 .4832-.3918.875-.875.875s-.875-.3918-.875-.875v-6.1235c-.0023-.6958-.2798-1.3626-.7719-1.8546-.492-.4921-1.1587-.7695-1.8545-.7719h-15.74721c-.69582.0024-1.36248.2798-1.85452.7719-.49204.492-.7695 1.1587-.77187 1.8545v6.1236c0 .4832-.39175.875-.875.875s-.875-.3918-.875-.875v-6.125-.0026c.00343-1.1586.46519-2.2687 1.28444-3.088.81924-.8192 1.92939-1.281 3.08797-1.2844z"/><path d="m3.93496 20.125h.00254 20.125.0025c.579.0017 1.1338.2324 1.5432.6418s.6401.9642.6418 1.5432v.0025.4375c0 .4832-.3918.875-.875.875s-.875-.3918-.875-.875v-.4358c-.0006-.1163-.047-.2277-.1293-.3099-.0822-.0823-.1935-.1287-.3098-.1293h-20.12179c-.11627.0006-.22762.047-.30985.1293-.08223.0822-.12868.1935-.12926.3098v.4359c0 .4832-.39175.875-.875.875s-.875-.3918-.875-.875v-.4375-.0025c.00168-.579.23242-1.1338.64182-1.5432.40939-.4094.96417-.6401 1.54314-.6418z"/><path d="m7.87255 9.625h.00245 4.375.0024c.695.00195 1.3609.27888 1.8523.7703.4914.4914.7683 1.1573.7703 1.8522v.0025.875c0 .4832-.3918.875-.875.875s-.875-.3918-.875-.875v-.8735c-.0009-.2322-.0935-.4546-.2577-.6188s-.3866-.2568-.6187-.2577h-4.37217c-.23215.0009-.45454.0935-.61871.2577-.16418.1642-.2568.3866-.25772.6187v.8736c0 .4832-.39175.875-.875.875s-.875-.3918-.875-.875v-.875-.0025c.00195-.6949.27888-1.3608.77028-1.8522.4914-.49142 1.15733-.76835 1.85227-.7703z"/><path d="m15.7475 9.625h.0025 4.375.0024c.695.00195 1.3609.27888 1.8523.7703.4914.4914.7683 1.1573.7703 1.8522v.0025.875c0 .4832-.3918.875-.875.875s-.875-.3918-.875-.875v-.8735c-.0009-.2322-.0935-.4546-.2577-.6188s-.3866-.2568-.6187-.2577h-4.3722c-.2321.0009-.4545.0935-.6187.2577s-.2568.3866-.2577.6187v.8736c0 .4832-.3918.875-.875.875s-.875-.3918-.875-.875v-.875-.0025c.0019-.6949.2789-1.3608.7703-1.8522.4914-.49142 1.1573-.76835 1.8522-.7703z"/></g></svg>