<svg fill="none" height="24" viewBox="0 0 24 24" width="24" xmlns="http://www.w3.org/2000/svg"><path clip-rule="evenodd" d="m21 12c0 4.9706-4.0294 9-9 9-4.97056 0-9-4.0294-9-9 0-4.97056 4.02944-9 9-9 4.9706 0 9 4.02944 9 9zm-12.79325-3.79325c.27566-.27567.7226-.27567.99827 0l2.79498 2.79495 2.795-2.79495c.2756-.27567.7226-.27567.9983 0 .2756.27566.2756.7226 0 .99827l-2.795 2.79498 2.795 2.795c.2756.2756.2756.7226 0 .9983-.2757.2756-.7227.2756-.9983 0l-2.795-2.795-2.79498 2.795c-.27567.2756-.72261.2756-.99827 0-.27567-.2757-.27567-.7227 0-.9983l2.79495-2.795-2.79495-2.79498c-.27567-.27567-.27567-.72261 0-.99827z" fill="#3d3d3d" fill-rule="evenodd"/></svg>