<svg fill="none" height="24" viewBox="0 0 24 24" width="24" xmlns="http://www.w3.org/2000/svg" xmlns:xlink="http://www.w3.org/1999/xlink"><clipPath id="a"><path d="m0 0h24v24h-24z"/></clipPath><g clip-path="url(#a)"><path d="m12 12c2-2.96 0-7-1-8 0 3.038-1.773 4.741-3 6-1.226 1.26-2 3.24-2 5 0 1.5913.63214 3.1174 1.75736 4.2426 1.12522 1.1253 2.65134 1.7574 4.24264 1.7574s3.1174-.6321 4.2426-1.7574c1.1253-1.1252 1.7574-2.6513 1.7574-4.2426 0-1.532-1.056-3.94-2-5-1.786 3-2.791 3-4 2z" stroke="#2f7262" stroke-linecap="round" stroke-linejoin="round" stroke-width="2"/></g></svg>