<svg fill="none" height="24" viewBox="0 0 24 24" width="24" xmlns="http://www.w3.org/2000/svg"><path d="m0 12c0-6.62742 5.37258-12 12-12 6.6274 0 12 5.37258 12 12 0 6.6274-5.3726 12-12 12-6.62742 0-12-5.3726-12-12z" fill="#2f7262"/><g stroke="#fff" stroke-linecap="round" stroke-linejoin="round" stroke-width="1.5"><path d="m16.2857 10h-8.57141c-.94678 0-1.71429.7163-1.71429 1.6v4.8c0 .8837.76751 1.6 1.71429 1.6h8.57141c.9468 0 1.7143-.7163 1.7143-1.6v-4.8c0-.8837-.7675-1.6-1.7143-1.6z"/><path d="m9 10v-2.5c0-.66304.31607-1.29893.87868-1.76777.56262-.46884 1.32572-.73223 2.12132-.73223s1.5587.26339 2.1213.73223.8787 1.10473.8787 1.76777v2.5"/></g></svg>