<svg width="24" height="24" viewBox="0 0 24 24" fill="none" xmlns="http://www.w3.org/2000/svg">
<rect width="24" height="24" rx="12" fill="#F3FAF7"/>
<path fill-rule="evenodd" clip-rule="evenodd" d="M12 6.5C9.79086 6.5 8 8.29086 8 10.5L10 10.5C10 9.39543 10.8954 8.5 12 8.5C13.1046 8.5 14 9.39543 14 10.5V11.5H10V10.5H8V11.5C7.44772 11.5 7 11.9477 7 12.5V16.5C7 17.0523 7.44772 17.5 8 17.5H16C16.5523 17.5 17 17.0523 17 16.5V12.5C17 11.9477 16.5523 11.5 16 11.5V10.5C16 8.29086 14.2091 6.5 12 6.5Z" fill="#0F2421"/>
</svg>
