<svg fill="none" height="24" viewBox="0 0 24 24" width="24" xmlns="http://www.w3.org/2000/svg"><g fill="#3d3d3d"><path d="m12 2c-1.6569 0-3 1.34315-3 3v7c0 1.6569 1.3431 3 3 3s3-1.3431 3-3v-7c0-1.65685-1.3431-3-3-3z"/><path d="m7 11c.55228 0 1 .4477 1 1 0 2.2091 1.79086 4 4 4 2.2091 0 4-1.7909 4-4 0-.5523.4477-1 1-1s1 .4477 1 1c0 2.9742-2.164 5.4429-5.0033 5.9176.0022.0272.0033.0547.0033.0824v2h2c.5523 0 1 .4477 1 1s-.4477 1-1 1h-6c-.55229 0-1-.4477-1-1s.44771-1 1-1h2v-2c0-.0277.0011-.0552.0033-.0824-2.83931-.4747-5.0033-2.9434-5.0033-5.9176 0-.5523.44772-1 1-1z"/></g></svg>