<svg fill="none" height="24" viewBox="0 0 24 24" width="24" xmlns="http://www.w3.org/2000/svg"><path d="m7.27415 3c-.26215 0-.47415.212-.47415.47415v2.17696l-3.66095 3.66095.0114.01139c-.09118.08435-.14361.20288-.15045.32598v11.87187c0 .2621.212.4764.47642.4764h18.04718c.2621 0 .4764-.212.4764-.4764v-11.87187c-.0068-.1231-.0593-.23935-.1504-.32598l.0113-.01139-3.6609-3.66095v-2.17469c0-.26214-.212-.47642-.4741-.47642zm.47414.95057h9.49891v1.42471h-9.49891zm-.2781 2.37528h9.10451l-2.8494 2.84943h-9.10454zm10.25341.19604 2.6534 2.65339h-5.3068zm-13.77303 3.60171h9.49883v10.9235h-9.49883zm10.44713 0h6.6495v10.9235h-6.6495z" fill="#888" stroke="#888" stroke-miterlimit="10" stroke-width=".5"/></svg>