<svg fill="none" height="24" viewBox="0 0 24 24" width="24" xmlns="http://www.w3.org/2000/svg" xmlns:xlink="http://www.w3.org/1999/xlink"><clipPath id="a"><path d="m0 0h24v24h-24z"/></clipPath><g clip-path="url(#a)" stroke="#2f7262" stroke-linecap="round" stroke-linejoin="round" stroke-width="2"><path d="m12 3h.393c-1.2847 1.19371-2.1104 2.79985-2.3337 4.53923-.22332 1.73937.17 3.50197 1.1114 4.98147.9415 1.4795 2.3717 2.5823 4.0419 3.1168 1.6702.5344 3.4749.4667 5.1004-.1915-.6253 1.5045-1.6472 2.811-2.9568 3.7803-1.3096.9692-2.8578 1.5647-4.4793 1.7231-1.6215.1583-3.25564-.1264-4.72802-.824-1.47237-.6975-2.72777-1.7817-3.6323-3.1368-.90452-1.3551-1.42423-2.9303-1.5037-4.5576s.2843-3.2457 1.05249-4.68248 1.91199-2.63809 3.30939-3.47578 2.99594-1.28034 4.62524-1.28074z"/><path d="m17 4c0 .53043.2107 1.03914.5858 1.41421.3751.37508.8838.58579 1.4142.58579-.5304 0-1.0391.21071-1.4142.58579-.3751.37507-.5858.88378-.5858 1.41421 0-.53043-.2107-1.03914-.5858-1.41421-.3751-.37508-.8838-.58579-1.4142-.58579.5304 0 1.0391-.21071 1.4142-.58579.3751-.37507.5858-.88378.5858-1.41421z"/><path d="m20 10v2m-1-1h2z"/></g></svg>