<svg fill="none" height="24" viewBox="0 0 24 24" width="24" xmlns="http://www.w3.org/2000/svg"><path clip-rule="evenodd" d="m10.6861 3c-4.24493 0-7.68599 3.44138-7.68599 7.6864 0 4.245 3.44106 7.6864 7.68599 7.6864 1.7619 0 3.3853-.5929 4.6817-1.5901l3.9267 3.927c.3905.3905 1.0236.3905 1.4141 0 .3906-.3906.3906-1.0238 0-1.4143l-3.9266-3.9269c.9972-1.2965 1.5901-2.9201 1.5901-4.6821 0-4.24502-3.4411-7.6864-7.686-7.6864zm-5.68599 7.6864c0-3.14057 2.54575-5.6864 5.68599-5.6864 3.1402 0 5.686 2.54583 5.686 5.6864 0 3.1406-2.5458 5.6864-5.686 5.6864-3.14024 0-5.68599-2.5458-5.68599-5.6864z" fill="#3d3d3d" fill-rule="evenodd"/></svg>