<svg fill="none" height="24" viewBox="0 0 24 24" width="24" xmlns="http://www.w3.org/2000/svg"><path clip-rule="evenodd" d="m21 12c0 4.9706-4.0294 9-9 9-4.97056 0-9-4.0294-9-9 0-4.97056 4.02944-9 9-9 4.9706 0 9 4.02944 9 9zm-4.0185-2.22702c.2612-.26597.2573-.69334-.0086-.95456-.266-.26122-.6934-.25737-.9546.0086l-5.7059 5.80968-2.33093-2.3733c-.26122-.266-.68859-.2698-.95456-.0086s-.26982.6886-.0086.9545l2.8125 2.8637c.12692.1292.30049.202.48159.202s.3546-.0728.4816-.202z" fill="#3d3d3d" fill-rule="evenodd"/></svg>